<ttFont>
    <TTGlyph name=".notdef" xMin="193" yMin="0" xMax="1034" yMax="1462">
      <contour>
        <pt x="193" y="1462" on="1"/>
        <pt x="1034" y="1462" on="1"/>
        <pt x="1034" y="0" on="1"/>
        <pt x="193" y="0" on="1"/>
      </contour>
      <contour>
        <pt x="297" y="104" on="1"/>
        <pt x="930" y="104" on="1"/>
        <pt x="930" y="1358" on="1"/>
        <pt x="297" y="1358" on="1"/>
      </contour>
    </TTGlyph>
    <TTGlyph name="aatamil" xMin="60" yMin="-658" xMax="2681" yMax="1160">
      <contour>
        <pt x="2116" y="143" on="1"/>
        <pt x="2216" y="206" on="0"/>
        <pt x="2344" y="206" on="1"/>
        <pt x="2436" y="206" on="0"/>
        <pt x="2595" y="123" on="0"/>
        <pt x="2681" y="-31" on="0"/>
        <pt x="2681" y="-133" on="1"/>
        <pt x="2681" y="-289" on="0"/>
        <pt x="2491" y="-528" on="0"/>
        <pt x="2137" y="-658" on="0"/>
        <pt x="1900" y="-658" on="1"/>
        <pt x="1888" y="-658" on="1"/>
        <pt x="1621" y="-658" on="0"/>
        <pt x="1327" y="-479" on="0"/>
        <pt x="1327" y="-315" on="1"/>
        <pt x="1327" y="-215" on="0"/>
        <pt x="1477" y="-84" on="0"/>
        <pt x="1606" y="-84" on="1"/>
        <pt x="1708" y="-84" on="0"/>
        <pt x="1825" y="-126" on="1"/>
        <pt x="1796" y="-260" on="1"/>
        <pt x="1689" y="-225" on="0"/>
        <pt x="1618" y="-225" on="1"/>
        <pt x="1554" y="-225" on="0"/>
        <pt x="1484" y="-275" on="0"/>
        <pt x="1484" y="-322" on="1"/>
        <pt x="1484" y="-409" on="0"/>
        <pt x="1693" y="-510" on="0"/>
        <pt x="1897" y="-510" on="1"/>
        <pt x="1911" y="-510" on="1"/>
        <pt x="2184" y="-510" on="0"/>
        <pt x="2509" y="-303" on="0"/>
        <pt x="2509" y="-128" on="1"/>
        <pt x="2509" y="-38" on="0"/>
        <pt x="2406" y="64" on="0"/>
        <pt x="2317" y="64" on="1"/>
        <pt x="2202" y="64" on="0"/>
        <pt x="2116" y="3" on="1"/>
        <pt x="2116" y="-254" on="1"/>
        <pt x="1937" y="-254" on="1"/>
        <pt x="1937" y="212" on="1"/>
        <pt x="1611" y="212" on="1"/>
        <pt x="1512" y="-8" on="0"/>
        <pt x="1029" y="-254" on="0"/>
        <pt x="697" y="-254" on="1"/>
        <pt x="670" y="-254" on="1"/>
        <pt x="384" y="-254" on="0"/>
        <pt x="60" y="-50" on="0"/>
        <pt x="60" y="122" on="1"/>
        <pt x="60" y="189" on="0"/>
        <pt x="122" y="297" on="0"/>
        <pt x="263" y="360" on="0"/>
        <pt x="420" y="360" on="1"/>
        <pt x="1476" y="360" on="1"/>
        <pt x="1496" y="435" on="0"/>
        <pt x="1496" y="515" on="1"/>
        <pt x="1496" y="676" on="0"/>
        <pt x="1357" y="921" on="0"/>
        <pt x="1231" y="976" on="1"/>
        <pt x="1282" y="893" on="0"/>
        <pt x="1282" y="811" on="1"/>
        <pt x="1282" y="663" on="0"/>
        <pt x="1106" y="493" on="0"/>
        <pt x="955" y="493" on="1"/>
        <pt x="802" y="493" on="0"/>
        <pt x="615" y="663" on="0"/>
        <pt x="615" y="813" on="1"/>
        <pt x="615" y="976" on="0"/>
        <pt x="843" y="1160" on="0"/>
        <pt x="1031" y="1160" on="1"/>
        <pt x="1221" y="1160" on="0"/>
        <pt x="1514" y="990" on="0"/>
        <pt x="1673" y="689" on="0"/>
        <pt x="1673" y="516" on="1"/>
        <pt x="1673" y="434" on="0"/>
        <pt x="1658" y="360" on="1"/>
        <pt x="1937" y="360" on="1"/>
        <pt x="1937" y="1134" on="1"/>
        <pt x="2116" y="1134" on="1"/>
      </contour>
      <contour>
        <pt x="1053" y="1017" on="1"/>
        <pt x="1032" y="1018" on="1"/>
        <pt x="917" y="1023" on="0"/>
        <pt x="777" y="914" on="0"/>
        <pt x="777" y="814" on="1"/>
        <pt x="777" y="732" on="0"/>
        <pt x="872" y="632" on="0"/>
        <pt x="952" y="632" on="1"/>
        <pt x="1031" y="632" on="0"/>
        <pt x="1122" y="731" on="0"/>
        <pt x="1122" y="820" on="1"/>
        <pt x="1122" y="937" on="0"/>
      </contour>
      <contour>
        <pt x="1414" y="212" on="1"/>
        <pt x="449" y="212" on="1"/>
        <pt x="350" y="212" on="0"/>
        <pt x="280" y="198" on="0"/>
        <pt x="238" y="155" on="0"/>
        <pt x="238" y="114" on="1"/>
        <pt x="238" y="9" on="0"/>
        <pt x="461" y="-105" on="0"/>
        <pt x="669" y="-105" on="1"/>
        <pt x="700" y="-105" on="1"/>
        <pt x="955" y="-105" on="0"/>
        <pt x="1320" y="57" on="0"/>
      </contour>
    </TTGlyph>
    <TTGlyph name="aavowelsigntamil" xMin="180" yMin="0" xMax="1277" yMax="1134">
      <contour>
        <pt x="180" y="1134" on="1"/>
        <pt x="1277" y="1134" on="1"/>
        <pt x="1277" y="986" on="1"/>
        <pt x="930" y="986" on="1"/>
        <pt x="930" y="0" on="1"/>
        <pt x="752" y="0" on="1"/>
        <pt x="752" y="986" on="1"/>
        <pt x="357" y="986" on="1"/>
        <pt x="357" y="0" on="1"/>
        <pt x="180" y="0" on="1"/>
      </contour>
    </TTGlyph>
    <TTGlyph name="aitamil" xMin="129" yMin="-658" xMax="1965" yMax="1162">
      <contour>
        <pt x="874" y="129" on="1"/>
        <pt x="562" y="129" on="0"/>
        <pt x="310" y="-15" on="0"/>
        <pt x="310" y="-190" on="1"/>
        <pt x="310" y="-343" on="0"/>
        <pt x="517" y="-508" on="0"/>
        <pt x="696" y="-508" on="1"/>
        <pt x="840" y="-508" on="0"/>
        <pt x="989" y="-421" on="0"/>
        <pt x="1051" y="-280" on="0"/>
        <pt x="1051" y="-149" on="1"/>
        <pt x="1051" y="-22" on="1"/>
        <pt x="1229" y="-22" on="1"/>
        <pt x="1229" y="-96" on="1"/>
        <pt x="1229" y="-316" on="0"/>
        <pt x="1376" y="-508" on="0"/>
        <pt x="1533" y="-508" on="1"/>
        <pt x="1654" y="-508" on="0"/>
        <pt x="1787" y="-357" on="0"/>
        <pt x="1787" y="-215" on="1"/>
        <pt x="1787" y="-160" on="0"/>
        <pt x="1756" y="-6" on="0"/>
        <pt x="1735" y="33" on="1"/>
        <pt x="1909" y="93" on="1"/>
        <pt x="1942" y="2" on="0"/>
        <pt x="1965" y="-142" on="0"/>
        <pt x="1965" y="-222" on="1"/>
        <pt x="1965" y="-423" on="0"/>
        <pt x="1727" y="-658" on="0"/>
        <pt x="1535" y="-658" on="1"/>
        <pt x="1242" y="-658" on="0"/>
        <pt x="1138" y="-429" on="1"/>
        <pt x="1079" y="-541" on="0"/>
        <pt x="850" y="-658" on="0"/>
        <pt x="693" y="-658" on="1"/>
        <pt x="524" y="-658" on="0"/>
        <pt x="268" y="-541" on="0"/>
        <pt x="129" y="-331" on="0"/>
        <pt x="129" y="-204" on="1"/>
        <pt x="129" y="-47" on="0"/>
        <pt x="272" y="165" on="0"/>
        <pt x="585" y="277" on="0"/>
        <pt x="873" y="277" on="1"/>
        <pt x="1066" y="277" on="1"/>
        <pt x="1373" y="277" on="0"/>
        <pt x="1660" y="357" on="0"/>
        <pt x="1784" y="531" on="0"/>
        <pt x="1784" y="685" on="1"/>
        <pt x="1784" y="838" on="0"/>
        <pt x="1621" y="1013" on="0"/>
        <pt x="1486" y="1013" on="1"/>
        <pt x="1391" y="1013" on="0"/>
        <pt x="1278" y="930" on="0"/>
        <pt x="1229" y="787" on="0"/>
        <pt x="1229" y="654" on="1"/>
        <pt x="1229" y="420" on="1"/>
        <pt x="1051" y="420" on="1"/>
        <pt x="1051" y="600" on="1"/>
        <pt x="1051" y="815" on="0"/>
        <pt x="874" y="1018" on="0"/>
        <pt x="691" y="1018" on="1"/>
        <pt x="604" y="1018" on="0"/>
        <pt x="545" y="1005" on="1"/>
        <pt x="675" y="981" on="0"/>
        <pt x="828" y="816" on="0"/>
        <pt x="828" y="700" on="1"/>
        <pt x="828" y="553" on="0"/>
        <pt x="636" y="376" on="0"/>
        <pt x="482" y="376" on="1"/>
        <pt x="317" y="376" on="0"/>
        <pt x="129" y="558" on="0"/>
        <pt x="129" y="707" on="1"/>
        <pt x="129" y="838" on="0"/>
        <pt x="270" y="1044" on="0"/>
        <pt x="527" y="1162" on="0"/>
        <pt x="677" y="1162" on="1"/>
        <pt x="1007" y="1162" on="0"/>
        <pt x="1128" y="934" on="1"/>
        <pt x="1234" y="1162" on="0"/>
        <pt x="1492" y="1162" on="1"/>
        <pt x="1712" y="1162" on="0"/>
        <pt x="1965" y="901" on="0"/>
        <pt x="1965" y="686" on="1"/>
        <pt x="1965" y="501" on="0"/>
        <pt x="1807" y="257" on="0"/>
        <pt x="1452" y="129" on="0"/>
        <pt x="1109" y="129" on="1"/>
      </contour>
      <contour>
        <pt x="376" y="917" on="1"/>
        <pt x="291" y="837" on="0"/>
        <pt x="291" y="702" on="1"/>
        <pt x="291" y="613" on="0"/>
        <pt x="387" y="515" on="0"/>
        <pt x="479" y="515" on="1"/>
        <pt x="560" y="515" on="0"/>
        <pt x="660" y="609" on="0"/>
        <pt x="660" y="686" on="1"/>
        <pt x="660" y="785" on="0"/>
        <pt x="506" y="914" on="0"/>
      </contour>
    </TTGlyph>
    <TTGlyph name="aivowelsigntamil" xMin="117" yMin="-24" xMax="2245" yMax="1162">
      <contour>
        <pt x="1441" y="944" on="1"/>
        <pt x="1564" y="835" on="0"/>
        <pt x="1689" y="551" on="0"/>
        <pt x="1689" y="388" on="1"/>
        <pt x="1689" y="190" on="0"/>
        <pt x="1516" y="-24" on="0"/>
        <pt x="1357" y="-24" on="1"/>
        <pt x="1194" y="-24" on="0"/>
        <pt x="1018" y="189" on="0"/>
        <pt x="1018" y="381" on="1"/>
        <pt x="1018" y="538" on="0"/>
        <pt x="1112" y="804" on="0"/>
        <pt x="1212" y="924" on="1"/>
        <pt x="1037" y="1010" on="0"/>
        <pt x="815" y="1010" on="1"/>
        <pt x="604" y="1010" on="0"/>
        <pt x="324" y="790" on="0"/>
        <pt x="288" y="595" on="1"/>
        <pt x="406" y="672" on="0"/>
        <pt x="534" y="672" on="1"/>
        <pt x="686" y="672" on="0"/>
        <pt x="865" y="492" on="0"/>
        <pt x="865" y="337" on="1"/>
        <pt x="865" y="170" on="0"/>
        <pt x="679" y="-24" on="0"/>
        <pt x="518" y="-24" on="1"/>
        <pt x="337" y="-24" on="0"/>
        <pt x="117" y="249" on="0"/>
        <pt x="117" y="502" on="1"/>
        <pt x="117" y="699" on="0"/>
        <pt x="295" y="1000" on="0"/>
        <pt x="621" y="1162" on="0"/>
        <pt x="835" y="1162" on="1"/>
        <pt x="966" y="1162" on="0"/>
        <pt x="1222" y="1094" on="0"/>
        <pt x="1327" y="1030" on="1"/>
        <pt x="1393" y="1090" on="0"/>
        <pt x="1593" y="1162" on="0"/>
        <pt x="1685" y="1162" on="1"/>
        <pt x="1953" y="1162" on="0"/>
        <pt x="2245" y="841" on="0"/>
        <pt x="2245" y="573" on="1"/>
        <pt x="2245" y="412" on="0"/>
        <pt x="2161" y="125" on="0"/>
        <pt x="2059" y="-24" on="1"/>
        <pt x="1910" y="66" on="1"/>
        <pt x="1993" y="184" on="0"/>
        <pt x="2064" y="424" on="0"/>
        <pt x="2064" y="565" on="1"/>
        <pt x="2064" y="771" on="0"/>
        <pt x="1859" y="1010" on="0"/>
        <pt x="1681" y="1010" on="1"/>
        <pt x="1543" y="1010" on="0"/>
      </contour>
      <contour>
        <pt x="1330" y="841" on="1"/>
        <pt x="1191" y="668" on="0"/>
        <pt x="1191" y="388" on="1"/>
        <pt x="1191" y="252" on="0"/>
        <pt x="1274" y="115" on="0"/>
        <pt x="1351" y="115" on="1"/>
        <pt x="1431" y="115" on="0"/>
        <pt x="1515" y="252" on="0"/>
        <pt x="1515" y="372" on="1"/>
        <pt x="1515" y="672" on="0"/>
      </contour>
      <contour>
        <pt x="280" y="434" on="1"/>
        <pt x="289" y="277" on="0"/>
        <pt x="415" y="115" on="0"/>
        <pt x="522" y="115" on="1"/>
        <pt x="601" y="115" on="0"/>
        <pt x="697" y="221" on="0"/>
        <pt x="697" y="318" on="1"/>
        <pt x="697" y="416" on="0"/>
        <pt x="592" y="528" on="0"/>
        <pt x="505" y="528" on="1"/>
        <pt x="392" y="528" on="0"/>
      </contour>
    </TTGlyph>
    <TTGlyph name="anusvaratamil" xMin="114" yMin="1233" xMax="607" yMax="1726">
      <contour>
        <pt x="360" y="1726" on="1"/>
        <pt x="468" y="1726" on="0"/>
        <pt x="607" y="1587" on="0"/>
        <pt x="607" y="1479" on="1"/>
        <pt x="607" y="1371" on="0"/>
        <pt x="469" y="1233" on="0"/>
        <pt x="360" y="1233" on="1"/>
        <pt x="251" y="1233" on="0"/>
        <pt x="114" y="1370" on="0"/>
        <pt x="114" y="1479" on="1"/>
        <pt x="114" y="1588" on="0"/>
        <pt x="252" y="1726" on="0"/>
      </contour>
      <contour>
        <pt x="360" y="1352" on="1"/>
        <pt x="415" y="1352" on="0"/>
        <pt x="485" y="1423" on="0"/>
        <pt x="485" y="1479" on="1"/>
        <pt x="485" y="1535" on="0"/>
        <pt x="415" y="1607" on="0"/>
        <pt x="360" y="1607" on="1"/>
        <pt x="306" y="1607" on="0"/>
        <pt x="236" y="1536" on="0"/>
        <pt x="236" y="1479" on="1"/>
        <pt x="236" y="1423" on="0"/>
        <pt x="305" y="1352" on="0"/>
      </contour>
    </TTGlyph>
    <TTGlyph name="asabovesigntamil" xMin="117" yMin="-658" xMax="3869" yMax="1726">
      <contour>
        <pt x="2317" y="130" on="1"/>
        <pt x="2424" y="291" on="0"/>
        <pt x="2424" y="550" on="1"/>
        <pt x="2424" y="743" on="0"/>
        <pt x="2247" y="987" on="0"/>
        <pt x="2084" y="1013" on="1"/>
        <pt x="2140" y="844" on="0"/>
        <pt x="2140" y="657" on="1"/>
        <pt x="2140" y="429" on="0"/>
        <pt x="1940" y="186" on="0"/>
        <pt x="1751" y="186" on="1"/>
        <pt x="1587" y="186" on="0"/>
        <pt x="1387" y="392" on="0"/>
        <pt x="1387" y="583" on="1"/>
        <pt x="1387" y="790" on="0"/>
        <pt x="1626" y="1089" on="0"/>
        <pt x="1835" y="1141" on="1"/>
        <pt x="1700" y="1364" on="0"/>
        <pt x="1321" y="1572" on="0"/>
        <pt x="1065" y="1572" on="1"/>
        <pt x="850" y="1572" on="0"/>
        <pt x="494" y="1376" on="0"/>
        <pt x="299" y="1013" on="0"/>
        <pt x="299" y="767" on="1"/>
        <pt x="299" y="573" on="0"/>
        <pt x="438" y="277" on="0"/>
        <pt x="567" y="197" on="1"/>
        <pt x="526" y="280" on="0"/>
        <pt x="526" y="377" on="1"/>
        <pt x="526" y="534" on="0"/>
        <pt x="717" y="720" on="0"/>
        <pt x="885" y="720" on="1"/>
        <pt x="1040" y="720" on="0"/>
        <pt x="1233" y="525" on="0"/>
        <pt x="1233" y="361" on="1"/>
        <pt x="1233" y="180" on="0"/>
        <pt x="1014" y="-19" on="0"/>
        <pt x="831" y="-19" on="1"/>
        <pt x="624" y="-19" on="0"/>
        <pt x="297" y="184" on="0"/>
        <pt x="117" y="552" on="0"/>
        <pt x="117" y="784" on="1"/>
        <pt x="117" y="1067" on="0"/>
        <pt x="359" y="1495" on="0"/>
        <pt x="803" y="1726" on="0"/>
        <pt x="1081" y="1726" on="1"/>
        <pt x="1402" y="1726" on="0"/>
        <pt x="1902" y="1433" on="0"/>
        <pt x="2031" y="1162" on="1"/>
        <pt x="2311" y="1156" on="0"/>
        <pt x="2606" y="838" on="0"/>
        <pt x="2606" y="573" on="1"/>
        <pt x="2606" y="461" on="0"/>
        <pt x="2559" y="259" on="0"/>
        <pt x="2506" y="148" on="1"/>
        <pt x="3148" y="148" on="1"/>
        <pt x="3205" y="375" on="1"/>
        <pt x="3000" y="396" on="0"/>
        <pt x="2775" y="607" on="0"/>
        <pt x="2775" y="787" on="1"/>
        <pt x="2775" y="951" on="0"/>
        <pt x="2971" y="1162" on="0"/>
        <pt x="3131" y="1162" on="1"/>
        <pt x="3288" y="1162" on="0"/>
        <pt x="3460" y="984" on="0"/>
        <pt x="3460" y="832" on="1"/>
        <pt x="3460" y="712" on="0"/>
        <pt x="3417" y="524" on="1"/>
        <pt x="3576" y="550" on="0"/>
        <pt x="3703" y="672" on="1"/>
        <pt x="3869" y="672" on="1"/>
        <pt x="3869" y="0" on="1"/>
        <pt x="3285" y="0" on="1"/>
        <pt x="3138" y="-581" on="1"/>
        <pt x="2976" y="-536" on="1"/>
        <pt x="3111" y="0" on="1"/>
        <pt x="2324" y="0" on="1"/>
      </contour>
      <contour>
        <pt x="3240" y="517" on="1"/>
        <pt x="3282" y="710" on="0"/>
        <pt x="3282" y="825" on="1"/>
        <pt x="3282" y="916" on="0"/>
        <pt x="3204" y="1014" on="0"/>
        <pt x="3131" y="1014" on="1"/>
        <pt x="3045" y="1014" on="0"/>
        <pt x="2945" y="892" on="0"/>
        <pt x="2945" y="783" on="1"/>
        <pt x="2945" y="664" on="0"/>
        <pt x="3095" y="528" on="0"/>
      </contour>
      <contour>
        <pt x="1896" y="1008" on="1"/>
        <pt x="1737" y="977" on="0"/>
        <pt x="1564" y="750" on="0"/>
        <pt x="1564" y="578" on="1"/>
        <pt x="1564" y="454" on="0"/>
        <pt x="1661" y="325" on="0"/>
        <pt x="1752" y="325" on="1"/>
        <pt x="1855" y="325" on="0"/>
        <pt x="1963" y="498" on="0"/>
        <pt x="1963" y="657" on="1"/>
        <pt x="1963" y="836" on="0"/>
      </contour>
      <contour>
        <pt x="755" y="131" on="1"/>
        <pt x="791" y="124" on="0"/>
        <pt x="841" y="124" on="1"/>
        <pt x="951" y="124" on="0"/>
        <pt x="1071" y="248" on="0"/>
        <pt x="1071" y="361" on="1"/>
        <pt x="1071" y="454" on="0"/>
        <pt x="967" y="572" on="0"/>
        <pt x="881" y="572" on="1"/>
        <pt x="791" y="572" on="0"/>
        <pt x="686" y="457" on="0"/>
        <pt x="686" y="356" on="1"/>
        <pt x="686" y="222" on="0"/>
      </contour>
      <contour>
        <pt x="3711" y="497" on="1"/>
        <pt x="3574" y="394" on="0"/>
        <pt x="3380" y="375" on="1"/>
        <pt x="3322" y="148" on="1"/>
        <pt x="3704" y="148" on="1"/>
        <pt x="3704" y="313" on="1"/>
        <pt x="3704" y="425" on="0"/>
      </contour>
      <contour>
        <pt x="3031" y="-658" on="1"/>
      </contour>
    </TTGlyph>
    <TTGlyph name="asciicircum.tamil" xMin="81" yMin="549" xMax="1089" yMax="1473">
      <contour>
        <pt x="81" y="549" on="1"/>
        <pt x="540" y="1473" on="1"/>
        <pt x="642" y="1473" on="1"/>
        <pt x="1089" y="549" on="1"/>
        <pt x="928" y="549" on="1"/>
        <pt x="591" y="1284" on="1"/>
        <pt x="242" y="549" on="1"/>
      </contour>
    </TTGlyph>
    <TTGlyph name="asciitilde.tamil" xMin="103" yMin="588" xMax="1068" yMax="856">
      <contour>
        <pt x="552" y="653" on="1"/>
        <pt x="515" y="669" on="0"/>
        <pt x="455" y="691" on="0"/>
        <pt x="404" y="704" on="0"/>
        <pt x="359" y="709" on="0"/>
        <pt x="337" y="709" on="1"/>
        <pt x="308" y="709" on="0"/>
        <pt x="247" y="690" on="0"/>
        <pt x="186" y="657" on="0"/>
        <pt x="128" y="613" on="0"/>
        <pt x="103" y="588" on="1"/>
        <pt x="103" y="748" on="1"/>
        <pt x="203" y="856" on="0"/>
        <pt x="349" y="856" on="1"/>
        <pt x="378" y="856" on="0"/>
        <pt x="435" y="851" on="0"/>
        <pt x="498" y="836" on="0"/>
        <pt x="572" y="811" on="0"/>
        <pt x="619" y="791" on="1"/>
        <pt x="656" y="775" on="0"/>
        <pt x="716" y="753" on="0"/>
        <pt x="767" y="740" on="0"/>
        <pt x="811" y="735" on="0"/>
        <pt x="832" y="735" on="1"/>
        <pt x="862" y="735" on="0"/>
        <pt x="925" y="754" on="0"/>
        <pt x="986" y="786" on="0"/>
        <pt x="1043" y="830" on="0"/>
        <pt x="1068" y="856" on="1"/>
        <pt x="1068" y="698" on="1"/>
        <pt x="1018" y="644" on="0"/>
        <pt x="897" y="588" on="0"/>
        <pt x="822" y="588" on="1"/>
        <pt x="793" y="588" on="0"/>
        <pt x="736" y="593" on="0"/>
        <pt x="672" y="608" on="0"/>
        <pt x="598" y="633" on="0"/>
      </contour>
    </TTGlyph>
    <TTGlyph name="asterisk.tamil" xMin="82" yMin="713" xMax="1044" yMax="1726">
      <contour>
        <pt x="664" y="1638" on="1"/>
        <pt x="621" y="1245" on="1"/>
        <pt x="1018" y="1356" on="1"/>
        <pt x="1044" y="1163" on="1"/>
        <pt x="666" y="1135" on="1"/>
        <pt x="911" y="809" on="1"/>
        <pt x="733" y="713" on="1"/>
        <pt x="557" y="1071" on="1"/>
        <pt x="399" y="713" on="1"/>
        <pt x="215" y="809" on="1"/>
        <pt x="457" y="1135" on="1"/>
        <pt x="82" y="1163" on="1"/>
        <pt x="111" y="1356" on="1"/>
        <pt x="502" y="1245" on="1"/>
        <pt x="459" y="1638" on="1"/>
      </contour>
      <contour>
        <pt x="751" y="1463" on="1"/>
      </contour>
      <contour>
        <pt x="741" y="1726" on="1"/>
      </contour>
    </TTGlyph>
    <TTGlyph name="atamil" xMin="60" yMin="-658" xMax="2116" yMax="1160">
      <contour>
        <pt x="2116" y="-315" on="1"/>
        <pt x="1937" y="-315" on="1"/>
        <pt x="1937" y="212" on="1"/>
        <pt x="1611" y="212" on="1"/>
        <pt x="1512" y="-8" on="0"/>
        <pt x="1029" y="-254" on="0"/>
        <pt x="697" y="-254" on="1"/>
        <pt x="670" y="-254" on="1"/>
        <pt x="384" y="-254" on="0"/>
        <pt x="60" y="-50" on="0"/>
        <pt x="60" y="122" on="1"/>
        <pt x="60" y="189" on="0"/>
        <pt x="122" y="297" on="0"/>
        <pt x="263" y="360" on="0"/>
        <pt x="420" y="360" on="1"/>
        <pt x="1476" y="360" on="1"/>
        <pt x="1496" y="435" on="0"/>
        <pt x="1496" y="515" on="1"/>
        <pt x="1496" y="676" on="0"/>
        <pt x="1357" y="921" on="0"/>
        <pt x="1231" y="976" on="1"/>
        <pt x="1282" y="893" on="0"/>
        <pt x="1282" y="811" on="1"/>
        <pt x="1282" y="663" on="0"/>
        <pt x="1106" y="493" on="0"/>
        <pt x="955" y="493" on="1"/>
        <pt x="802" y="493" on="0"/>
        <pt x="615" y="663" on="0"/>
        <pt x="615" y="813" on="1"/>
        <pt x="615" y="976" on="0"/>
        <pt x="843" y="1160" on="0"/>
        <pt x="1031" y="1160" on="1"/>
        <pt x="1220" y="1160" on="0"/>
        <pt x="1512" y="992" on="0"/>
        <pt x="1673" y="690" on="0"/>
        <pt x="1673" y="516" on="1"/>
        <pt x="1673" y="434" on="0"/>
        <pt x="1658" y="360" on="1"/>
        <pt x="1937" y="360" on="1"/>
        <pt x="1937" y="1134" on="1"/>
        <pt x="2116" y="1134" on="1"/>
      </contour>
      <contour>
        <pt x="1053" y="1017" on="1"/>
        <pt x="1032" y="1018" on="1"/>
        <pt x="917" y="1023" on="0"/>
        <pt x="777" y="914" on="0"/>
        <pt x="777" y="814" on="1"/>
        <pt x="777" y="732" on="0"/>
        <pt x="872" y="632" on="0"/>
        <pt x="952" y="632" on="1"/>
        <pt x="1031" y="632" on="0"/>
        <pt x="1122" y="731" on="0"/>
        <pt x="1122" y="820" on="1"/>
        <pt x="1122" y="937" on="0"/>
      </contour>
      <contour>
        <pt x="1414" y="212" on="1"/>
        <pt x="449" y="212" on="1"/>
        <pt x="350" y="212" on="0"/>
        <pt x="280" y="198" on="0"/>
        <pt x="238" y="155" on="0"/>
        <pt x="238" y="114" on="1"/>
        <pt x="238" y="9" on="0"/>
        <pt x="461" y="-105" on="0"/>
        <pt x="669" y="-105" on="1"/>
        <pt x="700" y="-105" on="1"/>
        <pt x="955" y="-105" on="0"/>
        <pt x="1320" y="57" on="0"/>
      </contour>
      <contour>
        <pt x="1311" y="-658" on="1"/>
      </contour>
    </TTGlyph>
    <TTGlyph name="aulengthmarktamil" xMin="117" yMin="-24" xMax="2158" yMax="1162">
      <component glyphName="llatamil" x="0" y="0" flags="0x204"/>
    </TTGlyph>
    <TTGlyph name="autamil" xMin="107" yMin="-658" xMax="4166" yMax="1162">
      <component glyphName="otamil" x="0" y="0" flags="0x0"/>
      <component glyphName="llatamil" x="2008" y="0" flags="0x4"/>
    </TTGlyph>
    <TTGlyph name="auvowelsigntamil" xMin="117" yMin="-24" xMax="4369" yMax="1726">
      <component glyphName="evowelsigntamil" x="0" y="0" flags="0x4"/>
      <component glyphName="viramatamil" x="2583" y="-780" flags="0x4"/>
      <component glyphName="llatamil" x="2211" y="0" flags="0x4"/>
    </TTGlyph>
    <TTGlyph name="backslash.tamil" xMin="41" yMin="-658" xMax="763" yMax="1726">
      <contour>
        <pt x="219" y="1638" on="1"/>
        <pt x="763" y="-500" on="1"/>
        <pt x="585" y="-500" on="1"/>
        <pt x="41" y="1638" on="1"/>
      </contour>
      <contour>
        <pt x="451" y="1463" on="1"/>
      </contour>
      <contour>
        <pt x="441" y="1726" on="1"/>
      </contour>
      <contour>
        <pt x="390" y="0" on="1"/>
      </contour>
      <contour>
        <pt x="412" y="-658" on="1"/>
      </contour>
    </TTGlyph>
    <TTGlyph name="bar.tamil" xMin="390" yMin="-658" xMax="639" yMax="1726">
      <contour>
        <pt x="489" y="1639" on="1"/>
        <pt x="639" y="1639" on="1"/>
        <pt x="639" y="-500" on="1"/>
        <pt x="489" y="-500" on="1"/>
      </contour>
      <contour>
        <pt x="451" y="1463" on="1"/>
      </contour>
      <contour>
        <pt x="441" y="1726" on="1"/>
      </contour>
      <contour>
        <pt x="390" y="0" on="1"/>
      </contour>
      <contour>
        <pt x="412" y="-658" on="1"/>
      </contour>
    </TTGlyph>
    <TTGlyph name="braceleft.tamil" xMin="62" yMin="-658" xMax="675" yMax="1726">
      <contour>
        <pt x="501" y="882" on="1"/>
        <pt x="501" y="751" on="0"/>
        <pt x="382" y="600" on="0"/>
        <pt x="267" y="575" on="1"/>
        <pt x="267" y="563" on="1"/>
        <pt x="382" y="538" on="0"/>
        <pt x="501" y="386" on="0"/>
        <pt x="501" y="256" on="1"/>
        <pt x="501" y="-155" on="1"/>
        <pt x="501" y="-215" on="0"/>
        <pt x="525" y="-290" on="0"/>
        <pt x="570" y="-334" on="0"/>
        <pt x="635" y="-350" on="0"/>
        <pt x="675" y="-351" on="1"/>
        <pt x="675" y="-500" on="1"/>
        <pt x="598" y="-499" on="0"/>
        <pt x="467" y="-459" on="0"/>
        <pt x="372" y="-372" on="0"/>
        <pt x="318" y="-239" on="0"/>
        <pt x="318" y="-144" on="1"/>
        <pt x="318" y="261" on="1"/>
        <pt x="318" y="324" on="0"/>
        <pt x="285" y="412" on="0"/>
        <pt x="220" y="467" on="0"/>
        <pt x="124" y="491" on="0"/>
        <pt x="62" y="491" on="1"/>
        <pt x="62" y="646" on="1"/>
        <pt x="187" y="646" on="0"/>
        <pt x="318" y="751" on="0"/>
        <pt x="318" y="876" on="1"/>
        <pt x="318" y="1282" on="1"/>
        <pt x="318" y="1377" on="0"/>
        <pt x="372" y="1510" on="0"/>
        <pt x="467" y="1597" on="0"/>
        <pt x="598" y="1637" on="0"/>
        <pt x="675" y="1638" on="1"/>
        <pt x="675" y="1488" on="1"/>
        <pt x="635" y="1487" on="0"/>
        <pt x="570" y="1471" on="0"/>
        <pt x="525" y="1427" on="0"/>
        <pt x="501" y="1352" on="0"/>
        <pt x="501" y="1292" on="1"/>
      </contour>
      <contour>
        <pt x="251" y="1463" on="1"/>
      </contour>
      <contour>
        <pt x="241" y="1726" on="1"/>
      </contour>
      <contour>
        <pt x="190" y="0" on="1"/>
      </contour>
      <contour>
        <pt x="212" y="-658" on="1"/>
      </contour>
    </TTGlyph>
    <TTGlyph name="braceright.tamil" xMin="82" yMin="-658" xMax="695" yMax="1726">
      <contour>
        <pt x="256" y="256" on="1"/>
        <pt x="256" y="387" on="0"/>
        <pt x="375" y="538" on="0"/>
        <pt x="490" y="563" on="1"/>
        <pt x="490" y="575" on="1"/>
        <pt x="375" y="600" on="0"/>
        <pt x="256" y="752" on="0"/>
        <pt x="256" y="882" on="1"/>
        <pt x="256" y="1293" on="1"/>
        <pt x="256" y="1353" on="0"/>
        <pt x="232" y="1428" on="0"/>
        <pt x="187" y="1472" on="0"/>
        <pt x="122" y="1488" on="0"/>
        <pt x="82" y="1489" on="1"/>
        <pt x="82" y="1638" on="1"/>
        <pt x="159" y="1637" on="0"/>
        <pt x="290" y="1597" on="0"/>
        <pt x="385" y="1510" on="0"/>
        <pt x="439" y="1377" on="0"/>
        <pt x="439" y="1282" on="1"/>
        <pt x="439" y="877" on="1"/>
        <pt x="439" y="814" on="0"/>
        <pt x="472" y="726" on="0"/>
        <pt x="537" y="671" on="0"/>
        <pt x="633" y="647" on="0"/>
        <pt x="695" y="647" on="1"/>
        <pt x="695" y="492" on="1"/>
        <pt x="570" y="492" on="0"/>
        <pt x="439" y="387" on="0"/>
        <pt x="439" y="262" on="1"/>
        <pt x="439" y="-144" on="1"/>
        <pt x="439" y="-239" on="0"/>
        <pt x="385" y="-372" on="0"/>
        <pt x="290" y="-459" on="0"/>
        <pt x="159" y="-499" on="0"/>
        <pt x="82" y="-500" on="1"/>
        <pt x="82" y="-350" on="1"/>
        <pt x="122" y="-349" on="0"/>
        <pt x="187" y="-333" on="0"/>
        <pt x="232" y="-289" on="0"/>
        <pt x="256" y="-214" on="0"/>
        <pt x="256" y="-154" on="1"/>
      </contour>
      <contour>
        <pt x="451" y="1463" on="1"/>
      </contour>
      <contour>
        <pt x="441" y="1726" on="1"/>
      </contour>
      <contour>
        <pt x="490" y="0" on="1"/>
      </contour>
      <contour>
        <pt x="512" y="-658" on="1"/>
      </contour>
    </TTGlyph>
    <TTGlyph name="bracketleft.tamil" xMin="164" yMin="-658" xMax="569" yMax="1726">
      <contour>
        <pt x="569" y="-500" on="1"/>
        <pt x="164" y="-500" on="1"/>
        <pt x="164" y="1638" on="1"/>
        <pt x="569" y="1638" on="1"/>
        <pt x="569" y="1499" on="1"/>
        <pt x="346" y="1499" on="1"/>
        <pt x="346" y="-360" on="1"/>
        <pt x="569" y="-360" on="1"/>
      </contour>
      <contour>
        <pt x="451" y="1463" on="1"/>
      </contour>
      <contour>
        <pt x="441" y="1726" on="1"/>
      </contour>
      <contour>
        <pt x="390" y="0" on="1"/>
      </contour>
      <contour>
        <pt x="412" y="-658" on="1"/>
      </contour>
    </TTGlyph>
    <TTGlyph name="bracketright.tamil" xMin="81" yMin="-658" xMax="487" yMax="1726">
      <contour>
        <pt x="81" y="-360" on="1"/>
        <pt x="304" y="-360" on="1"/>
        <pt x="304" y="1499" on="1"/>
        <pt x="81" y="1499" on="1"/>
        <pt x="81" y="1638" on="1"/>
        <pt x="487" y="1638" on="1"/>
        <pt x="487" y="-500" on="1"/>
        <pt x="81" y="-500" on="1"/>
      </contour>
      <contour>
        <pt x="251" y="1463" on="1"/>
      </contour>
      <contour>
        <pt x="241" y="1726" on="1"/>
      </contour>
      <contour>
        <pt x="190" y="0" on="1"/>
      </contour>
      <contour>
        <pt x="212" y="-658" on="1"/>
      </contour>
    </TTGlyph>
    <TTGlyph name="caprehalftamil" xMin="100" yMin="-23" xMax="1398" yMax="1726">
      <component glyphName="catamil" x="0" y="0" flags="0x204"/>
      <component glyphName="viramatamil" x="1455" y="0" flags="0x4"/>
    </TTGlyph>
    <TTGlyph name="catamil" xMin="100" yMin="-23" xMax="1398" yMax="1134">
      <contour>
        <pt x="327" y="1134" on="1"/>
        <pt x="1398" y="1134" on="1"/>
        <pt x="1398" y="986" on="1"/>
        <pt x="1015" y="986" on="1"/>
        <pt x="1015" y="672" on="1"/>
        <pt x="1398" y="672" on="1"/>
        <pt x="1398" y="529" on="1"/>
        <pt x="1015" y="529" on="1"/>
        <pt x="1015" y="462" on="1"/>
        <pt x="1015" y="255" on="0"/>
        <pt x="894" y="60" on="0"/>
        <pt x="689" y="-23" on="0"/>
        <pt x="535" y="-23" on="1"/>
        <pt x="412" y="-23" on="0"/>
        <pt x="209" y="63" on="0"/>
        <pt x="100" y="218" on="0"/>
        <pt x="100" y="318" on="1"/>
        <pt x="100" y="427" on="0"/>
        <pt x="213" y="578" on="0"/>
        <pt x="327" y="621" on="1"/>
      </contour>
      <contour>
        <pt x="679" y="672" on="1"/>
        <pt x="841" y="672" on="1"/>
        <pt x="841" y="986" on="1"/>
        <pt x="488" y="986" on="1"/>
        <pt x="488" y="660" on="1"/>
        <pt x="572" y="672" on="0"/>
      </contour>
      <contour>
        <pt x="841" y="529" on="1"/>
        <pt x="665" y="529" on="1"/>
        <pt x="460" y="529" on="0"/>
        <pt x="277" y="430" on="0"/>
        <pt x="277" y="314" on="1"/>
        <pt x="277" y="225" on="0"/>
        <pt x="423" y="125" on="0"/>
        <pt x="550" y="125" on="1"/>
        <pt x="708" y="125" on="0"/>
        <pt x="841" y="277" on="0"/>
        <pt x="841" y="436" on="1"/>
      </contour>
    </TTGlyph>
    <TTGlyph name="cauuvowelsigntamil" xMin="139" yMin="-658" xMax="2413" yMax="1134">
      <contour>
        <pt x="1781" y="0" on="1"/>
        <pt x="1781" y="529" on="1"/>
        <pt x="1501" y="529" on="1"/>
        <pt x="1501" y="462" on="1"/>
        <pt x="1501" y="255" on="0"/>
        <pt x="1380" y="60" on="0"/>
        <pt x="1175" y="-23" on="0"/>
        <pt x="1021" y="-23" on="1"/>
        <pt x="830" y="-23" on="0"/>
        <pt x="586" y="163" on="0"/>
        <pt x="586" y="318" on="1"/>
        <pt x="586" y="427" on="0"/>
        <pt x="699" y="578" on="0"/>
        <pt x="813" y="621" on="1"/>
        <pt x="813" y="1134" on="1"/>
        <pt x="1885" y="1134" on="1"/>
        <pt x="1885" y="986" on="1"/>
        <pt x="1501" y="986" on="1"/>
        <pt x="1501" y="672" on="1"/>
        <pt x="2213" y="672" on="1"/>
        <pt x="2213" y="529" on="1"/>
        <pt x="1952" y="529" on="1"/>
        <pt x="1952" y="322" on="1"/>
        <pt x="2027" y="358" on="0"/>
        <pt x="2118" y="358" on="1"/>
        <pt x="2246" y="358" on="0"/>
        <pt x="2413" y="169" on="0"/>
        <pt x="2413" y="10" on="1"/>
        <pt x="2413" y="-197" on="0"/>
        <pt x="2147" y="-497" on="0"/>
        <pt x="1646" y="-658" on="0"/>
        <pt x="1325" y="-658" on="1"/>
        <pt x="1266" y="-658" on="1"/>
        <pt x="911" y="-658" on="0"/>
        <pt x="406" y="-429" on="0"/>
        <pt x="139" y="5" on="0"/>
        <pt x="139" y="277" on="1"/>
        <pt x="139" y="327" on="1"/>
        <pt x="139" y="522" on="0"/>
        <pt x="269" y="907" on="0"/>
        <pt x="422" y="1134" on="1"/>
        <pt x="574" y="1045" on="1"/>
        <pt x="316" y="689" on="0"/>
        <pt x="316" y="327" on="1"/>
        <pt x="316" y="288" on="1"/>
        <pt x="316" y="-82" on="0"/>
        <pt x="812" y="-500" on="0"/>
        <pt x="1288" y="-500" on="1"/>
        <pt x="1317" y="-500" on="1"/>
        <pt x="1749" y="-500" on="0"/>
        <pt x="2232" y="-232" on="0"/>
        <pt x="2232" y="10" on="1"/>
        <pt x="2232" y="107" on="0"/>
        <pt x="2139" y="222" on="0"/>
        <pt x="2060" y="222" on="1"/>
        <pt x="2007" y="222" on="0"/>
        <pt x="1952" y="192" on="1"/>
        <pt x="1952" y="0" on="1"/>
      </contour>
      <contour>
        <pt x="1165" y="672" on="1"/>
        <pt x="1327" y="672" on="1"/>
        <pt x="1327" y="986" on="1"/>
        <pt x="974" y="986" on="1"/>
        <pt x="974" y="660" on="1"/>
        <pt x="1058" y="672" on="0"/>
      </contour>
      <contour>
        <pt x="1327" y="529" on="1"/>
        <pt x="1151" y="529" on="1"/>
        <pt x="943" y="529" on="0"/>
        <pt x="763" y="428" on="0"/>
        <pt x="763" y="314" on="1"/>
        <pt x="763" y="225" on="0"/>
        <pt x="910" y="125" on="0"/>
        <pt x="1037" y="125" on="1"/>
        <pt x="1194" y="125" on="0"/>
        <pt x="1327" y="277" on="0"/>
        <pt x="1327" y="436" on="1"/>
      </contour>
    </TTGlyph>
    <TTGlyph name="cauvowelsigntamil" xMin="100" yMin="-23" xMax="1727" yMax="1134">
      <contour>
        <pt x="1295" y="0" on="1"/>
        <pt x="1295" y="529" on="1"/>
        <pt x="1015" y="529" on="1"/>
        <pt x="1015" y="462" on="1"/>
        <pt x="1015" y="255" on="0"/>
        <pt x="894" y="60" on="0"/>
        <pt x="689" y="-23" on="0"/>
        <pt x="535" y="-23" on="1"/>
        <pt x="344" y="-23" on="0"/>
        <pt x="100" y="163" on="0"/>
        <pt x="100" y="318" on="1"/>
        <pt x="100" y="427" on="0"/>
        <pt x="213" y="578" on="0"/>
        <pt x="327" y="621" on="1"/>
        <pt x="327" y="1134" on="1"/>
        <pt x="1398" y="1134" on="1"/>
        <pt x="1398" y="986" on="1"/>
        <pt x="1015" y="986" on="1"/>
        <pt x="1015" y="672" on="1"/>
        <pt x="1727" y="672" on="1"/>
        <pt x="1727" y="529" on="1"/>
        <pt x="1466" y="529" on="1"/>
        <pt x="1466" y="0" on="1"/>
      </contour>
      <contour>
        <pt x="679" y="672" on="1"/>
        <pt x="841" y="672" on="1"/>
        <pt x="841" y="986" on="1"/>
        <pt x="488" y="986" on="1"/>
        <pt x="488" y="660" on="1"/>
        <pt x="572" y="672" on="0"/>
      </contour>
      <contour>
        <pt x="841" y="529" on="1"/>
        <pt x="665" y="529" on="1"/>
        <pt x="460" y="529" on="0"/>
        <pt x="277" y="430" on="0"/>
        <pt x="277" y="314" on="1"/>
        <pt x="277" y="225" on="0"/>
        <pt x="423" y="125" on="0"/>
        <pt x="550" y="125" on="1"/>
        <pt x="708" y="125" on="0"/>
        <pt x="841" y="277" on="0"/>
        <pt x="841" y="436" on="1"/>
      </contour>
    </TTGlyph>
    <TTGlyph name="colon.tamil" xMin="94" yMin="-29" xMax="401" yMax="1134">
      <contour>
        <pt x="147" y="111" on="1"/>
        <pt x="147" y="149" on="0"/>
        <pt x="167" y="202" on="0"/>
        <pt x="201" y="235" on="0"/>
        <pt x="247" y="250" on="0"/>
        <pt x="274" y="250" on="1"/>
        <pt x="300" y="250" on="0"/>
        <pt x="347" y="235" on="0"/>
        <pt x="381" y="202" on="0"/>
        <pt x="401" y="149" on="0"/>
        <pt x="401" y="111" on="1"/>
        <pt x="401" y="74" on="0"/>
        <pt x="381" y="21" on="0"/>
        <pt x="347" y="-13" on="0"/>
        <pt x="300" y="-29" on="0"/>
        <pt x="274" y="-29" on="1"/>
        <pt x="247" y="-29" on="0"/>
        <pt x="201" y="-13" on="0"/>
        <pt x="167" y="21" on="0"/>
        <pt x="147" y="74" on="0"/>
      </contour>
      <contour>
        <pt x="147" y="987" on="1"/>
        <pt x="147" y="1026" on="0"/>
        <pt x="167" y="1079" on="0"/>
        <pt x="201" y="1112" on="0"/>
        <pt x="247" y="1126" on="0"/>
        <pt x="274" y="1126" on="1"/>
        <pt x="300" y="1126" on="0"/>
        <pt x="347" y="1112" on="0"/>
        <pt x="381" y="1079" on="0"/>
        <pt x="401" y="1026" on="0"/>
        <pt x="401" y="987" on="1"/>
        <pt x="401" y="950" on="0"/>
        <pt x="381" y="898" on="0"/>
        <pt x="347" y="864" on="0"/>
        <pt x="300" y="848" on="0"/>
        <pt x="274" y="848" on="1"/>
        <pt x="247" y="848" on="0"/>
        <pt x="201" y="864" on="0"/>
        <pt x="167" y="898" on="0"/>
        <pt x="147" y="950" on="0"/>
      </contour>
      <contour>
        <pt x="94" y="1134" on="1"/>
      </contour>
    </TTGlyph>
    <TTGlyph name="comma.tamil" xMin="63" yMin="-264" xMax="377" yMax="238">
      <contour>
        <pt x="362" y="238" on="1"/>
        <pt x="377" y="215" on="1"/>
        <pt x="363" y="161" on="0"/>
        <pt x="324" y="39" on="0"/>
        <pt x="277" y="-85" on="0"/>
        <pt x="226" y="-208" on="0"/>
        <pt x="201" y="-264" on="1"/>
        <pt x="63" y="-264" on="1"/>
        <pt x="78" y="-203" on="0"/>
        <pt x="107" y="-71" on="0"/>
        <pt x="134" y="60" on="0"/>
        <pt x="156" y="185" on="0"/>
        <pt x="164" y="238" on="1"/>
      </contour>
      <contour>
        <pt x="94" y="0" on="1"/>
      </contour>
    </TTGlyph>
    <TTGlyph name="creditsigntamil" xMin="117" yMin="-24" xMax="2716" yMax="1134">
      <contour>
        <pt x="1442" y="324" on="1"/>
        <pt x="1259" y="324" on="1"/>
        <pt x="1259" y="0" on="1"/>
        <pt x="1081" y="0" on="1"/>
        <pt x="1081" y="986" on="1"/>
        <pt x="900" y="986" on="1"/>
        <pt x="703" y="986" on="0"/>
        <pt x="472" y="913" on="0"/>
        <pt x="313" y="726" on="0"/>
        <pt x="289" y="596" on="1"/>
        <pt x="405" y="672" on="0"/>
        <pt x="534" y="672" on="1"/>
        <pt x="686" y="672" on="0"/>
        <pt x="865" y="492" on="0"/>
        <pt x="865" y="337" on="1"/>
        <pt x="865" y="170" on="0"/>
        <pt x="679" y="-24" on="0"/>
        <pt x="518" y="-24" on="1"/>
        <pt x="337" y="-24" on="0"/>
        <pt x="117" y="242" on="0"/>
        <pt x="117" y="489" on="1"/>
        <pt x="117" y="687" on="0"/>
        <pt x="285" y="973" on="0"/>
        <pt x="607" y="1134" on="0"/>
        <pt x="910" y="1134" on="1"/>
        <pt x="1606" y="1134" on="1"/>
        <pt x="1606" y="986" on="1"/>
        <pt x="1259" y="986" on="1"/>
        <pt x="1259" y="436" on="1"/>
        <pt x="1461" y="436" on="1"/>
        <pt x="1501" y="564" on="0"/>
        <pt x="1729" y="710" on="0"/>
        <pt x="1871" y="710" on="1"/>
        <pt x="2064" y="710" on="0"/>
        <pt x="2285" y="517" on="0"/>
        <pt x="2285" y="355" on="1"/>
        <pt x="2285" y="219" on="0"/>
        <pt x="2228" y="118" on="1"/>
        <pt x="2568" y="118" on="1"/>
        <pt x="2568" y="690" on="1"/>
        <pt x="2716" y="690" on="1"/>
        <pt x="2716" y="0" on="1"/>
        <pt x="2061" y="0" on="1"/>
        <pt x="2061" y="78" on="1"/>
        <pt x="2100" y="147" on="0"/>
        <pt x="2131" y="264" on="0"/>
        <pt x="2131" y="332" on="1"/>
        <pt x="2131" y="450" on="0"/>
        <pt x="1994" y="590" on="0"/>
        <pt x="1876" y="590" on="1"/>
        <pt x="1776" y="590" on="0"/>
        <pt x="1631" y="508" on="0"/>
        <pt x="1599" y="436" on="1"/>
        <pt x="1650" y="436" on="1"/>
        <pt x="1758" y="436" on="0"/>
        <pt x="1877" y="384" on="0"/>
        <pt x="1934" y="294" on="0"/>
        <pt x="1934" y="220" on="1"/>
        <pt x="1934" y="116" on="0"/>
        <pt x="1809" y="-5" on="0"/>
        <pt x="1707" y="-5" on="1"/>
        <pt x="1589" y="-5" on="0"/>
        <pt x="1442" y="157" on="0"/>
        <pt x="1442" y="299" on="1"/>
      </contour>
      <contour>
        <pt x="280" y="433" on="1"/>
        <pt x="286" y="279" on="0"/>
        <pt x="412" y="115" on="0"/>
        <pt x="522" y="115" on="1"/>
        <pt x="601" y="115" on="0"/>
        <pt x="697" y="221" on="0"/>
        <pt x="697" y="318" on="1"/>
        <pt x="697" y="416" on="0"/>
        <pt x="592" y="528" on="0"/>
        <pt x="505" y="528" on="1"/>
        <pt x="390" y="528" on="0"/>
      </contour>
      <contour>
        <pt x="1573" y="324" on="1"/>
        <pt x="1572" y="310" on="1"/>
        <pt x="1571" y="290" on="0"/>
        <pt x="1581" y="186" on="0"/>
        <pt x="1642" y="115" on="0"/>
        <pt x="1702" y="115" on="1"/>
        <pt x="1751" y="115" on="0"/>
        <pt x="1807" y="165" on="0"/>
        <pt x="1807" y="212" on="1"/>
        <pt x="1807" y="272" on="0"/>
        <pt x="1731" y="324" on="0"/>
        <pt x="1632" y="324" on="1"/>
      </contour>
    </TTGlyph>
    <TTGlyph name="dandatamil" xMin="360" yMin="-100" xMax="574" yMax="1234">
      <contour>
        <pt x="360" y="-100" on="1"/>
        <pt x="360" y="1234" on="1"/>
        <pt x="537" y="1234" on="1"/>
        <pt x="537" y="-100" on="1"/>
      </contour>
      <contour>
        <pt x="574" y="1134" on="1"/>
      </contour>
      <contour>
        <pt x="574" y="0" on="1"/>
      </contour>
    </TTGlyph>
    <TTGlyph name="daysigntamil" xMin="117" yMin="-24" xMax="1984" yMax="1162">
      <contour>
        <pt x="1236" y="148" on="1"/>
        <pt x="1984" y="148" on="1"/>
        <pt x="1984" y="0" on="1"/>
        <pt x="1054" y="0" on="1"/>
        <pt x="1047" y="130" on="1"/>
        <pt x="1154" y="291" on="0"/>
        <pt x="1154" y="550" on="1"/>
        <pt x="1154" y="764" on="0"/>
        <pt x="931" y="1010" on="0"/>
        <pt x="738" y="1010" on="1"/>
        <pt x="558" y="1010" on="0"/>
        <pt x="316" y="790" on="0"/>
        <pt x="286" y="594" on="1"/>
        <pt x="402" y="672" on="0"/>
        <pt x="534" y="672" on="1"/>
        <pt x="686" y="672" on="0"/>
        <pt x="865" y="492" on="0"/>
        <pt x="865" y="337" on="1"/>
        <pt x="865" y="170" on="0"/>
        <pt x="679" y="-24" on="0"/>
        <pt x="518" y="-24" on="1"/>
        <pt x="337" y="-24" on="0"/>
        <pt x="117" y="249" on="0"/>
        <pt x="117" y="502" on="1"/>
        <pt x="117" y="702" on="0"/>
        <pt x="271" y="999" on="0"/>
        <pt x="561" y="1162" on="0"/>
        <pt x="746" y="1162" on="1"/>
        <pt x="1029" y="1162" on="0"/>
        <pt x="1336" y="845" on="0"/>
        <pt x="1336" y="573" on="1"/>
        <pt x="1336" y="461" on="0"/>
        <pt x="1289" y="259" on="0"/>
      </contour>
      <contour>
        <pt x="280" y="434" on="1"/>
        <pt x="289" y="277" on="0"/>
        <pt x="415" y="115" on="0"/>
        <pt x="522" y="115" on="1"/>
        <pt x="601" y="115" on="0"/>
        <pt x="697" y="221" on="0"/>
        <pt x="697" y="318" on="1"/>
        <pt x="697" y="416" on="0"/>
        <pt x="592" y="528" on="0"/>
        <pt x="505" y="528" on="1"/>
        <pt x="390" y="528" on="0"/>
      </contour>
    </TTGlyph>
    <TTGlyph name="dbldandatamil" xMin="360" yMin="-100" xMax="987" yMax="1234">
      <contour>
        <pt x="360" y="-100" on="1"/>
        <pt x="360" y="1234" on="1"/>
        <pt x="537" y="1234" on="1"/>
        <pt x="537" y="-100" on="1"/>
      </contour>
      <contour>
        <pt x="810" y="-100" on="1"/>
        <pt x="810" y="1234" on="1"/>
        <pt x="987" y="1234" on="1"/>
        <pt x="987" y="-100" on="1"/>
      </contour>
      <contour>
        <pt x="674" y="1134" on="1"/>
      </contour>
      <contour>
        <pt x="674" y="0" on="1"/>
      </contour>
    </TTGlyph>
    <TTGlyph name="debitsigntamil" xMin="80" yMin="-658" xMax="1603" yMax="1134">
      <contour>
        <pt x="887" y="-172" on="1"/>
        <pt x="904" y="-96" on="0"/>
        <pt x="904" y="48" on="1"/>
        <pt x="904" y="71" on="1"/>
        <pt x="805" y="-23" on="0"/>
        <pt x="671" y="-23" on="1"/>
        <pt x="570" y="-23" on="0"/>
        <pt x="436" y="70" on="0"/>
        <pt x="360" y="241" on="0"/>
        <pt x="360" y="395" on="1"/>
        <pt x="360" y="1134" on="1"/>
        <pt x="537" y="1134" on="1"/>
        <pt x="537" y="461" on="1"/>
        <pt x="537" y="314" on="0"/>
        <pt x="561" y="199" on="0"/>
        <pt x="639" y="125" on="0"/>
        <pt x="709" y="125" on="1"/>
        <pt x="823" y="125" on="0"/>
        <pt x="904" y="238" on="1"/>
        <pt x="904" y="1134" on="1"/>
        <pt x="1082" y="1134" on="1"/>
        <pt x="1082" y="29" on="1"/>
        <pt x="1082" y="-75" on="0"/>
        <pt x="1063" y="-172" on="1"/>
        <pt x="1425" y="-172" on="1"/>
        <pt x="1425" y="672" on="1"/>
        <pt x="1603" y="672" on="1"/>
        <pt x="1603" y="-320" on="1"/>
        <pt x="1022" y="-320" on="1"/>
        <pt x="949" y="-482" on="0"/>
        <pt x="655" y="-658" on="0"/>
        <pt x="459" y="-658" on="1"/>
        <pt x="299" y="-658" on="0"/>
        <pt x="80" y="-481" on="0"/>
        <pt x="80" y="-343" on="1"/>
        <pt x="80" y="-281" on="0"/>
        <pt x="141" y="-203" on="0"/>
        <pt x="237" y="-172" on="0"/>
        <pt x="339" y="-172" on="1"/>
      </contour>
      <contour>
        <pt x="840" y="-320" on="1"/>
        <pt x="322" y="-320" on="1"/>
        <pt x="295" y="-320" on="0"/>
        <pt x="267" y="-327" on="0"/>
        <pt x="249" y="-350" on="0"/>
        <pt x="249" y="-369" on="1"/>
        <pt x="249" y="-433" on="0"/>
        <pt x="358" y="-509" on="0"/>
        <pt x="457" y="-509" on="1"/>
        <pt x="600" y="-509" on="0"/>
        <pt x="784" y="-415" on="0"/>
      </contour>
    </TTGlyph>
    <TTGlyph name="divide.tamil" xMin="104" yMin="0" xMax="1068" yMax="1463">
      <contour>
        <pt x="585" y="1194" on="1"/>
        <pt x="639" y="1194" on="0"/>
        <pt x="698" y="1132" on="0"/>
        <pt x="698" y="1071" on="1"/>
        <pt x="697" y="1010" on="0"/>
        <pt x="636" y="946" on="0"/>
        <pt x="585" y="946" on="1"/>
        <pt x="532" y="946" on="0"/>
        <pt x="470" y="1011" on="0"/>
        <pt x="470" y="1071" on="1"/>
        <pt x="470" y="1194" on="0"/>
      </contour>
      <contour>
        <pt x="104" y="649" on="1"/>
        <pt x="104" y="795" on="1"/>
        <pt x="1068" y="795" on="1"/>
        <pt x="1068" y="649" on="1"/>
      </contour>
      <contour>
        <pt x="585" y="496" on="1"/>
        <pt x="639" y="496" on="0"/>
        <pt x="698" y="434" on="0"/>
        <pt x="698" y="373" on="1"/>
        <pt x="698" y="313" on="0"/>
        <pt x="637" y="248" on="0"/>
        <pt x="585" y="248" on="1"/>
        <pt x="530" y="248" on="0"/>
        <pt x="470" y="313" on="0"/>
        <pt x="470" y="373" on="1"/>
        <pt x="470" y="496" on="0"/>
      </contour>
      <contour>
        <pt x="580" y="0" on="1"/>
      </contour>
      <contour>
        <pt x="591" y="1463" on="1"/>
      </contour>
    </TTGlyph>
    <TTGlyph name="eetamil" xMin="117" yMin="-658" xMax="1606" yMax="1134">
      <contour>
        <pt x="1606" y="1134" on="1"/>
        <pt x="1606" y="986" on="1"/>
        <pt x="1259" y="986" on="1"/>
        <pt x="1259" y="0" on="1"/>
        <pt x="802" y="-435" on="1"/>
        <pt x="685" y="-325" on="1"/>
        <pt x="1081" y="50" on="1"/>
        <pt x="1081" y="986" on="1"/>
        <pt x="900" y="986" on="1"/>
        <pt x="702" y="986" on="0"/>
        <pt x="471" y="913" on="0"/>
        <pt x="315" y="727" on="0"/>
        <pt x="290" y="596" on="1"/>
        <pt x="406" y="672" on="0"/>
        <pt x="534" y="672" on="1"/>
        <pt x="686" y="672" on="0"/>
        <pt x="865" y="492" on="0"/>
        <pt x="865" y="337" on="1"/>
        <pt x="865" y="170" on="0"/>
        <pt x="679" y="-24" on="0"/>
        <pt x="518" y="-24" on="1"/>
        <pt x="337" y="-24" on="0"/>
        <pt x="117" y="242" on="0"/>
        <pt x="117" y="489" on="1"/>
        <pt x="117" y="687" on="0"/>
        <pt x="285" y="973" on="0"/>
        <pt x="607" y="1134" on="0"/>
        <pt x="910" y="1134" on="1"/>
      </contour>
      <contour>
        <pt x="280" y="433" on="1"/>
        <pt x="286" y="279" on="0"/>
        <pt x="412" y="115" on="0"/>
        <pt x="522" y="115" on="1"/>
        <pt x="601" y="115" on="0"/>
        <pt x="697" y="221" on="0"/>
        <pt x="697" y="318" on="1"/>
        <pt x="697" y="416" on="0"/>
        <pt x="592" y="528" on="0"/>
        <pt x="505" y="528" on="1"/>
        <pt x="390" y="528" on="0"/>
      </contour>
      <contour>
        <pt x="1311" y="-658" on="1"/>
      </contour>
    </TTGlyph>
    <TTGlyph name="eevowelsigntamil" xMin="119" yMin="-19" xMax="1419" yMax="1726">
      <contour>
        <pt x="784" y="146" on="1"/>
        <pt x="722" y="250" on="0"/>
        <pt x="722" y="377" on="1"/>
        <pt x="722" y="530" on="0"/>
        <pt x="900" y="716" on="0"/>
        <pt x="1049" y="716" on="1"/>
        <pt x="1201" y="716" on="0"/>
        <pt x="1390" y="525" on="0"/>
        <pt x="1390" y="361" on="1"/>
        <pt x="1390" y="182" on="0"/>
        <pt x="1141" y="-19" on="0"/>
        <pt x="940" y="-19" on="1"/>
        <pt x="703" y="-19" on="0"/>
        <pt x="324" y="194" on="0"/>
        <pt x="119" y="589" on="0"/>
        <pt x="119" y="852" on="1"/>
        <pt x="119" y="1118" on="0"/>
        <pt x="339" y="1514" on="0"/>
        <pt x="738" y="1726" on="0"/>
        <pt x="985" y="1726" on="1"/>
        <pt x="1181" y="1726" on="0"/>
        <pt x="1419" y="1537" on="0"/>
        <pt x="1419" y="1367" on="1"/>
        <pt x="1419" y="1211" on="0"/>
        <pt x="1230" y="1030" on="0"/>
        <pt x="1078" y="1030" on="1"/>
        <pt x="927" y="1030" on="0"/>
        <pt x="751" y="1205" on="0"/>
        <pt x="751" y="1354" on="1"/>
        <pt x="751" y="1465" on="0"/>
        <pt x="827" y="1565" on="1"/>
        <pt x="579" y="1507" on="0"/>
        <pt x="301" y="1133" on="0"/>
        <pt x="301" y="858" on="1"/>
        <pt x="301" y="580" on="0"/>
        <pt x="553" y="207" on="0"/>
      </contour>
      <contour>
        <pt x="994" y="1584" on="1"/>
        <pt x="911" y="1491" on="0"/>
        <pt x="911" y="1362" on="1"/>
        <pt x="911" y="1274" on="0"/>
        <pt x="1002" y="1175" on="0"/>
        <pt x="1081" y="1175" on="1"/>
        <pt x="1161" y="1175" on="0"/>
        <pt x="1257" y="1281" on="0"/>
        <pt x="1257" y="1367" on="1"/>
        <pt x="1257" y="1469" on="0"/>
        <pt x="1115" y="1584" on="0"/>
        <pt x="998" y="1584" on="1"/>
      </contour>
      <contour>
        <pt x="968" y="124" on="1"/>
        <pt x="1086" y="124" on="0"/>
        <pt x="1228" y="250" on="0"/>
        <pt x="1228" y="361" on="1"/>
        <pt x="1228" y="455" on="0"/>
        <pt x="1133" y="572" on="0"/>
        <pt x="1052" y="572" on="1"/>
        <pt x="973" y="572" on="0"/>
        <pt x="882" y="458" on="0"/>
        <pt x="882" y="356" on="1"/>
        <pt x="882" y="218" on="0"/>
        <pt x="951" y="124" on="1"/>
      </contour>
    </TTGlyph>
    <TTGlyph name="eight.tamil" xMin="102" yMin="-20" xMax="1070" yMax="1483">
      <contour>
        <pt x="745" y="774" on="1"/>
        <pt x="919" y="689" on="0"/>
        <pt x="1070" y="501" on="0"/>
        <pt x="1070" y="379" on="1"/>
        <pt x="1070" y="197" on="0"/>
        <pt x="811" y="-20" on="0"/>
        <pt x="591" y="-20" on="1"/>
        <pt x="354" y="-20" on="0"/>
        <pt x="102" y="185" on="0"/>
        <pt x="102" y="373" on="1"/>
        <pt x="102" y="499" on="0"/>
        <pt x="253" y="694" on="0"/>
        <pt x="405" y="764" on="1"/>
        <pt x="272" y="839" on="0"/>
        <pt x="148" y="1020" on="0"/>
        <pt x="149" y="1135" on="1"/>
        <pt x="148" y="1294" on="0"/>
        <pt x="389" y="1483" on="0"/>
        <pt x="585" y="1483" on="1"/>
        <pt x="785" y="1483" on="0"/>
        <pt x="1023" y="1295" on="0"/>
        <pt x="1023" y="1133" on="1"/>
        <pt x="1023" y="1023" on="0"/>
        <pt x="888" y="847" on="0"/>
      </contour>
      <contour>
        <pt x="593" y="844" on="1"/>
        <pt x="727" y="899" on="0"/>
        <pt x="845" y="1034" on="0"/>
        <pt x="845" y="1127" on="1"/>
        <pt x="845" y="1225" on="0"/>
        <pt x="704" y="1338" on="0"/>
        <pt x="583" y="1338" on="1"/>
        <pt x="465" y="1338" on="0"/>
        <pt x="325" y="1224" on="0"/>
        <pt x="325" y="1127" on="1"/>
        <pt x="324" y="1038" on="0"/>
        <pt x="438" y="909" on="0"/>
      </contour>
      <contour>
        <pt x="554" y="690" on="1"/>
        <pt x="409" y="628" on="0"/>
        <pt x="278" y="476" on="0"/>
        <pt x="278" y="371" on="1"/>
        <pt x="278" y="257" on="0"/>
        <pt x="439" y="123" on="0"/>
        <pt x="587" y="123" on="1"/>
        <pt x="730" y="123" on="0"/>
        <pt x="894" y="260" on="0"/>
        <pt x="894" y="377" on="1"/>
        <pt x="894" y="471" on="0"/>
        <pt x="749" y="615" on="0"/>
        <pt x="587" y="678" on="1"/>
      </contour>
    </TTGlyph>
    <TTGlyph name="eighttamil" xMin="60" yMin="-658" xMax="2116" yMax="1162">
      <contour>
        <pt x="2116" y="-315" on="1"/>
        <pt x="1937" y="-315" on="1"/>
        <pt x="1937" y="212" on="1"/>
        <pt x="1612" y="212" on="1"/>
        <pt x="1513" y="-10" on="0"/>
        <pt x="1029" y="-254" on="0"/>
        <pt x="697" y="-254" on="1"/>
        <pt x="670" y="-254" on="1"/>
        <pt x="384" y="-254" on="0"/>
        <pt x="60" y="-50" on="0"/>
        <pt x="60" y="122" on="1"/>
        <pt x="60" y="189" on="0"/>
        <pt x="122" y="297" on="0"/>
        <pt x="263" y="360" on="0"/>
        <pt x="420" y="360" on="1"/>
        <pt x="785" y="360" on="1"/>
        <pt x="608" y="537" on="0"/>
        <pt x="608" y="750" on="1"/>
        <pt x="608" y="936" on="0"/>
        <pt x="859" y="1162" on="0"/>
        <pt x="1072" y="1162" on="1"/>
        <pt x="1253" y="1162" on="0"/>
        <pt x="1525" y="998" on="0"/>
        <pt x="1673" y="698" on="0"/>
        <pt x="1673" y="516" on="1"/>
        <pt x="1673" y="439" on="0"/>
        <pt x="1658" y="360" on="1"/>
        <pt x="1937" y="360" on="1"/>
        <pt x="1937" y="1134" on="1"/>
        <pt x="2116" y="1134" on="1"/>
      </contour>
      <contour>
        <pt x="1017" y="360" on="1"/>
        <pt x="1476" y="360" on="1"/>
        <pt x="1496" y="437" on="0"/>
        <pt x="1496" y="515" on="1"/>
        <pt x="1496" y="660" on="0"/>
        <pt x="1386" y="889" on="0"/>
        <pt x="1190" y="1013" on="0"/>
        <pt x="1069" y="1013" on="1"/>
        <pt x="943" y="1013" on="0"/>
        <pt x="789" y="870" on="0"/>
        <pt x="789" y="742" on="1"/>
        <pt x="789" y="525" on="0"/>
      </contour>
      <contour>
        <pt x="700" y="-105" on="1"/>
        <pt x="950" y="-105" on="0"/>
        <pt x="1315" y="54" on="0"/>
        <pt x="1413" y="212" on="1"/>
        <pt x="449" y="212" on="1"/>
        <pt x="350" y="212" on="0"/>
        <pt x="280" y="198" on="0"/>
        <pt x="238" y="155" on="0"/>
        <pt x="238" y="114" on="1"/>
        <pt x="238" y="9" on="0"/>
        <pt x="461" y="-105" on="0"/>
        <pt x="669" y="-105" on="1"/>
      </contour>
      <contour>
        <pt x="1311" y="-658" on="1"/>
      </contour>
    </TTGlyph>
    <TTGlyph name="ellipsis.tamil" xMin="147" yMin="-29" xMax="1499" yMax="250">
      <contour>
        <pt x="147" y="111" on="1"/>
        <pt x="147" y="149" on="0"/>
        <pt x="167" y="202" on="0"/>
        <pt x="201" y="235" on="0"/>
        <pt x="247" y="250" on="0"/>
        <pt x="274" y="250" on="1"/>
        <pt x="300" y="250" on="0"/>
        <pt x="347" y="235" on="0"/>
        <pt x="381" y="202" on="0"/>
        <pt x="401" y="149" on="0"/>
        <pt x="401" y="111" on="1"/>
        <pt x="401" y="74" on="0"/>
        <pt x="381" y="21" on="0"/>
        <pt x="347" y="-13" on="0"/>
        <pt x="300" y="-29" on="0"/>
        <pt x="274" y="-29" on="1"/>
        <pt x="247" y="-29" on="0"/>
        <pt x="201" y="-13" on="0"/>
        <pt x="167" y="21" on="0"/>
        <pt x="147" y="74" on="0"/>
      </contour>
      <contour>
        <pt x="696" y="111" on="1"/>
        <pt x="696" y="149" on="0"/>
        <pt x="716" y="202" on="0"/>
        <pt x="750" y="235" on="0"/>
        <pt x="796" y="250" on="0"/>
        <pt x="823" y="250" on="1"/>
        <pt x="849" y="250" on="0"/>
        <pt x="896" y="235" on="0"/>
        <pt x="930" y="202" on="0"/>
        <pt x="950" y="149" on="0"/>
        <pt x="950" y="111" on="1"/>
        <pt x="950" y="74" on="0"/>
        <pt x="930" y="21" on="0"/>
        <pt x="896" y="-13" on="0"/>
        <pt x="849" y="-29" on="0"/>
        <pt x="823" y="-29" on="1"/>
        <pt x="796" y="-29" on="0"/>
        <pt x="750" y="-13" on="0"/>
        <pt x="716" y="21" on="0"/>
        <pt x="696" y="74" on="0"/>
      </contour>
      <contour>
        <pt x="1245" y="111" on="1"/>
        <pt x="1245" y="149" on="0"/>
        <pt x="1264" y="202" on="0"/>
        <pt x="1299" y="235" on="0"/>
        <pt x="1345" y="250" on="0"/>
        <pt x="1372" y="250" on="1"/>
        <pt x="1398" y="250" on="0"/>
        <pt x="1445" y="235" on="0"/>
        <pt x="1479" y="202" on="0"/>
        <pt x="1499" y="149" on="0"/>
        <pt x="1499" y="111" on="1"/>
        <pt x="1499" y="74" on="0"/>
        <pt x="1479" y="21" on="0"/>
        <pt x="1445" y="-13" on="0"/>
        <pt x="1398" y="-29" on="0"/>
        <pt x="1372" y="-29" on="1"/>
        <pt x="1318" y="-29" on="0"/>
        <pt x="1245" y="37" on="0"/>
      </contour>
    </TTGlyph>
    <TTGlyph name="emdash.tamil" xMin="82" yMin="0" xMax="1966" yMax="1134">
      <contour>
        <pt x="82" y="465" on="1"/>
        <pt x="82" y="633" on="1"/>
        <pt x="1966" y="633" on="1"/>
        <pt x="1966" y="465" on="1"/>
      </contour>
      <contour>
        <pt x="324" y="1134" on="1"/>
      </contour>
      <contour>
        <pt x="324" y="0" on="1"/>
      </contour>
    </TTGlyph>
    <TTGlyph name="endash.tamil" xMin="82" yMin="0" xMax="942" yMax="1134">
      <contour>
        <pt x="82" y="465" on="1"/>
        <pt x="82" y="633" on="1"/>
        <pt x="942" y="633" on="1"/>
        <pt x="942" y="465" on="1"/>
      </contour>
      <contour>
        <pt x="324" y="1134" on="1"/>
      </contour>
      <contour>
        <pt x="324" y="0" on="1"/>
      </contour>
    </TTGlyph>
    <TTGlyph name="equal.tamil" xMin="116" yMin="0" xMax="1054" yMax="1463">
      <contour>
        <pt x="116" y="852" on="1"/>
        <pt x="116" y="997" on="1"/>
        <pt x="1054" y="997" on="1"/>
        <pt x="1054" y="852" on="1"/>
      </contour>
      <contour>
        <pt x="116" y="444" on="1"/>
        <pt x="116" y="590" on="1"/>
        <pt x="1054" y="590" on="1"/>
        <pt x="1054" y="444" on="1"/>
      </contour>
      <contour>
        <pt x="580" y="0" on="1"/>
      </contour>
      <contour>
        <pt x="591" y="1463" on="1"/>
      </contour>
    </TTGlyph>
    <TTGlyph name="etamil" xMin="117" yMin="-24" xMax="1606" yMax="1134">
      <contour>
        <pt x="1606" y="1134" on="1"/>
        <pt x="1606" y="986" on="1"/>
        <pt x="1259" y="986" on="1"/>
        <pt x="1259" y="0" on="1"/>
        <pt x="1081" y="0" on="1"/>
        <pt x="1081" y="986" on="1"/>
        <pt x="900" y="986" on="1"/>
        <pt x="703" y="986" on="0"/>
        <pt x="472" y="913" on="0"/>
        <pt x="313" y="726" on="0"/>
        <pt x="289" y="596" on="1"/>
        <pt x="405" y="672" on="0"/>
        <pt x="534" y="672" on="1"/>
        <pt x="686" y="672" on="0"/>
        <pt x="865" y="492" on="0"/>
        <pt x="865" y="337" on="1"/>
        <pt x="865" y="170" on="0"/>
        <pt x="679" y="-24" on="0"/>
        <pt x="518" y="-24" on="1"/>
        <pt x="337" y="-24" on="0"/>
        <pt x="117" y="242" on="0"/>
        <pt x="117" y="489" on="1"/>
        <pt x="117" y="687" on="0"/>
        <pt x="285" y="973" on="0"/>
        <pt x="607" y="1134" on="0"/>
        <pt x="910" y="1134" on="1"/>
      </contour>
      <contour>
        <pt x="280" y="433" on="1"/>
        <pt x="286" y="279" on="0"/>
        <pt x="412" y="115" on="0"/>
        <pt x="522" y="115" on="1"/>
        <pt x="601" y="115" on="0"/>
        <pt x="697" y="221" on="0"/>
        <pt x="697" y="318" on="1"/>
        <pt x="697" y="416" on="0"/>
        <pt x="592" y="528" on="0"/>
        <pt x="505" y="528" on="1"/>
        <pt x="390" y="528" on="0"/>
      </contour>
    </TTGlyph>
    <TTGlyph name="evowelsigntamil" xMin="117" yMin="-19" xMax="1666" yMax="1726">
      <contour>
        <pt x="567" y="197" on="1"/>
        <pt x="526" y="280" on="0"/>
        <pt x="526" y="377" on="1"/>
        <pt x="526" y="534" on="0"/>
        <pt x="717" y="720" on="0"/>
        <pt x="885" y="720" on="1"/>
        <pt x="1040" y="720" on="0"/>
        <pt x="1233" y="525" on="0"/>
        <pt x="1233" y="361" on="1"/>
        <pt x="1233" y="180" on="0"/>
        <pt x="1014" y="-19" on="0"/>
        <pt x="831" y="-19" on="1"/>
        <pt x="624" y="-19" on="0"/>
        <pt x="297" y="184" on="0"/>
        <pt x="117" y="552" on="0"/>
        <pt x="117" y="784" on="1"/>
        <pt x="117" y="1062" on="0"/>
        <pt x="351" y="1491" on="0"/>
        <pt x="758" y="1726" on="0"/>
        <pt x="987" y="1726" on="1"/>
        <pt x="1219" y="1726" on="0"/>
        <pt x="1514" y="1564" on="0"/>
        <pt x="1666" y="1226" on="0"/>
        <pt x="1666" y="907" on="1"/>
        <pt x="1666" y="0" on="1"/>
        <pt x="1489" y="0" on="1"/>
        <pt x="1489" y="773" on="1"/>
        <pt x="1489" y="1027" on="0"/>
        <pt x="1440" y="1310" on="0"/>
        <pt x="1316" y="1492" on="0"/>
        <pt x="1124" y="1572" on="0"/>
        <pt x="990" y="1572" on="1"/>
        <pt x="816" y="1572" on="0"/>
        <pt x="488" y="1380" on="0"/>
        <pt x="299" y="1015" on="0"/>
        <pt x="299" y="767" on="1"/>
        <pt x="299" y="573" on="0"/>
        <pt x="438" y="277" on="0"/>
      </contour>
      <contour>
        <pt x="755" y="131" on="1"/>
        <pt x="791" y="124" on="0"/>
        <pt x="841" y="124" on="1"/>
        <pt x="951" y="124" on="0"/>
        <pt x="1071" y="248" on="0"/>
        <pt x="1071" y="361" on="1"/>
        <pt x="1071" y="454" on="0"/>
        <pt x="967" y="572" on="0"/>
        <pt x="881" y="572" on="1"/>
        <pt x="791" y="572" on="0"/>
        <pt x="686" y="457" on="0"/>
        <pt x="686" y="356" on="1"/>
        <pt x="686" y="222" on="0"/>
      </contour>
    </TTGlyph>
    <TTGlyph name="exclam.tamil" xMin="148" yMin="-28" xMax="402" yMax="1463">
      <contour>
        <pt x="334" y="412" on="1"/>
        <pt x="217" y="412" on="1"/>
        <pt x="166" y="1463" on="1"/>
        <pt x="385" y="1463" on="1"/>
      </contour>
      <contour>
        <pt x="275" y="248" on="1"/>
        <pt x="335" y="248" on="0"/>
        <pt x="401" y="177" on="0"/>
        <pt x="402" y="111" on="1"/>
        <pt x="402" y="43" on="0"/>
        <pt x="332" y="-28" on="0"/>
        <pt x="275" y="-28" on="1"/>
        <pt x="216" y="-28" on="0"/>
        <pt x="148" y="42" on="0"/>
        <pt x="148" y="111" on="1"/>
        <pt x="148" y="177" on="0"/>
        <pt x="213" y="248" on="0"/>
      </contour>
    </TTGlyph>
    <TTGlyph name="five.tamil" xMin="130" yMin="-20" xMax="1056" yMax="1463">
      <contour>
        <pt x="130" y="60" on="1"/>
        <pt x="130" y="230" on="1"/>
        <pt x="202" y="186" on="0"/>
        <pt x="413" y="133" on="0"/>
        <pt x="511" y="133" on="1"/>
        <pt x="683" y="133" on="0"/>
        <pt x="872" y="296" on="0"/>
        <pt x="872" y="449" on="1"/>
        <pt x="872" y="597" on="0"/>
        <pt x="688" y="746" on="0"/>
        <pt x="505" y="746" on="1"/>
        <pt x="397" y="746" on="0"/>
        <pt x="255" y="715" on="1"/>
        <pt x="165" y="772" on="1"/>
        <pt x="220" y="1463" on="1"/>
        <pt x="954" y="1463" on="1"/>
        <pt x="954" y="1299" on="1"/>
        <pt x="374" y="1299" on="1"/>
        <pt x="339" y="875" on="1"/>
        <pt x="464" y="897" on="0"/>
        <pt x="564" y="897" on="1"/>
        <pt x="792" y="897" on="0"/>
        <pt x="1056" y="667" on="0"/>
        <pt x="1056" y="467" on="1"/>
        <pt x="1056" y="239" on="0"/>
        <pt x="769" y="-20" on="0"/>
        <pt x="509" y="-20" on="1"/>
        <pt x="391" y="-20" on="0"/>
        <pt x="194" y="21" on="0"/>
      </contour>
    </TTGlyph>
    <TTGlyph name="fivetamil" xMin="139" yMin="-658" xMax="2053" yMax="1726">
      <contour>
        <pt x="1451" y="582" on="1"/>
        <pt x="1553" y="653" on="0"/>
        <pt x="1680" y="653" on="1"/>
        <pt x="1849" y="653" on="0"/>
        <pt x="2053" y="391" on="0"/>
        <pt x="2053" y="173" on="1"/>
        <pt x="2053" y="-87" on="0"/>
        <pt x="1829" y="-462" on="0"/>
        <pt x="1421" y="-658" on="0"/>
        <pt x="1167" y="-658" on="1"/>
        <pt x="1145" y="-658" on="1"/>
        <pt x="829" y="-658" on="0"/>
        <pt x="376" y="-385" on="0"/>
        <pt x="139" y="133" on="0"/>
        <pt x="139" y="474" on="1"/>
        <pt x="139" y="571" on="1"/>
        <pt x="139" y="875" on="0"/>
        <pt x="394" y="1422" on="0"/>
        <pt x="874" y="1726" on="0"/>
        <pt x="1203" y="1726" on="1"/>
        <pt x="1410" y="1726" on="0"/>
        <pt x="1784" y="1621" on="0"/>
        <pt x="2017" y="1482" on="1"/>
        <pt x="1921" y="1333" on="1"/>
        <pt x="1732" y="1465" on="0"/>
        <pt x="1394" y="1572" on="0"/>
        <pt x="1192" y="1572" on="1"/>
        <pt x="935" y="1572" on="0"/>
        <pt x="533" y="1317" on="0"/>
        <pt x="316" y="844" on="0"/>
        <pt x="316" y="525" on="1"/>
        <pt x="316" y="500" on="1"/>
        <pt x="316" y="191" on="0"/>
        <pt x="509" y="-262" on="0"/>
        <pt x="880" y="-500" on="0"/>
        <pt x="1144" y="-500" on="1"/>
        <pt x="1167" y="-500" on="1"/>
        <pt x="1501" y="-500" on="0"/>
        <pt x="1874" y="-149" on="0"/>
        <pt x="1874" y="173" on="1"/>
        <pt x="1874" y="333" on="0"/>
        <pt x="1757" y="505" on="0"/>
        <pt x="1648" y="505" on="1"/>
        <pt x="1555" y="505" on="0"/>
        <pt x="1451" y="432" on="1"/>
        <pt x="1451" y="0" on="1"/>
        <pt x="1274" y="0" on="1"/>
        <pt x="1274" y="986" on="1"/>
        <pt x="918" y="986" on="1"/>
        <pt x="918" y="0" on="1"/>
        <pt x="740" y="0" on="1"/>
        <pt x="740" y="1134" on="1"/>
        <pt x="1808" y="1134" on="1"/>
        <pt x="1808" y="986" on="1"/>
        <pt x="1451" y="986" on="1"/>
      </contour>
    </TTGlyph>
    <TTGlyph name="four.tamil" xMin="44" yMin="0" xMax="1132" yMax="1471">
      <contour>
        <pt x="1132" y="332" on="1"/>
        <pt x="919" y="332" on="1"/>
        <pt x="919" y="0" on="1"/>
        <pt x="745" y="0" on="1"/>
        <pt x="745" y="332" on="1"/>
        <pt x="44" y="332" on="1"/>
        <pt x="44" y="486" on="1"/>
        <pt x="732" y="1471" on="1"/>
        <pt x="919" y="1471" on="1"/>
        <pt x="919" y="494" on="1"/>
        <pt x="1132" y="494" on="1"/>
      </contour>
      <contour>
        <pt x="745" y="494" on="1"/>
        <pt x="745" y="955" on="1"/>
        <pt x="745" y="1077" on="0"/>
        <pt x="755" y="1278" on="1"/>
        <pt x="747" y="1278" on="1"/>
        <pt x="712" y="1201" on="0"/>
        <pt x="659" y="1118" on="1"/>
        <pt x="220" y="494" on="1"/>
      </contour>
    </TTGlyph>
    <TTGlyph name="fourtamil" xMin="100" yMin="-23" xMax="1767" yMax="1134">
      <contour>
        <pt x="327" y="1134" on="1"/>
        <pt x="1358" y="1134" on="1"/>
        <pt x="1358" y="986" on="1"/>
        <pt x="1015" y="986" on="1"/>
        <pt x="1015" y="672" on="1"/>
        <pt x="1590" y="672" on="1"/>
        <pt x="1590" y="1134" on="1"/>
        <pt x="1767" y="1134" on="1"/>
        <pt x="1767" y="529" on="1"/>
        <pt x="1015" y="529" on="1"/>
        <pt x="1015" y="462" on="1"/>
        <pt x="1015" y="255" on="0"/>
        <pt x="894" y="60" on="0"/>
        <pt x="689" y="-23" on="0"/>
        <pt x="535" y="-23" on="1"/>
        <pt x="412" y="-23" on="0"/>
        <pt x="209" y="63" on="0"/>
        <pt x="100" y="218" on="0"/>
        <pt x="100" y="318" on="1"/>
        <pt x="100" y="427" on="0"/>
        <pt x="213" y="578" on="0"/>
        <pt x="327" y="621" on="1"/>
      </contour>
      <contour>
        <pt x="679" y="672" on="1"/>
        <pt x="841" y="672" on="1"/>
        <pt x="841" y="986" on="1"/>
        <pt x="488" y="986" on="1"/>
        <pt x="488" y="660" on="1"/>
        <pt x="572" y="672" on="0"/>
      </contour>
      <contour>
        <pt x="841" y="529" on="1"/>
        <pt x="665" y="529" on="1"/>
        <pt x="460" y="529" on="0"/>
        <pt x="277" y="430" on="0"/>
        <pt x="277" y="314" on="1"/>
        <pt x="277" y="225" on="0"/>
        <pt x="423" y="125" on="0"/>
        <pt x="550" y="125" on="1"/>
        <pt x="708" y="125" on="0"/>
        <pt x="841" y="277" on="0"/>
        <pt x="841" y="436" on="1"/>
      </contour>
    </TTGlyph>
    <TTGlyph name="greater.tamil" xMin="103" yMin="0" xMax="1068" yMax="1463">
      <contour>
        <pt x="103" y="397" on="1"/>
        <pt x="875" y="719" on="1"/>
        <pt x="103" y="1085" on="1"/>
        <pt x="103" y="1245" on="1"/>
        <pt x="1068" y="764" on="1"/>
        <pt x="1068" y="662" on="1"/>
        <pt x="103" y="238" on="1"/>
      </contour>
      <contour>
        <pt x="580" y="0" on="1"/>
      </contour>
      <contour>
        <pt x="591" y="1463" on="1"/>
      </contour>
    </TTGlyph>
    <TTGlyph name="haprehalftamil" xMin="97" yMin="-658" xMax="3185" yMax="1726">
      <component glyphName="hatamil" x="0" y="0" flags="0x204"/>
      <component glyphName="viramatamil" x="2232" y="0" flags="0x4"/>
    </TTGlyph>
    <TTGlyph name="hatamil" xMin="97" yMin="-658" xMax="3185" yMax="1162">
      <contour>
        <pt x="556" y="-320" on="1"/>
        <pt x="439" y="-320" on="0"/>
        <pt x="328" y="-367" on="0"/>
        <pt x="274" y="-457" on="0"/>
        <pt x="274" y="-538" on="1"/>
        <pt x="274" y="-608" on="0"/>
        <pt x="281" y="-650" on="1"/>
        <pt x="110" y="-658" on="1"/>
        <pt x="97" y="-578" on="0"/>
        <pt x="97" y="-498" on="1"/>
        <pt x="97" y="-394" on="0"/>
        <pt x="185" y="-250" on="0"/>
        <pt x="353" y="-172" on="0"/>
        <pt x="501" y="-172" on="1"/>
        <pt x="2284" y="-172" on="1"/>
        <pt x="2602" y="-172" on="0"/>
        <pt x="2886" y="-34" on="0"/>
        <pt x="3003" y="254" on="0"/>
        <pt x="3003" y="505" on="1"/>
        <pt x="3003" y="757" on="0"/>
        <pt x="2846" y="1013" on="0"/>
        <pt x="2692" y="1013" on="1"/>
        <pt x="2603" y="1013" on="0"/>
        <pt x="2487" y="935" on="0"/>
        <pt x="2434" y="791" on="0"/>
        <pt x="2434" y="654" on="1"/>
        <pt x="2434" y="0" on="1"/>
        <pt x="2256" y="0" on="1"/>
        <pt x="2256" y="688" on="1"/>
        <pt x="2256" y="861" on="0"/>
        <pt x="2173" y="1013" on="0"/>
        <pt x="2087" y="1013" on="1"/>
        <pt x="2002" y="1013" on="0"/>
        <pt x="1918" y="927" on="0"/>
        <pt x="1889" y="756" on="0"/>
        <pt x="1889" y="626" on="1"/>
        <pt x="1889" y="0" on="1"/>
        <pt x="1054" y="0" on="1"/>
        <pt x="1047" y="130" on="1"/>
        <pt x="1154" y="291" on="0"/>
        <pt x="1154" y="550" on="1"/>
        <pt x="1154" y="764" on="0"/>
        <pt x="931" y="1010" on="0"/>
        <pt x="738" y="1010" on="1"/>
        <pt x="557" y="1010" on="0"/>
        <pt x="317" y="790" on="0"/>
        <pt x="287" y="595" on="1"/>
        <pt x="405" y="672" on="0"/>
        <pt x="534" y="672" on="1"/>
        <pt x="686" y="672" on="0"/>
        <pt x="865" y="492" on="0"/>
        <pt x="865" y="337" on="1"/>
        <pt x="865" y="170" on="0"/>
        <pt x="679" y="-24" on="0"/>
        <pt x="518" y="-24" on="1"/>
        <pt x="337" y="-24" on="0"/>
        <pt x="117" y="249" on="0"/>
        <pt x="117" y="502" on="1"/>
        <pt x="117" y="702" on="0"/>
        <pt x="271" y="999" on="0"/>
        <pt x="561" y="1162" on="0"/>
        <pt x="746" y="1162" on="1"/>
        <pt x="1029" y="1162" on="0"/>
        <pt x="1336" y="845" on="0"/>
        <pt x="1336" y="573" on="1"/>
        <pt x="1336" y="461" on="0"/>
        <pt x="1289" y="259" on="0"/>
        <pt x="1236" y="148" on="1"/>
        <pt x="1712" y="148" on="1"/>
        <pt x="1712" y="703" on="1"/>
        <pt x="1712" y="872" on="0"/>
        <pt x="1791" y="1062" on="0"/>
        <pt x="1947" y="1162" on="0"/>
        <pt x="2058" y="1162" on="1"/>
        <pt x="2269" y="1162" on="0"/>
        <pt x="2353" y="966" on="1"/>
        <pt x="2399" y="1059" on="0"/>
        <pt x="2580" y="1162" on="0"/>
        <pt x="2703" y="1162" on="1"/>
        <pt x="2933" y="1162" on="0"/>
        <pt x="3185" y="818" on="0"/>
        <pt x="3185" y="500" on="1"/>
        <pt x="3185" y="223" on="0"/>
        <pt x="3018" y="-137" on="0"/>
        <pt x="2657" y="-320" on="0"/>
        <pt x="2330" y="-320" on="1"/>
      </contour>
      <contour>
        <pt x="280" y="434" on="1"/>
        <pt x="289" y="277" on="0"/>
        <pt x="415" y="115" on="0"/>
        <pt x="522" y="115" on="1"/>
        <pt x="601" y="115" on="0"/>
        <pt x="697" y="221" on="0"/>
        <pt x="697" y="318" on="1"/>
        <pt x="697" y="416" on="0"/>
        <pt x="592" y="528" on="0"/>
        <pt x="505" y="528" on="1"/>
        <pt x="392" y="528" on="0"/>
      </contour>
    </TTGlyph>
    <TTGlyph name="hundredtamil" xMin="180" yMin="0" xMax="1782" yMax="1157">
      <contour>
        <pt x="180" y="0" on="1"/>
        <pt x="180" y="742" on="1"/>
        <pt x="180" y="893" on="0"/>
        <pt x="255" y="1062" on="0"/>
        <pt x="388" y="1157" on="0"/>
        <pt x="491" y="1157" on="1"/>
        <pt x="625" y="1157" on="0"/>
        <pt x="724" y="1063" on="1"/>
        <pt x="724" y="1134" on="1"/>
        <pt x="1782" y="1134" on="1"/>
        <pt x="1782" y="986" on="1"/>
        <pt x="1435" y="986" on="1"/>
        <pt x="1435" y="0" on="1"/>
        <pt x="1257" y="0" on="1"/>
        <pt x="1257" y="986" on="1"/>
        <pt x="901" y="986" on="1"/>
        <pt x="901" y="0" on="1"/>
        <pt x="724" y="0" on="1"/>
        <pt x="724" y="896" on="1"/>
        <pt x="643" y="1009" on="0"/>
        <pt x="529" y="1009" on="1"/>
        <pt x="482" y="1009" on="0"/>
        <pt x="413" y="974" on="0"/>
        <pt x="367" y="895" on="0"/>
        <pt x="357" y="781" on="0"/>
        <pt x="357" y="673" on="1"/>
        <pt x="357" y="0" on="1"/>
      </contour>
    </TTGlyph>
    <TTGlyph name="hyphen.tamil" xMin="82" yMin="0" xMax="578" yMax="1134">
      <contour>
        <pt x="82" y="465" on="1"/>
        <pt x="82" y="633" on="1"/>
        <pt x="578" y="633" on="1"/>
        <pt x="578" y="465" on="1"/>
      </contour>
      <contour>
        <pt x="324" y="1134" on="1"/>
      </contour>
      <contour>
        <pt x="324" y="0" on="1"/>
      </contour>
    </TTGlyph>
    <TTGlyph name="iitamil" xMin="180" yMin="0" xMax="1395" yMax="1134">
      <contour>
        <pt x="180" y="1134" on="1"/>
        <pt x="1395" y="1134" on="1"/>
        <pt x="1395" y="986" on="1"/>
        <pt x="989" y="986" on="1"/>
        <pt x="989" y="0" on="1"/>
        <pt x="811" y="0" on="1"/>
        <pt x="811" y="986" on="1"/>
        <pt x="357" y="986" on="1"/>
        <pt x="357" y="0" on="1"/>
        <pt x="180" y="0" on="1"/>
      </contour>
      <contour>
        <pt x="713" y="569" on="1"/>
        <pt x="713" y="512" on="0"/>
        <pt x="639" y="438" on="0"/>
        <pt x="584" y="438" on="1"/>
        <pt x="528" y="438" on="0"/>
        <pt x="454" y="512" on="0"/>
        <pt x="454" y="569" on="1"/>
        <pt x="454" y="624" on="0"/>
        <pt x="528" y="698" on="0"/>
        <pt x="584" y="698" on="1"/>
        <pt x="640" y="698" on="0"/>
        <pt x="713" y="625" on="0"/>
      </contour>
      <contour>
        <pt x="1346" y="569" on="1"/>
        <pt x="1346" y="513" on="0"/>
        <pt x="1272" y="438" on="0"/>
        <pt x="1216" y="438" on="1"/>
        <pt x="1159" y="438" on="0"/>
        <pt x="1086" y="513" on="0"/>
        <pt x="1086" y="569" on="1"/>
        <pt x="1086" y="624" on="0"/>
        <pt x="1160" y="698" on="0"/>
        <pt x="1216" y="698" on="1"/>
        <pt x="1272" y="698" on="0"/>
        <pt x="1346" y="624" on="0"/>
      </contour>
    </TTGlyph>
    <TTGlyph name="iivowelsigntamil" xMin="-874" yMin="1083" xMax="17" yMax="1726">
      <contour>
        <pt x="-835" y="1083" on="1"/>
        <pt x="-874" y="1167" on="0"/>
        <pt x="-874" y="1276" on="1"/>
        <pt x="-874" y="1477" on="0"/>
        <pt x="-594" y="1726" on="0"/>
        <pt x="-345" y="1726" on="1"/>
        <pt x="-174" y="1726" on="0"/>
        <pt x="17" y="1588" on="0"/>
        <pt x="17" y="1470" on="1"/>
        <pt x="17" y="1352" on="0"/>
        <pt x="-128" y="1218" on="0"/>
        <pt x="-251" y="1218" on="1"/>
        <pt x="-371" y="1218" on="0"/>
        <pt x="-514" y="1339" on="0"/>
        <pt x="-514" y="1444" on="1"/>
        <pt x="-514" y="1515" on="0"/>
        <pt x="-485" y="1578" on="1"/>
        <pt x="-598" y="1548" on="0"/>
        <pt x="-716" y="1393" on="0"/>
        <pt x="-716" y="1283" on="1"/>
        <pt x="-716" y="1172" on="0"/>
        <pt x="-663" y="1096" on="1"/>
      </contour>
      <contour>
        <pt x="-341" y="1596" on="1"/>
        <pt x="-379" y="1539" on="0"/>
        <pt x="-379" y="1472" on="1"/>
        <pt x="-379" y="1410" on="0"/>
        <pt x="-312" y="1344" on="0"/>
        <pt x="-251" y="1344" on="1"/>
        <pt x="-193" y="1344" on="0"/>
        <pt x="-127" y="1409" on="0"/>
        <pt x="-127" y="1462" on="1"/>
        <pt x="-127" y="1527" on="0"/>
        <pt x="-233" y="1596" on="0"/>
        <pt x="-331" y="1596" on="1"/>
      </contour>
      <contour>
        <pt x="-320" y="1134" on="1"/>
      </contour>
    </TTGlyph>
    <TTGlyph name="itamil" xMin="100" yMin="-658" xMax="2126" yMax="1726">
      <contour>
        <pt x="1198" y="999" on="1"/>
        <pt x="1259" y="910" on="0"/>
        <pt x="1259" y="802" on="1"/>
        <pt x="1259" y="665" on="0"/>
        <pt x="1081" y="500" on="0"/>
        <pt x="926" y="500" on="1"/>
        <pt x="782" y="500" on="0"/>
        <pt x="592" y="678" on="0"/>
        <pt x="592" y="816" on="1"/>
        <pt x="592" y="977" on="0"/>
        <pt x="839" y="1160" on="0"/>
        <pt x="1051" y="1160" on="1"/>
        <pt x="1332" y="1160" on="0"/>
        <pt x="1644" y="821" on="0"/>
        <pt x="1644" y="520" on="1"/>
        <pt x="1644" y="347" on="0"/>
        <pt x="1589" y="165" on="1"/>
        <pt x="1723" y="84" on="0"/>
        <pt x="1864" y="-143" on="0"/>
        <pt x="1864" y="-275" on="1"/>
        <pt x="1864" y="-456" on="0"/>
        <pt x="1635" y="-658" on="0"/>
        <pt x="1429" y="-658" on="1"/>
        <pt x="1204" y="-658" on="0"/>
        <pt x="982" y="-556" on="1"/>
        <pt x="760" y="-658" on="0"/>
        <pt x="525" y="-658" on="1"/>
        <pt x="328" y="-658" on="0"/>
        <pt x="100" y="-454" on="0"/>
        <pt x="100" y="-275" on="1"/>
        <pt x="100" y="-155" on="0"/>
        <pt x="207" y="45" on="0"/>
        <pt x="314" y="126" on="1"/>
        <pt x="228" y="301" on="0"/>
        <pt x="154" y="611" on="0"/>
        <pt x="154" y="777" on="1"/>
        <pt x="154" y="1041" on="0"/>
        <pt x="403" y="1484" on="0"/>
        <pt x="858" y="1726" on="0"/>
        <pt x="1162" y="1726" on="1"/>
        <pt x="1481" y="1726" on="0"/>
        <pt x="1901" y="1502" on="0"/>
        <pt x="2126" y="1027" on="0"/>
        <pt x="2126" y="642" on="1"/>
        <pt x="2126" y="0" on="1"/>
        <pt x="1949" y="0" on="1"/>
        <pt x="1949" y="557" on="1"/>
        <pt x="1949" y="921" on="0"/>
        <pt x="1791" y="1352" on="0"/>
        <pt x="1449" y="1572" on="0"/>
        <pt x="1162" y="1572" on="1"/>
        <pt x="922" y="1572" on="0"/>
        <pt x="540" y="1374" on="0"/>
        <pt x="331" y="1003" on="0"/>
        <pt x="331" y="753" on="1"/>
        <pt x="331" y="617" on="0"/>
        <pt x="392" y="357" on="0"/>
        <pt x="459" y="210" on="1"/>
        <pt x="686" y="309" on="0"/>
        <pt x="980" y="309" on="1"/>
        <pt x="1229" y="309" on="0"/>
        <pt x="1428" y="240" on="1"/>
        <pt x="1465" y="370" on="0"/>
        <pt x="1465" y="513" on="1"/>
        <pt x="1465" y="697" on="0"/>
        <pt x="1323" y="954" on="0"/>
      </contour>
      <contour>
        <pt x="1029" y="1018" on="1"/>
        <pt x="1014" y="1018" on="1"/>
        <pt x="894" y="1018" on="0"/>
        <pt x="754" y="911" on="0"/>
        <pt x="754" y="817" on="1"/>
        <pt x="754" y="736" on="0"/>
        <pt x="850" y="639" on="0"/>
        <pt x="930" y="639" on="1"/>
        <pt x="1008" y="639" on="0"/>
        <pt x="1099" y="738" on="0"/>
        <pt x="1099" y="824" on="1"/>
        <pt x="1099" y="936" on="0"/>
      </contour>
      <contour>
        <pt x="978" y="-382" on="1"/>
        <pt x="1112" y="-299" on="0"/>
        <pt x="1323" y="-49" on="0"/>
        <pt x="1384" y="98" on="1"/>
        <pt x="1217" y="161" on="0"/>
        <pt x="985" y="161" on="1"/>
        <pt x="712" y="161" on="0"/>
        <pt x="525" y="73" on="1"/>
        <pt x="612" y="-72" on="0"/>
        <pt x="838" y="-300" on="0"/>
      </contour>
      <contour>
        <pt x="1143" y="-464" on="1"/>
        <pt x="1266" y="-509" on="0"/>
        <pt x="1412" y="-509" on="1"/>
        <pt x="1547" y="-509" on="0"/>
        <pt x="1684" y="-385" on="0"/>
        <pt x="1684" y="-265" on="1"/>
        <pt x="1684" y="-186" on="0"/>
        <pt x="1609" y="-40" on="0"/>
        <pt x="1534" y="18" on="1"/>
        <pt x="1465" y="-134" on="0"/>
        <pt x="1269" y="-375" on="0"/>
      </contour>
      <contour>
        <pt x="391" y="-13" on="1"/>
        <pt x="279" y="-117" on="0"/>
        <pt x="279" y="-262" on="1"/>
        <pt x="279" y="-385" on="0"/>
        <pt x="414" y="-509" on="0"/>
        <pt x="549" y="-509" on="1"/>
        <pt x="626" y="-509" on="0"/>
        <pt x="746" y="-491" on="0"/>
        <pt x="818" y="-465" on="1"/>
        <pt x="692" y="-383" on="0"/>
        <pt x="478" y="-157" on="0"/>
      </contour>
    </TTGlyph>
    <TTGlyph name="ivowelsign1tamil" xMin="-669" yMin="0" xMax="357" yMax="1726">
      <contour>
        <pt x="-609" y="1054" on="1"/>
        <pt x="-636" y="1106" on="0"/>
        <pt x="-669" y="1242" on="0"/>
        <pt x="-669" y="1304" on="1"/>
        <pt x="-669" y="1503" on="0"/>
        <pt x="-404" y="1726" on="0"/>
        <pt x="-182" y="1726" on="1"/>
        <pt x="-17" y="1726" on="0"/>
        <pt x="227" y="1587" on="0"/>
        <pt x="357" y="1303" on="0"/>
        <pt x="357" y="1026" on="1"/>
        <pt x="357" y="0" on="1"/>
        <pt x="180" y="0" on="1"/>
        <pt x="180" y="951" on="1"/>
        <pt x="180" y="1211" on="0"/>
        <pt x="102" y="1456" on="0"/>
        <pt x="-60" y="1572" on="0"/>
        <pt x="-194" y="1572" on="1"/>
        <pt x="-336" y="1572" on="0"/>
        <pt x="-492" y="1430" on="0"/>
        <pt x="-492" y="1304" on="1"/>
        <pt x="-492" y="1169" on="0"/>
        <pt x="-422" y="1054" on="1"/>
      </contour>
      <contour>
        <pt x="-320" y="1134" on="1"/>
      </contour>
    </TTGlyph>
    <TTGlyph name="ivowelsign2tamil" xMin="-882" yMin="0" xMax="357" yMax="1726">
      <contour>
        <pt x="-829" y="1054" on="1"/>
        <pt x="-854" y="1101" on="0"/>
        <pt x="-882" y="1227" on="0"/>
        <pt x="-882" y="1290" on="1"/>
        <pt x="-882" y="1495" on="0"/>
        <pt x="-574" y="1726" on="0"/>
        <pt x="-327" y="1726" on="1"/>
        <pt x="-101" y="1726" on="0"/>
        <pt x="218" y="1556" on="0"/>
        <pt x="357" y="1263" on="0"/>
        <pt x="357" y="1018" on="1"/>
        <pt x="357" y="0" on="1"/>
        <pt x="180" y="0" on="1"/>
        <pt x="180" y="950" on="1"/>
        <pt x="180" y="1191" on="0"/>
        <pt x="79" y="1445" on="0"/>
        <pt x="-156" y="1572" on="0"/>
        <pt x="-319" y="1572" on="1"/>
        <pt x="-504" y="1572" on="0"/>
        <pt x="-705" y="1416" on="0"/>
        <pt x="-705" y="1272" on="1"/>
        <pt x="-705" y="1209" on="0"/>
        <pt x="-676" y="1105" on="0"/>
        <pt x="-652" y="1054" on="1"/>
      </contour>
      <contour>
        <pt x="-320" y="1134" on="1"/>
      </contour>
    </TTGlyph>
    <TTGlyph name="ivowelsign3tamil" xMin="-789" yMin="0" xMax="357" yMax="1726">
      <contour>
        <pt x="-331" y="799" on="1"/>
        <pt x="-547" y="824" on="0"/>
        <pt x="-789" y="1080" on="0"/>
        <pt x="-789" y="1282" on="1"/>
        <pt x="-789" y="1492" on="0"/>
        <pt x="-507" y="1726" on="0"/>
        <pt x="-276" y="1726" on="1"/>
        <pt x="-64" y="1726" on="0"/>
        <pt x="234" y="1550" on="0"/>
        <pt x="357" y="1259" on="0"/>
        <pt x="357" y="1002" on="1"/>
        <pt x="357" y="0" on="1"/>
        <pt x="180" y="0" on="1"/>
        <pt x="180" y="929" on="1"/>
        <pt x="180" y="1189" on="0"/>
        <pt x="89" y="1442" on="0"/>
        <pt x="-123" y="1572" on="0"/>
        <pt x="-272" y="1572" on="1"/>
        <pt x="-436" y="1572" on="0"/>
        <pt x="-612" y="1419" on="0"/>
        <pt x="-612" y="1279" on="1"/>
        <pt x="-612" y="1136" on="0"/>
        <pt x="-470" y="966" on="0"/>
        <pt x="-331" y="945" on="1"/>
      </contour>
      <contour>
        <pt x="-320" y="1134" on="1"/>
      </contour>
    </TTGlyph>
    <TTGlyph name="ivowelsigntamil" xMin="-618" yMin="0" xMax="357" yMax="1726">
      <contour>
        <pt x="-559" y="1054" on="1"/>
        <pt x="-587" y="1107" on="0"/>
        <pt x="-618" y="1241" on="0"/>
        <pt x="-618" y="1303" on="1"/>
        <pt x="-618" y="1502" on="0"/>
        <pt x="-366" y="1726" on="0"/>
        <pt x="-162" y="1726" on="1"/>
        <pt x="5" y="1726" on="0"/>
        <pt x="249" y="1563" on="0"/>
        <pt x="357" y="1282" on="0"/>
        <pt x="357" y="1028" on="1"/>
        <pt x="357" y="0" on="1"/>
        <pt x="180" y="0" on="1"/>
        <pt x="180" y="965" on="1"/>
        <pt x="180" y="1202" on="0"/>
        <pt x="112" y="1444" on="0"/>
        <pt x="-47" y="1572" on="0"/>
        <pt x="-166" y="1572" on="1"/>
        <pt x="-295" y="1572" on="0"/>
        <pt x="-441" y="1427" on="0"/>
        <pt x="-441" y="1304" on="1"/>
        <pt x="-441" y="1167" on="0"/>
        <pt x="-371" y="1054" on="1"/>
      </contour>
      <contour>
        <pt x="-320" y="1134" on="1"/>
      </contour>
    </TTGlyph>
    <TTGlyph name="japrehalftamil" xMin="129" yMin="-658" xMax="1965" yMax="1726">
      <component glyphName="jatamil" x="0" y="0" flags="0x204"/>
      <component glyphName="viramatamil" x="1597" y="0" flags="0x4"/>
    </TTGlyph>
    <TTGlyph name="jatamil" xMin="129" yMin="-658" xMax="1965" yMax="1162">
      <contour>
        <pt x="1344" y="-184" on="1"/>
        <pt x="1244" y="-230" on="0"/>
        <pt x="1125" y="-376" on="1"/>
        <pt x="993" y="-537" on="0"/>
        <pt x="752" y="-658" on="0"/>
        <pt x="608" y="-658" on="1"/>
        <pt x="383" y="-658" on="0"/>
        <pt x="129" y="-406" on="0"/>
        <pt x="129" y="-204" on="1"/>
        <pt x="129" y="-47" on="0"/>
        <pt x="272" y="165" on="0"/>
        <pt x="585" y="277" on="0"/>
        <pt x="873" y="277" on="1"/>
        <pt x="1066" y="277" on="1"/>
        <pt x="1373" y="277" on="0"/>
        <pt x="1660" y="357" on="0"/>
        <pt x="1784" y="531" on="0"/>
        <pt x="1784" y="685" on="1"/>
        <pt x="1784" y="838" on="0"/>
        <pt x="1621" y="1013" on="0"/>
        <pt x="1486" y="1013" on="1"/>
        <pt x="1391" y="1013" on="0"/>
        <pt x="1278" y="930" on="0"/>
        <pt x="1229" y="787" on="0"/>
        <pt x="1229" y="654" on="1"/>
        <pt x="1229" y="420" on="1"/>
        <pt x="1051" y="420" on="1"/>
        <pt x="1051" y="600" on="1"/>
        <pt x="1051" y="815" on="0"/>
        <pt x="874" y="1018" on="0"/>
        <pt x="691" y="1018" on="1"/>
        <pt x="604" y="1018" on="0"/>
        <pt x="545" y="1005" on="1"/>
        <pt x="675" y="981" on="0"/>
        <pt x="828" y="816" on="0"/>
        <pt x="828" y="700" on="1"/>
        <pt x="828" y="553" on="0"/>
        <pt x="636" y="376" on="0"/>
        <pt x="482" y="376" on="1"/>
        <pt x="317" y="376" on="0"/>
        <pt x="129" y="558" on="0"/>
        <pt x="129" y="707" on="1"/>
        <pt x="129" y="838" on="0"/>
        <pt x="270" y="1044" on="0"/>
        <pt x="527" y="1162" on="0"/>
        <pt x="677" y="1162" on="1"/>
        <pt x="1007" y="1162" on="0"/>
        <pt x="1128" y="934" on="1"/>
        <pt x="1234" y="1162" on="0"/>
        <pt x="1492" y="1162" on="1"/>
        <pt x="1712" y="1162" on="0"/>
        <pt x="1965" y="901" on="0"/>
        <pt x="1965" y="686" on="1"/>
        <pt x="1965" y="501" on="0"/>
        <pt x="1807" y="257" on="0"/>
        <pt x="1452" y="129" on="0"/>
        <pt x="1109" y="129" on="1"/>
        <pt x="874" y="129" on="1"/>
        <pt x="562" y="129" on="0"/>
        <pt x="310" y="-15" on="0"/>
        <pt x="310" y="-190" on="1"/>
        <pt x="310" y="-344" on="0"/>
        <pt x="474" y="-508" on="0"/>
        <pt x="599" y="-508" on="1"/>
        <pt x="676" y="-508" on="0"/>
        <pt x="794" y="-468" on="0"/>
        <pt x="900" y="-392" on="0"/>
        <pt x="979" y="-304" on="1"/>
        <pt x="1079" y="-194" on="0"/>
        <pt x="1227" y="-77" on="0"/>
        <pt x="1410" y="-15" on="0"/>
        <pt x="1539" y="-15" on="1"/>
        <pt x="1649" y="-15" on="0"/>
        <pt x="1836" y="-98" on="0"/>
        <pt x="1938" y="-252" on="0"/>
        <pt x="1938" y="-356" on="1"/>
        <pt x="1938" y="-490" on="0"/>
        <pt x="1755" y="-658" on="0"/>
        <pt x="1611" y="-658" on="1"/>
        <pt x="1456" y="-658" on="0"/>
        <pt x="1279" y="-492" on="0"/>
        <pt x="1279" y="-370" on="1"/>
        <pt x="1279" y="-268" on="0"/>
      </contour>
      <contour>
        <pt x="376" y="917" on="1"/>
        <pt x="291" y="837" on="0"/>
        <pt x="291" y="702" on="1"/>
        <pt x="291" y="613" on="0"/>
        <pt x="387" y="515" on="0"/>
        <pt x="479" y="515" on="1"/>
        <pt x="560" y="515" on="0"/>
        <pt x="660" y="609" on="0"/>
        <pt x="660" y="686" on="1"/>
        <pt x="660" y="786" on="0"/>
        <pt x="509" y="914" on="0"/>
      </contour>
      <contour>
        <pt x="1527" y="-158" on="1"/>
        <pt x="1448" y="-241" on="0"/>
        <pt x="1448" y="-344" on="1"/>
        <pt x="1448" y="-426" on="0"/>
        <pt x="1535" y="-517" on="0"/>
        <pt x="1616" y="-517" on="1"/>
        <pt x="1685" y="-517" on="0"/>
        <pt x="1772" y="-433" on="0"/>
        <pt x="1772" y="-355" on="1"/>
        <pt x="1772" y="-171" on="0"/>
      </contour>
    </TTGlyph>
    <TTGlyph name="kaprehalftamil" xMin="100" yMin="-23" xMax="1590" yMax="1726">
      <component glyphName="katamil" x="0" y="0" flags="0x204"/>
      <component glyphName="viramatamil" x="1455" y="0" flags="0x4"/>
    </TTGlyph>
    <TTGlyph name="katamil" xMin="100" yMin="-23" xMax="1590" yMax="1134">
      <contour>
        <pt x="327" y="1134" on="1"/>
        <pt x="1398" y="1134" on="1"/>
        <pt x="1398" y="986" on="1"/>
        <pt x="1015" y="986" on="1"/>
        <pt x="1015" y="672" on="1"/>
        <pt x="1071" y="672" on="1"/>
        <pt x="1342" y="672" on="0"/>
        <pt x="1590" y="484" on="0"/>
        <pt x="1590" y="311" on="1"/>
        <pt x="1590" y="155" on="0"/>
        <pt x="1404" y="-15" on="0"/>
        <pt x="1232" y="-15" on="1"/>
        <pt x="1187" y="-15" on="0"/>
        <pt x="1075" y="1" on="0"/>
        <pt x="1030" y="15" on="1"/>
        <pt x="1068" y="150" on="1"/>
        <pt x="1140" y="129" on="0"/>
        <pt x="1208" y="129" on="1"/>
        <pt x="1312" y="129" on="0"/>
        <pt x="1413" y="221" on="0"/>
        <pt x="1413" y="320" on="1"/>
        <pt x="1413" y="424" on="0"/>
        <pt x="1255" y="529" on="0"/>
        <pt x="1062" y="529" on="1"/>
        <pt x="1015" y="529" on="1"/>
        <pt x="1015" y="462" on="1"/>
        <pt x="1015" y="255" on="0"/>
        <pt x="894" y="60" on="0"/>
        <pt x="689" y="-23" on="0"/>
        <pt x="535" y="-23" on="1"/>
        <pt x="344" y="-23" on="0"/>
        <pt x="100" y="162" on="0"/>
        <pt x="100" y="318" on="1"/>
        <pt x="100" y="427" on="0"/>
        <pt x="213" y="578" on="0"/>
        <pt x="327" y="621" on="1"/>
      </contour>
      <contour>
        <pt x="679" y="672" on="1"/>
        <pt x="841" y="672" on="1"/>
        <pt x="841" y="986" on="1"/>
        <pt x="488" y="986" on="1"/>
        <pt x="488" y="660" on="1"/>
        <pt x="572" y="672" on="0"/>
      </contour>
      <contour>
        <pt x="841" y="529" on="1"/>
        <pt x="665" y="529" on="1"/>
        <pt x="460" y="529" on="0"/>
        <pt x="277" y="430" on="0"/>
        <pt x="277" y="314" on="1"/>
        <pt x="277" y="225" on="0"/>
        <pt x="423" y="125" on="0"/>
        <pt x="550" y="125" on="1"/>
        <pt x="708" y="125" on="0"/>
        <pt x="841" y="277" on="0"/>
        <pt x="841" y="436" on="1"/>
      </contour>
    </TTGlyph>
    <TTGlyph name="kauuvowelsigntamil" xMin="100" yMin="-24" xMax="2693" yMax="1134">
      <contour>
        <pt x="327" y="1134" on="1"/>
        <pt x="1398" y="1134" on="1"/>
        <pt x="1398" y="986" on="1"/>
        <pt x="1015" y="986" on="1"/>
        <pt x="1015" y="672" on="1"/>
        <pt x="1386" y="672" on="1"/>
        <pt x="1456" y="802" on="0"/>
        <pt x="1709" y="946" on="0"/>
        <pt x="1863" y="946" on="1"/>
        <pt x="2112" y="946" on="0"/>
        <pt x="2385" y="691" on="0"/>
        <pt x="2385" y="479" on="1"/>
        <pt x="2385" y="393" on="0"/>
        <pt x="2338" y="219" on="0"/>
        <pt x="2296" y="148" on="1"/>
        <pt x="2693" y="148" on="1"/>
        <pt x="2693" y="0" on="1"/>
        <pt x="2121" y="0" on="1"/>
        <pt x="2113" y="130" on="1"/>
        <pt x="2159" y="193" on="0"/>
        <pt x="2208" y="361" on="0"/>
        <pt x="2208" y="449" on="1"/>
        <pt x="2208" y="613" on="0"/>
        <pt x="2016" y="799" on="0"/>
        <pt x="1846" y="799" on="1"/>
        <pt x="1663" y="799" on="0"/>
        <pt x="1560" y="666" on="1"/>
        <pt x="1752" y="651" on="0"/>
        <pt x="1961" y="464" on="0"/>
        <pt x="1961" y="307" on="1"/>
        <pt x="1961" y="145" on="0"/>
        <pt x="1799" y="-24" on="0"/>
        <pt x="1640" y="-24" on="1"/>
        <pt x="1494" y="-24" on="0"/>
        <pt x="1317" y="184" on="0"/>
        <pt x="1317" y="378" on="1"/>
        <pt x="1317" y="463" on="0"/>
        <pt x="1333" y="529" on="1"/>
        <pt x="1015" y="529" on="1"/>
        <pt x="1015" y="462" on="1"/>
        <pt x="1015" y="255" on="0"/>
        <pt x="894" y="60" on="0"/>
        <pt x="689" y="-23" on="0"/>
        <pt x="535" y="-23" on="1"/>
        <pt x="344" y="-23" on="0"/>
        <pt x="100" y="162" on="0"/>
        <pt x="100" y="318" on="1"/>
        <pt x="100" y="427" on="0"/>
        <pt x="213" y="578" on="0"/>
        <pt x="327" y="621" on="1"/>
      </contour>
      <contour>
        <pt x="841" y="986" on="1"/>
        <pt x="488" y="986" on="1"/>
        <pt x="488" y="660" on="1"/>
        <pt x="572" y="672" on="0"/>
        <pt x="679" y="672" on="1"/>
        <pt x="841" y="672" on="1"/>
      </contour>
      <contour>
        <pt x="1497" y="531" on="1"/>
        <pt x="1471" y="448" on="0"/>
        <pt x="1471" y="346" on="1"/>
        <pt x="1471" y="234" on="0"/>
        <pt x="1568" y="115" on="0"/>
        <pt x="1657" y="115" on="1"/>
        <pt x="1724" y="115" on="0"/>
        <pt x="1798" y="206" on="0"/>
        <pt x="1798" y="281" on="1"/>
        <pt x="1798" y="520" on="0"/>
      </contour>
      <contour>
        <pt x="665" y="529" on="1"/>
        <pt x="460" y="529" on="0"/>
        <pt x="277" y="430" on="0"/>
        <pt x="277" y="314" on="1"/>
        <pt x="277" y="225" on="0"/>
        <pt x="423" y="125" on="0"/>
        <pt x="550" y="125" on="1"/>
        <pt x="708" y="125" on="0"/>
        <pt x="841" y="277" on="0"/>
        <pt x="841" y="436" on="1"/>
        <pt x="841" y="529" on="1"/>
      </contour>
    </TTGlyph>
    <TTGlyph name="kauvowelsigntamil" xMin="139" yMin="-658" xMax="2076" yMax="1134">
      <contour>
        <pt x="813" y="1134" on="1"/>
        <pt x="1885" y="1134" on="1"/>
        <pt x="1885" y="986" on="1"/>
        <pt x="1501" y="986" on="1"/>
        <pt x="1501" y="669" on="1"/>
        <pt x="1784" y="648" on="0"/>
        <pt x="2076" y="332" on="0"/>
        <pt x="2076" y="82" on="1"/>
        <pt x="2076" y="-153" on="0"/>
        <pt x="1858" y="-484" on="0"/>
        <pt x="1439" y="-658" on="0"/>
        <pt x="1159" y="-658" on="1"/>
        <pt x="1100" y="-658" on="1"/>
        <pt x="794" y="-658" on="0"/>
        <pt x="361" y="-426" on="0"/>
        <pt x="139" y="3" on="0"/>
        <pt x="139" y="267" on="1"/>
        <pt x="139" y="310" on="1"/>
        <pt x="139" y="508" on="0"/>
        <pt x="275" y="912" on="0"/>
        <pt x="424" y="1134" on="1"/>
        <pt x="574" y="1045" on="1"/>
        <pt x="316" y="683" on="0"/>
        <pt x="316" y="307" on="1"/>
        <pt x="316" y="268" on="1"/>
        <pt x="316" y="37" on="0"/>
        <pt x="505" y="-315" on="0"/>
        <pt x="868" y="-500" on="0"/>
        <pt x="1122" y="-500" on="1"/>
        <pt x="1146" y="-500" on="1"/>
        <pt x="1506" y="-500" on="0"/>
        <pt x="1895" y="-198" on="0"/>
        <pt x="1895" y="83" on="1"/>
        <pt x="1895" y="269" on="0"/>
        <pt x="1693" y="497" on="0"/>
        <pt x="1501" y="523" on="1"/>
        <pt x="1501" y="462" on="1"/>
        <pt x="1501" y="255" on="0"/>
        <pt x="1380" y="60" on="0"/>
        <pt x="1175" y="-23" on="0"/>
        <pt x="1021" y="-23" on="1"/>
        <pt x="830" y="-23" on="0"/>
        <pt x="586" y="163" on="0"/>
        <pt x="586" y="318" on="1"/>
        <pt x="586" y="427" on="0"/>
        <pt x="699" y="578" on="0"/>
        <pt x="813" y="621" on="1"/>
      </contour>
      <contour>
        <pt x="1165" y="672" on="1"/>
        <pt x="1327" y="672" on="1"/>
        <pt x="1327" y="986" on="1"/>
        <pt x="974" y="986" on="1"/>
        <pt x="974" y="660" on="1"/>
        <pt x="1058" y="672" on="0"/>
      </contour>
      <contour>
        <pt x="1327" y="529" on="1"/>
        <pt x="1151" y="529" on="1"/>
        <pt x="943" y="529" on="0"/>
        <pt x="763" y="428" on="0"/>
        <pt x="763" y="314" on="1"/>
        <pt x="763" y="225" on="0"/>
        <pt x="910" y="125" on="0"/>
        <pt x="1037" y="125" on="1"/>
        <pt x="1194" y="125" on="0"/>
        <pt x="1327" y="277" on="0"/>
        <pt x="1327" y="436" on="1"/>
      </contour>
    </TTGlyph>
    <TTGlyph name="laiivowelsigntamil" xMin="117" yMin="-24" xMax="2081" yMax="1726">
      <contour>
        <pt x="1579" y="1576" on="1"/>
        <pt x="1471" y="1546" on="0"/>
        <pt x="1358" y="1391" on="0"/>
        <pt x="1358" y="1283" on="1"/>
        <pt x="1358" y="1155" on="0"/>
        <pt x="1502" y="985" on="0"/>
        <pt x="1641" y="949" on="1"/>
        <pt x="1599" y="1018" on="0"/>
        <pt x="1549" y="1078" on="1"/>
        <pt x="1719" y="1164" on="1"/>
        <pt x="1946" y="851" on="0"/>
        <pt x="1946" y="500" on="1"/>
        <pt x="1946" y="240" on="0"/>
        <pt x="1726" y="-24" on="0"/>
        <pt x="1510" y="-24" on="1"/>
        <pt x="1293" y="-24" on="0"/>
        <pt x="1086" y="245" on="0"/>
        <pt x="1086" y="495" on="1"/>
        <pt x="1086" y="692" on="0"/>
        <pt x="1008" y="909" on="0"/>
        <pt x="851" y="1010" on="0"/>
        <pt x="727" y="1010" on="1"/>
        <pt x="553" y="1010" on="0"/>
        <pt x="316" y="790" on="0"/>
        <pt x="286" y="594" on="1"/>
        <pt x="402" y="672" on="0"/>
        <pt x="534" y="672" on="1"/>
        <pt x="686" y="672" on="0"/>
        <pt x="865" y="492" on="0"/>
        <pt x="865" y="337" on="1"/>
        <pt x="865" y="170" on="0"/>
        <pt x="679" y="-24" on="0"/>
        <pt x="518" y="-24" on="1"/>
        <pt x="337" y="-24" on="0"/>
        <pt x="117" y="249" on="0"/>
        <pt x="117" y="502" on="1"/>
        <pt x="117" y="703" on="0"/>
        <pt x="274" y="1002" on="0"/>
        <pt x="558" y="1162" on="0"/>
        <pt x="735" y="1162" on="1"/>
        <pt x="929" y="1162" on="0"/>
        <pt x="1165" y="1009" on="0"/>
        <pt x="1264" y="764" on="0"/>
        <pt x="1264" y="534" on="1"/>
        <pt x="1264" y="371" on="0"/>
        <pt x="1322" y="208" on="0"/>
        <pt x="1433" y="128" on="0"/>
        <pt x="1523" y="128" on="1"/>
        <pt x="1768" y="128" on="0"/>
        <pt x="1768" y="485" on="1"/>
        <pt x="1768" y="646" on="0"/>
        <pt x="1713" y="799" on="1"/>
        <pt x="1469" y="826" on="0"/>
        <pt x="1200" y="1076" on="0"/>
        <pt x="1200" y="1276" on="1"/>
        <pt x="1200" y="1406" on="0"/>
        <pt x="1323" y="1613" on="0"/>
        <pt x="1560" y="1726" on="0"/>
        <pt x="1723" y="1726" on="1"/>
        <pt x="1892" y="1726" on="0"/>
        <pt x="2081" y="1589" on="0"/>
        <pt x="2081" y="1470" on="1"/>
        <pt x="2081" y="1352" on="0"/>
        <pt x="1936" y="1218" on="0"/>
        <pt x="1814" y="1218" on="1"/>
        <pt x="1694" y="1218" on="0"/>
        <pt x="1551" y="1339" on="0"/>
        <pt x="1551" y="1444" on="1"/>
        <pt x="1551" y="1513" on="0"/>
      </contour>
      <contour>
        <pt x="1723" y="1596" on="1"/>
        <pt x="1686" y="1537" on="0"/>
        <pt x="1686" y="1472" on="1"/>
        <pt x="1686" y="1410" on="0"/>
        <pt x="1753" y="1344" on="0"/>
        <pt x="1814" y="1344" on="1"/>
        <pt x="1872" y="1344" on="0"/>
        <pt x="1938" y="1409" on="0"/>
        <pt x="1938" y="1462" on="1"/>
        <pt x="1938" y="1528" on="0"/>
        <pt x="1833" y="1596" on="0"/>
        <pt x="1737" y="1596" on="1"/>
      </contour>
      <contour>
        <pt x="280" y="434" on="1"/>
        <pt x="289" y="277" on="0"/>
        <pt x="415" y="115" on="0"/>
        <pt x="522" y="115" on="1"/>
        <pt x="601" y="115" on="0"/>
        <pt x="697" y="221" on="0"/>
        <pt x="697" y="318" on="1"/>
        <pt x="697" y="416" on="0"/>
        <pt x="592" y="528" on="0"/>
        <pt x="505" y="528" on="1"/>
        <pt x="390" y="528" on="0"/>
      </contour>
    </TTGlyph>
    <TTGlyph name="laivowelsigntamil" xMin="117" yMin="-24" xMax="2423" yMax="1726">
      <contour>
        <pt x="2423" y="0" on="1"/>
        <pt x="2246" y="0" on="1"/>
        <pt x="2246" y="924" on="1"/>
        <pt x="2246" y="1181" on="0"/>
        <pt x="2145" y="1440" on="0"/>
        <pt x="1910" y="1572" on="0"/>
        <pt x="1736" y="1572" on="1"/>
        <pt x="1560" y="1572" on="0"/>
        <pt x="1366" y="1422" on="0"/>
        <pt x="1366" y="1286" on="1"/>
        <pt x="1366" y="1157" on="0"/>
        <pt x="1506" y="988" on="0"/>
        <pt x="1638" y="954" on="1"/>
        <pt x="1600" y="1015" on="0"/>
        <pt x="1549" y="1078" on="1"/>
        <pt x="1719" y="1164" on="1"/>
        <pt x="1946" y="851" on="0"/>
        <pt x="1946" y="500" on="1"/>
        <pt x="1946" y="240" on="0"/>
        <pt x="1726" y="-24" on="0"/>
        <pt x="1510" y="-24" on="1"/>
        <pt x="1293" y="-24" on="0"/>
        <pt x="1086" y="245" on="0"/>
        <pt x="1086" y="495" on="1"/>
        <pt x="1086" y="692" on="0"/>
        <pt x="1008" y="909" on="0"/>
        <pt x="851" y="1010" on="0"/>
        <pt x="727" y="1010" on="1"/>
        <pt x="553" y="1010" on="0"/>
        <pt x="316" y="790" on="0"/>
        <pt x="286" y="594" on="1"/>
        <pt x="402" y="672" on="0"/>
        <pt x="534" y="672" on="1"/>
        <pt x="686" y="672" on="0"/>
        <pt x="865" y="492" on="0"/>
        <pt x="865" y="337" on="1"/>
        <pt x="865" y="170" on="0"/>
        <pt x="679" y="-24" on="0"/>
        <pt x="518" y="-24" on="1"/>
        <pt x="337" y="-24" on="0"/>
        <pt x="117" y="249" on="0"/>
        <pt x="117" y="502" on="1"/>
        <pt x="117" y="703" on="0"/>
        <pt x="274" y="1002" on="0"/>
        <pt x="558" y="1162" on="0"/>
        <pt x="735" y="1162" on="1"/>
        <pt x="929" y="1162" on="0"/>
        <pt x="1165" y="1009" on="0"/>
        <pt x="1264" y="764" on="0"/>
        <pt x="1264" y="534" on="1"/>
        <pt x="1264" y="371" on="0"/>
        <pt x="1322" y="208" on="0"/>
        <pt x="1433" y="128" on="0"/>
        <pt x="1523" y="128" on="1"/>
        <pt x="1768" y="128" on="0"/>
        <pt x="1768" y="485" on="1"/>
        <pt x="1768" y="650" on="0"/>
        <pt x="1712" y="800" on="1"/>
        <pt x="1464" y="828" on="0"/>
        <pt x="1189" y="1087" on="0"/>
        <pt x="1189" y="1292" on="1"/>
        <pt x="1189" y="1427" on="0"/>
        <pt x="1329" y="1623" on="0"/>
        <pt x="1585" y="1726" on="0"/>
        <pt x="1742" y="1726" on="1"/>
        <pt x="1968" y="1726" on="0"/>
        <pt x="2288" y="1552" on="0"/>
        <pt x="2423" y="1255" on="0"/>
        <pt x="2423" y="1000" on="1"/>
      </contour>
      <contour>
        <pt x="280" y="434" on="1"/>
        <pt x="289" y="277" on="0"/>
        <pt x="415" y="115" on="0"/>
        <pt x="522" y="115" on="1"/>
        <pt x="601" y="115" on="0"/>
        <pt x="697" y="221" on="0"/>
        <pt x="697" y="318" on="1"/>
        <pt x="697" y="416" on="0"/>
        <pt x="592" y="528" on="0"/>
        <pt x="505" y="528" on="1"/>
        <pt x="390" y="528" on="0"/>
      </contour>
    </TTGlyph>
    <TTGlyph name="laprehalftamil" xMin="117" yMin="-24" xMax="1946" yMax="1726">
      <component glyphName="latamil" x="0" y="0" flags="0x204"/>
      <component glyphName="viramatamil" x="1607" y="0" flags="0x4"/>
    </TTGlyph>
    <TTGlyph name="latamil" xMin="117" yMin="-24" xMax="1946" yMax="1228">
      <contour>
        <pt x="1511" y="1120" on="1"/>
        <pt x="1671" y="1228" on="1"/>
        <pt x="1812" y="1050" on="0"/>
        <pt x="1946" y="691" on="0"/>
        <pt x="1946" y="500" on="1"/>
        <pt x="1946" y="240" on="0"/>
        <pt x="1726" y="-24" on="0"/>
        <pt x="1510" y="-24" on="1"/>
        <pt x="1293" y="-24" on="0"/>
        <pt x="1086" y="245" on="0"/>
        <pt x="1086" y="495" on="1"/>
        <pt x="1086" y="692" on="0"/>
        <pt x="1008" y="909" on="0"/>
        <pt x="851" y="1010" on="0"/>
        <pt x="727" y="1010" on="1"/>
        <pt x="553" y="1010" on="0"/>
        <pt x="316" y="790" on="0"/>
        <pt x="286" y="594" on="1"/>
        <pt x="402" y="672" on="0"/>
        <pt x="534" y="672" on="1"/>
        <pt x="686" y="672" on="0"/>
        <pt x="865" y="492" on="0"/>
        <pt x="865" y="337" on="1"/>
        <pt x="865" y="170" on="0"/>
        <pt x="679" y="-24" on="0"/>
        <pt x="518" y="-24" on="1"/>
        <pt x="337" y="-24" on="0"/>
        <pt x="117" y="249" on="0"/>
        <pt x="117" y="502" on="1"/>
        <pt x="117" y="703" on="0"/>
        <pt x="274" y="1002" on="0"/>
        <pt x="558" y="1162" on="0"/>
        <pt x="735" y="1162" on="1"/>
        <pt x="929" y="1162" on="0"/>
        <pt x="1165" y="1009" on="0"/>
        <pt x="1264" y="764" on="0"/>
        <pt x="1264" y="534" on="1"/>
        <pt x="1264" y="371" on="0"/>
        <pt x="1322" y="208" on="0"/>
        <pt x="1433" y="128" on="0"/>
        <pt x="1523" y="128" on="1"/>
        <pt x="1645" y="128" on="0"/>
        <pt x="1768" y="306" on="0"/>
        <pt x="1768" y="485" on="1"/>
        <pt x="1768" y="664" on="0"/>
        <pt x="1639" y="982" on="0"/>
      </contour>
      <contour>
        <pt x="280" y="434" on="1"/>
        <pt x="289" y="277" on="0"/>
        <pt x="415" y="115" on="0"/>
        <pt x="522" y="115" on="1"/>
        <pt x="601" y="115" on="0"/>
        <pt x="697" y="221" on="0"/>
        <pt x="697" y="318" on="1"/>
        <pt x="697" y="416" on="0"/>
        <pt x="592" y="528" on="0"/>
        <pt x="505" y="528" on="1"/>
        <pt x="390" y="528" on="0"/>
      </contour>
    </TTGlyph>
    <TTGlyph name="lauuvowelsigntamil" xMin="78" yMin="-658" xMax="3291" yMax="1228">
      <contour>
        <pt x="2934" y="-320" on="1"/>
        <pt x="2756" y="-320" on="1"/>
        <pt x="2756" y="986" on="1"/>
        <pt x="2400" y="986" on="1"/>
        <pt x="2400" y="-320" on="1"/>
        <pt x="1451" y="-320" on="1"/>
        <pt x="1327" y="-486" on="0"/>
        <pt x="906" y="-658" on="0"/>
        <pt x="623" y="-658" on="1"/>
        <pt x="582" y="-658" on="1"/>
        <pt x="358" y="-658" on="0"/>
        <pt x="78" y="-489" on="0"/>
        <pt x="78" y="-343" on="1"/>
        <pt x="78" y="-281" on="0"/>
        <pt x="141" y="-200" on="0"/>
        <pt x="242" y="-172" on="0"/>
        <pt x="337" y="-172" on="1"/>
        <pt x="1337" y="-172" on="1"/>
        <pt x="1382" y="-94" on="0"/>
        <pt x="1403" y="-15" on="1"/>
        <pt x="1241" y="16" on="0"/>
        <pt x="1086" y="281" on="0"/>
        <pt x="1086" y="495" on="1"/>
        <pt x="1086" y="692" on="0"/>
        <pt x="1008" y="909" on="0"/>
        <pt x="851" y="1010" on="0"/>
        <pt x="727" y="1010" on="1"/>
        <pt x="553" y="1010" on="0"/>
        <pt x="317" y="788" on="0"/>
        <pt x="287" y="595" on="1"/>
        <pt x="405" y="672" on="0"/>
        <pt x="534" y="672" on="1"/>
        <pt x="686" y="672" on="0"/>
        <pt x="865" y="492" on="0"/>
        <pt x="865" y="337" on="1"/>
        <pt x="865" y="170" on="0"/>
        <pt x="679" y="-24" on="0"/>
        <pt x="518" y="-24" on="1"/>
        <pt x="337" y="-24" on="0"/>
        <pt x="117" y="249" on="0"/>
        <pt x="117" y="502" on="1"/>
        <pt x="117" y="706" on="0"/>
        <pt x="271" y="1003" on="0"/>
        <pt x="554" y="1162" on="0"/>
        <pt x="735" y="1162" on="1"/>
        <pt x="929" y="1162" on="0"/>
        <pt x="1165" y="1008" on="0"/>
        <pt x="1264" y="764" on="0"/>
        <pt x="1264" y="534" on="1"/>
        <pt x="1264" y="371" on="0"/>
        <pt x="1322" y="208" on="0"/>
        <pt x="1433" y="128" on="0"/>
        <pt x="1523" y="128" on="1"/>
        <pt x="1645" y="128" on="0"/>
        <pt x="1768" y="306" on="0"/>
        <pt x="1768" y="485" on="1"/>
        <pt x="1768" y="664" on="0"/>
        <pt x="1639" y="982" on="0"/>
        <pt x="1511" y="1120" on="1"/>
        <pt x="1671" y="1228" on="1"/>
        <pt x="1812" y="1050" on="0"/>
        <pt x="1946" y="691" on="0"/>
        <pt x="1946" y="500" on="1"/>
        <pt x="1946" y="265" on="0"/>
        <pt x="1767" y="5" on="0"/>
        <pt x="1589" y="-19" on="1"/>
        <pt x="1570" y="-100" on="0"/>
        <pt x="1538" y="-172" on="1"/>
        <pt x="2222" y="-172" on="1"/>
        <pt x="2222" y="1134" on="1"/>
        <pt x="3291" y="1134" on="1"/>
        <pt x="3291" y="986" on="1"/>
        <pt x="2934" y="986" on="1"/>
      </contour>
      <contour>
        <pt x="280" y="434" on="1"/>
        <pt x="289" y="277" on="0"/>
        <pt x="415" y="115" on="0"/>
        <pt x="522" y="115" on="1"/>
        <pt x="601" y="115" on="0"/>
        <pt x="697" y="221" on="0"/>
        <pt x="697" y="318" on="1"/>
        <pt x="697" y="416" on="0"/>
        <pt x="592" y="528" on="0"/>
        <pt x="505" y="528" on="1"/>
        <pt x="392" y="528" on="0"/>
      </contour>
      <contour>
        <pt x="1240" y="-320" on="1"/>
        <pt x="320" y="-320" on="1"/>
        <pt x="293" y="-320" on="0"/>
        <pt x="265" y="-327" on="0"/>
        <pt x="247" y="-350" on="0"/>
        <pt x="247" y="-369" on="1"/>
        <pt x="247" y="-432" on="0"/>
        <pt x="433" y="-509" on="0"/>
        <pt x="600" y="-509" on="1"/>
        <pt x="626" y="-509" on="1"/>
        <pt x="1032" y="-509" on="0"/>
      </contour>
    </TTGlyph>
    <TTGlyph name="lauvowelsigntamil" xMin="78" yMin="-658" xMax="2400" yMax="1228">
      <contour>
        <pt x="2400" y="1134" on="1"/>
        <pt x="2400" y="-320" on="1"/>
        <pt x="1451" y="-320" on="1"/>
        <pt x="1327" y="-486" on="0"/>
        <pt x="906" y="-658" on="0"/>
        <pt x="623" y="-658" on="1"/>
        <pt x="582" y="-658" on="1"/>
        <pt x="358" y="-658" on="0"/>
        <pt x="78" y="-489" on="0"/>
        <pt x="78" y="-343" on="1"/>
        <pt x="78" y="-281" on="0"/>
        <pt x="141" y="-200" on="0"/>
        <pt x="242" y="-172" on="0"/>
        <pt x="337" y="-172" on="1"/>
        <pt x="1337" y="-172" on="1"/>
        <pt x="1382" y="-94" on="0"/>
        <pt x="1403" y="-15" on="1"/>
        <pt x="1241" y="16" on="0"/>
        <pt x="1086" y="281" on="0"/>
        <pt x="1086" y="495" on="1"/>
        <pt x="1086" y="692" on="0"/>
        <pt x="1008" y="909" on="0"/>
        <pt x="851" y="1010" on="0"/>
        <pt x="727" y="1010" on="1"/>
        <pt x="553" y="1010" on="0"/>
        <pt x="317" y="788" on="0"/>
        <pt x="287" y="595" on="1"/>
        <pt x="405" y="672" on="0"/>
        <pt x="534" y="672" on="1"/>
        <pt x="686" y="672" on="0"/>
        <pt x="865" y="492" on="0"/>
        <pt x="865" y="337" on="1"/>
        <pt x="865" y="170" on="0"/>
        <pt x="679" y="-24" on="0"/>
        <pt x="518" y="-24" on="1"/>
        <pt x="337" y="-24" on="0"/>
        <pt x="117" y="249" on="0"/>
        <pt x="117" y="502" on="1"/>
        <pt x="117" y="706" on="0"/>
        <pt x="271" y="1003" on="0"/>
        <pt x="554" y="1162" on="0"/>
        <pt x="735" y="1162" on="1"/>
        <pt x="929" y="1162" on="0"/>
        <pt x="1165" y="1008" on="0"/>
        <pt x="1264" y="764" on="0"/>
        <pt x="1264" y="534" on="1"/>
        <pt x="1264" y="371" on="0"/>
        <pt x="1322" y="208" on="0"/>
        <pt x="1433" y="128" on="0"/>
        <pt x="1523" y="128" on="1"/>
        <pt x="1645" y="128" on="0"/>
        <pt x="1768" y="306" on="0"/>
        <pt x="1768" y="485" on="1"/>
        <pt x="1768" y="664" on="0"/>
        <pt x="1639" y="982" on="0"/>
        <pt x="1511" y="1120" on="1"/>
        <pt x="1671" y="1228" on="1"/>
        <pt x="1812" y="1050" on="0"/>
        <pt x="1946" y="691" on="0"/>
        <pt x="1946" y="500" on="1"/>
        <pt x="1946" y="265" on="0"/>
        <pt x="1767" y="5" on="0"/>
        <pt x="1589" y="-19" on="1"/>
        <pt x="1570" y="-100" on="0"/>
        <pt x="1538" y="-172" on="1"/>
        <pt x="2222" y="-172" on="1"/>
        <pt x="2222" y="1134" on="1"/>
      </contour>
      <contour>
        <pt x="280" y="434" on="1"/>
        <pt x="289" y="277" on="0"/>
        <pt x="415" y="115" on="0"/>
        <pt x="522" y="115" on="1"/>
        <pt x="601" y="115" on="0"/>
        <pt x="697" y="221" on="0"/>
        <pt x="697" y="318" on="1"/>
        <pt x="697" y="416" on="0"/>
        <pt x="592" y="528" on="0"/>
        <pt x="505" y="528" on="1"/>
        <pt x="392" y="528" on="0"/>
      </contour>
      <contour>
        <pt x="1240" y="-320" on="1"/>
        <pt x="320" y="-320" on="1"/>
        <pt x="293" y="-320" on="0"/>
        <pt x="265" y="-327" on="0"/>
        <pt x="247" y="-350" on="0"/>
        <pt x="247" y="-369" on="1"/>
        <pt x="247" y="-432" on="0"/>
        <pt x="433" y="-509" on="0"/>
        <pt x="600" y="-509" on="1"/>
        <pt x="626" y="-509" on="1"/>
        <pt x="1032" y="-509" on="0"/>
      </contour>
    </TTGlyph>
    <TTGlyph name="less.tamil" xMin="103" yMin="0" xMax="1068" yMax="1463">
      <contour>
        <pt x="1068" y="238" on="1"/>
        <pt x="103" y="662" on="1"/>
        <pt x="103" y="764" on="1"/>
        <pt x="1068" y="1245" on="1"/>
        <pt x="1068" y="1085" on="1"/>
        <pt x="296" y="721" on="1"/>
        <pt x="1068" y="397" on="1"/>
      </contour>
      <contour>
        <pt x="580" y="0" on="1"/>
      </contour>
      <contour>
        <pt x="591" y="1463" on="1"/>
      </contour>
    </TTGlyph>
    <TTGlyph name="llaprehalftamil" xMin="117" yMin="-24" xMax="2158" yMax="1726">
      <component glyphName="llatamil" x="0" y="0" flags="0x204"/>
      <component glyphName="viramatamil" x="1666" y="0" flags="0x4"/>
    </TTGlyph>
    <TTGlyph name="llatamil" xMin="117" yMin="-24" xMax="2158" yMax="1162">
      <contour>
        <pt x="1124" y="1030" on="1"/>
        <pt x="1124" y="1134" on="1"/>
        <pt x="2158" y="1134" on="1"/>
        <pt x="2158" y="986" on="1"/>
        <pt x="1810" y="986" on="1"/>
        <pt x="1810" y="0" on="1"/>
        <pt x="1633" y="0" on="1"/>
        <pt x="1633" y="986" on="1"/>
        <pt x="1276" y="986" on="1"/>
        <pt x="1276" y="0" on="1"/>
        <pt x="1099" y="0" on="1"/>
        <pt x="1099" y="837" on="1"/>
        <pt x="1024" y="927" on="0"/>
        <pt x="845" y="1010" on="0"/>
        <pt x="728" y="1010" on="1"/>
        <pt x="556" y="1010" on="0"/>
        <pt x="318" y="786" on="0"/>
        <pt x="287" y="595" on="1"/>
        <pt x="405" y="672" on="0"/>
        <pt x="534" y="672" on="1"/>
        <pt x="686" y="672" on="0"/>
        <pt x="865" y="492" on="0"/>
        <pt x="865" y="337" on="1"/>
        <pt x="865" y="170" on="0"/>
        <pt x="679" y="-24" on="0"/>
        <pt x="518" y="-24" on="1"/>
        <pt x="337" y="-24" on="0"/>
        <pt x="117" y="249" on="0"/>
        <pt x="117" y="502" on="1"/>
        <pt x="117" y="703" on="0"/>
        <pt x="275" y="1002" on="0"/>
        <pt x="565" y="1162" on="0"/>
        <pt x="746" y="1162" on="1"/>
        <pt x="858" y="1162" on="0"/>
        <pt x="1038" y="1101" on="0"/>
      </contour>
      <contour>
        <pt x="280" y="434" on="1"/>
        <pt x="289" y="277" on="0"/>
        <pt x="413" y="115" on="0"/>
        <pt x="522" y="115" on="1"/>
        <pt x="601" y="115" on="0"/>
        <pt x="697" y="221" on="0"/>
        <pt x="697" y="318" on="1"/>
        <pt x="697" y="416" on="0"/>
        <pt x="592" y="528" on="0"/>
        <pt x="505" y="528" on="1"/>
        <pt x="390" y="528" on="0"/>
      </contour>
    </TTGlyph>
    <TTGlyph name="llauuvowelsigntamil" xMin="139" yMin="-658" xMax="3183" yMax="1162">
      <contour>
        <pt x="2581" y="432" on="1"/>
        <pt x="2581" y="0" on="1"/>
        <pt x="2404" y="0" on="1"/>
        <pt x="2404" y="986" on="1"/>
        <pt x="2047" y="986" on="1"/>
        <pt x="2047" y="0" on="1"/>
        <pt x="1870" y="0" on="1"/>
        <pt x="1870" y="837" on="1"/>
        <pt x="1795" y="927" on="0"/>
        <pt x="1616" y="1010" on="0"/>
        <pt x="1499" y="1010" on="1"/>
        <pt x="1327" y="1010" on="0"/>
        <pt x="1089" y="786" on="0"/>
        <pt x="1058" y="595" on="1"/>
        <pt x="1176" y="672" on="0"/>
        <pt x="1305" y="672" on="1"/>
        <pt x="1457" y="672" on="0"/>
        <pt x="1636" y="492" on="0"/>
        <pt x="1636" y="337" on="1"/>
        <pt x="1636" y="170" on="0"/>
        <pt x="1450" y="-24" on="0"/>
        <pt x="1289" y="-24" on="1"/>
        <pt x="1108" y="-24" on="0"/>
        <pt x="888" y="249" on="0"/>
        <pt x="888" y="502" on="1"/>
        <pt x="888" y="701" on="0"/>
        <pt x="1044" y="1000" on="0"/>
        <pt x="1334" y="1162" on="0"/>
        <pt x="1516" y="1162" on="1"/>
        <pt x="1628" y="1162" on="0"/>
        <pt x="1809" y="1101" on="0"/>
        <pt x="1895" y="1030" on="1"/>
        <pt x="1895" y="1134" on="1"/>
        <pt x="2929" y="1134" on="1"/>
        <pt x="2929" y="986" on="1"/>
        <pt x="2581" y="986" on="1"/>
        <pt x="2581" y="582" on="1"/>
        <pt x="2683" y="653" on="0"/>
        <pt x="2809" y="653" on="1"/>
        <pt x="2978" y="653" on="0"/>
        <pt x="3183" y="391" on="0"/>
        <pt x="3183" y="167" on="1"/>
        <pt x="3183" y="-238" on="0"/>
        <pt x="2489" y="-658" on="0"/>
        <pt x="1817" y="-658" on="1"/>
        <pt x="1685" y="-658" on="1"/>
        <pt x="913" y="-658" on="0"/>
        <pt x="139" y="-77" on="0"/>
        <pt x="139" y="515" on="1"/>
        <pt x="139" y="695" on="0"/>
        <pt x="234" y="996" on="0"/>
        <pt x="414" y="1159" on="0"/>
        <pt x="537" y="1159" on="1"/>
        <pt x="679" y="1159" on="0"/>
        <pt x="846" y="996" on="0"/>
        <pt x="846" y="863" on="1"/>
        <pt x="846" y="724" on="0"/>
        <pt x="673" y="560" on="0"/>
        <pt x="533" y="560" on="1"/>
        <pt x="418" y="560" on="0"/>
        <pt x="316" y="630" on="1"/>
        <pt x="310" y="579" on="0"/>
        <pt x="310" y="505" on="1"/>
        <pt x="310" y="-11" on="0"/>
        <pt x="1014" y="-500" on="0"/>
        <pt x="1712" y="-500" on="1"/>
        <pt x="1782" y="-500" on="1"/>
        <pt x="2401" y="-500" on="0"/>
        <pt x="3002" y="-171" on="0"/>
        <pt x="3002" y="172" on="1"/>
        <pt x="3002" y="333" on="0"/>
        <pt x="2886" y="505" on="0"/>
        <pt x="2778" y="505" on="1"/>
        <pt x="2685" y="505" on="0"/>
      </contour>
      <contour>
        <pt x="341" y="781" on="1"/>
        <pt x="419" y="705" on="0"/>
        <pt x="508" y="705" on="1"/>
        <pt x="590" y="705" on="0"/>
        <pt x="678" y="790" on="0"/>
        <pt x="678" y="869" on="1"/>
        <pt x="678" y="940" on="0"/>
        <pt x="604" y="1020" on="0"/>
        <pt x="539" y="1020" on="1"/>
        <pt x="401" y="1020" on="0"/>
      </contour>
      <contour>
        <pt x="1051" y="434" on="1"/>
        <pt x="1059" y="278" on="0"/>
        <pt x="1184" y="115" on="0"/>
        <pt x="1293" y="115" on="1"/>
        <pt x="1372" y="115" on="0"/>
        <pt x="1468" y="222" on="0"/>
        <pt x="1468" y="318" on="1"/>
        <pt x="1468" y="415" on="0"/>
        <pt x="1363" y="528" on="0"/>
        <pt x="1275" y="528" on="1"/>
        <pt x="1162" y="528" on="0"/>
      </contour>
    </TTGlyph>
    <TTGlyph name="llauvowelsigntamil" xMin="139" yMin="-658" xMax="2939" yMax="1162">
      <contour>
        <pt x="2336" y="582" on="1"/>
        <pt x="2438" y="653" on="0"/>
        <pt x="2565" y="653" on="1"/>
        <pt x="2737" y="653" on="0"/>
        <pt x="2939" y="394" on="0"/>
        <pt x="2939" y="169" on="1"/>
        <pt x="2939" y="-231" on="0"/>
        <pt x="2258" y="-658" on="0"/>
        <pt x="1625" y="-658" on="1"/>
        <pt x="1531" y="-658" on="1"/>
        <pt x="1079" y="-658" on="0"/>
        <pt x="456" y="-429" on="0"/>
        <pt x="139" y="11" on="0"/>
        <pt x="139" y="306" on="1"/>
        <pt x="139" y="349" on="1"/>
        <pt x="139" y="531" on="0"/>
        <pt x="281" y="944" on="0"/>
        <pt x="407" y="1134" on="1"/>
        <pt x="559" y="1045" on="1"/>
        <pt x="316" y="679" on="0"/>
        <pt x="316" y="333" on="1"/>
        <pt x="316" y="312" on="1"/>
        <pt x="316" y="-84" on="0"/>
        <pt x="941" y="-500" on="0"/>
        <pt x="1556" y="-500" on="1"/>
        <pt x="1594" y="-500" on="1"/>
        <pt x="2159" y="-500" on="0"/>
        <pt x="2758" y="-154" on="0"/>
        <pt x="2758" y="173" on="1"/>
        <pt x="2758" y="335" on="0"/>
        <pt x="2643" y="505" on="0"/>
        <pt x="2534" y="505" on="1"/>
        <pt x="2440" y="505" on="0"/>
        <pt x="2336" y="432" on="1"/>
        <pt x="2336" y="0" on="1"/>
        <pt x="2159" y="0" on="1"/>
        <pt x="2159" y="986" on="1"/>
        <pt x="1803" y="986" on="1"/>
        <pt x="1803" y="0" on="1"/>
        <pt x="1625" y="0" on="1"/>
        <pt x="1625" y="837" on="1"/>
        <pt x="1550" y="927" on="0"/>
        <pt x="1371" y="1010" on="0"/>
        <pt x="1254" y="1010" on="1"/>
        <pt x="1082" y="1010" on="0"/>
        <pt x="844" y="786" on="0"/>
        <pt x="813" y="595" on="1"/>
        <pt x="931" y="672" on="0"/>
        <pt x="1060" y="672" on="1"/>
        <pt x="1212" y="672" on="0"/>
        <pt x="1391" y="492" on="0"/>
        <pt x="1391" y="337" on="1"/>
        <pt x="1391" y="170" on="0"/>
        <pt x="1205" y="-24" on="0"/>
        <pt x="1044" y="-24" on="1"/>
        <pt x="863" y="-24" on="0"/>
        <pt x="643" y="250" on="0"/>
        <pt x="643" y="502" on="1"/>
        <pt x="643" y="703" on="0"/>
        <pt x="801" y="1002" on="0"/>
        <pt x="1091" y="1162" on="0"/>
        <pt x="1272" y="1162" on="1"/>
        <pt x="1384" y="1162" on="0"/>
        <pt x="1564" y="1101" on="0"/>
        <pt x="1650" y="1030" on="1"/>
        <pt x="1650" y="1134" on="1"/>
        <pt x="2684" y="1134" on="1"/>
        <pt x="2684" y="986" on="1"/>
        <pt x="2336" y="986" on="1"/>
      </contour>
      <contour>
        <pt x="806" y="434" on="1"/>
        <pt x="815" y="277" on="0"/>
        <pt x="939" y="115" on="0"/>
        <pt x="1048" y="115" on="1"/>
        <pt x="1127" y="115" on="0"/>
        <pt x="1223" y="221" on="0"/>
        <pt x="1223" y="318" on="1"/>
        <pt x="1223" y="416" on="0"/>
        <pt x="1118" y="528" on="0"/>
        <pt x="1031" y="528" on="1"/>
        <pt x="916" y="528" on="0"/>
      </contour>
    </TTGlyph>
    <TTGlyph name="lllaprehalftamil" xMin="129" yMin="-658" xMax="1633" yMax="1726">
      <component glyphName="lllatamil" x="0" y="0" flags="0x204"/>
      <component glyphName="viramatamil" x="1451" y="0" flags="0x4"/>
    </TTGlyph>
    <TTGlyph name="lllatamil" xMin="129" yMin="-658" xMax="1633" yMax="1162">
      <contour>
        <pt x="1147" y="-340" on="1"/>
        <pt x="1142" y="-346" on="0"/>
        <pt x="1130" y="-373" on="1"/>
        <pt x="1081" y="-467" on="0"/>
        <pt x="961" y="-586" on="0"/>
        <pt x="763" y="-658" on="0"/>
        <pt x="602" y="-658" on="1"/>
        <pt x="551" y="-658" on="1"/>
        <pt x="434" y="-658" on="0"/>
        <pt x="226" y="-593" on="0"/>
        <pt x="129" y="-464" on="0"/>
        <pt x="129" y="-381" on="1"/>
        <pt x="129" y="-265" on="0"/>
        <pt x="304" y="-124" on="0"/>
        <pt x="450" y="-124" on="1"/>
        <pt x="525" y="-124" on="0"/>
        <pt x="593" y="-135" on="1"/>
        <pt x="578" y="-272" on="1"/>
        <pt x="527" y="-265" on="0"/>
        <pt x="477" y="-265" on="1"/>
        <pt x="393" y="-265" on="0"/>
        <pt x="305" y="-322" on="0"/>
        <pt x="305" y="-378" on="1"/>
        <pt x="305" y="-446" on="0"/>
        <pt x="438" y="-515" on="0"/>
        <pt x="565" y="-515" on="1"/>
        <pt x="616" y="-515" on="1"/>
        <pt x="753" y="-515" on="0"/>
        <pt x="927" y="-423" on="0"/>
        <pt x="982" y="-312" on="1"/>
        <pt x="994" y="-289" on="1"/>
        <pt x="826" y="-214" on="0"/>
        <pt x="819" y="0" on="1"/>
        <pt x="180" y="0" on="1"/>
        <pt x="180" y="1134" on="1"/>
        <pt x="357" y="1134" on="1"/>
        <pt x="357" y="148" on="1"/>
        <pt x="819" y="148" on="1"/>
        <pt x="819" y="727" on="1"/>
        <pt x="819" y="892" on="0"/>
        <pt x="899" y="1071" on="0"/>
        <pt x="1063" y="1162" on="0"/>
        <pt x="1187" y="1162" on="1"/>
        <pt x="1402" y="1162" on="0"/>
        <pt x="1633" y="835" on="0"/>
        <pt x="1633" y="537" on="1"/>
        <pt x="1633" y="401" on="0"/>
        <pt x="1576" y="197" on="0"/>
        <pt x="1447" y="61" on="0"/>
        <pt x="1246" y="0" on="0"/>
        <pt x="1077" y="0" on="1"/>
        <pt x="994" y="0" on="1"/>
        <pt x="995" y="-75" on="0"/>
        <pt x="1052" y="-159" on="0"/>
        <pt x="1161" y="-192" on="0"/>
        <pt x="1252" y="-192" on="1"/>
        <pt x="1514" y="-192" on="1"/>
        <pt x="1514" y="-340" on="1"/>
      </contour>
      <contour>
        <pt x="996" y="148" on="1"/>
        <pt x="1092" y="148" on="1"/>
        <pt x="1225" y="148" on="0"/>
        <pt x="1380" y="218" on="0"/>
        <pt x="1453" y="384" on="0"/>
        <pt x="1453" y="546" on="1"/>
        <pt x="1453" y="766" on="0"/>
        <pt x="1313" y="1014" on="0"/>
        <pt x="1184" y="1014" on="1"/>
        <pt x="1113" y="1014" on="0"/>
        <pt x="1022" y="930" on="0"/>
        <pt x="996" y="802" on="0"/>
        <pt x="996" y="685" on="1"/>
      </contour>
    </TTGlyph>
    <TTGlyph name="lllauuvowelsigntamil" xMin="139" yMin="-658" xMax="2399" yMax="1162">
      <contour>
        <pt x="1585" y="-341" on="1"/>
        <pt x="1585" y="0" on="1"/>
        <pt x="946" y="0" on="1"/>
        <pt x="946" y="1134" on="1"/>
        <pt x="1123" y="1134" on="1"/>
        <pt x="1123" y="148" on="1"/>
        <pt x="1585" y="148" on="1"/>
        <pt x="1585" y="727" on="1"/>
        <pt x="1585" y="892" on="0"/>
        <pt x="1665" y="1071" on="0"/>
        <pt x="1829" y="1162" on="0"/>
        <pt x="1953" y="1162" on="1"/>
        <pt x="2168" y="1162" on="0"/>
        <pt x="2399" y="835" on="0"/>
        <pt x="2399" y="537" on="1"/>
        <pt x="2399" y="401" on="0"/>
        <pt x="2342" y="197" on="0"/>
        <pt x="2213" y="61" on="0"/>
        <pt x="2012" y="0" on="0"/>
        <pt x="1843" y="0" on="1"/>
        <pt x="1759" y="0" on="1"/>
        <pt x="1759" y="-130" on="1"/>
        <pt x="1849" y="-94" on="0"/>
        <pt x="1945" y="-94" on="1"/>
        <pt x="2059" y="-94" on="0"/>
        <pt x="2196" y="-209" on="0"/>
        <pt x="2196" y="-306" on="1"/>
        <pt x="2196" y="-477" on="0"/>
        <pt x="1860" y="-658" on="0"/>
        <pt x="1548" y="-658" on="1"/>
        <pt x="1402" y="-658" on="1"/>
        <pt x="1008" y="-658" on="0"/>
        <pt x="439" y="-390" on="0"/>
        <pt x="139" y="120" on="0"/>
        <pt x="139" y="458" on="1"/>
        <pt x="139" y="785" on="0"/>
        <pt x="345" y="1159" on="0"/>
        <pt x="537" y="1159" on="1"/>
        <pt x="679" y="1159" on="0"/>
        <pt x="846" y="996" on="0"/>
        <pt x="846" y="863" on="1"/>
        <pt x="846" y="724" on="0"/>
        <pt x="673" y="560" on="0"/>
        <pt x="533" y="560" on="1"/>
        <pt x="417" y="560" on="0"/>
        <pt x="318" y="629" on="1"/>
        <pt x="310" y="559" on="0"/>
        <pt x="310" y="450" on="1"/>
        <pt x="310" y="160" on="0"/>
        <pt x="575" y="-268" on="0"/>
        <pt x="1092" y="-500" on="0"/>
        <pt x="1458" y="-500" on="1"/>
        <pt x="1536" y="-500" on="1"/>
        <pt x="1755" y="-500" on="0"/>
        <pt x="2024" y="-409" on="0"/>
        <pt x="2024" y="-327" on="1"/>
        <pt x="2024" y="-237" on="0"/>
        <pt x="1906" y="-237" on="1"/>
        <pt x="1841" y="-237" on="0"/>
        <pt x="1759" y="-273" on="1"/>
        <pt x="1759" y="-341" on="1"/>
      </contour>
      <contour>
        <pt x="342" y="780" on="1"/>
        <pt x="420" y="705" on="0"/>
        <pt x="508" y="705" on="1"/>
        <pt x="590" y="705" on="0"/>
        <pt x="678" y="790" on="0"/>
        <pt x="678" y="869" on="1"/>
        <pt x="678" y="940" on="0"/>
        <pt x="604" y="1020" on="0"/>
        <pt x="539" y="1020" on="1"/>
        <pt x="399" y="1020" on="0"/>
      </contour>
      <contour>
        <pt x="1762" y="148" on="1"/>
        <pt x="1858" y="148" on="1"/>
        <pt x="1991" y="148" on="0"/>
        <pt x="2146" y="218" on="0"/>
        <pt x="2219" y="384" on="0"/>
        <pt x="2219" y="546" on="1"/>
        <pt x="2219" y="766" on="0"/>
        <pt x="2079" y="1014" on="0"/>
        <pt x="1950" y="1014" on="1"/>
        <pt x="1879" y="1014" on="0"/>
        <pt x="1788" y="930" on="0"/>
        <pt x="1762" y="802" on="0"/>
        <pt x="1762" y="685" on="1"/>
      </contour>
    </TTGlyph>
    <TTGlyph name="lllauvowelsigntamil" xMin="139" yMin="-658" xMax="2193" yMax="1162">
      <contour>
        <pt x="1379" y="-341" on="1"/>
        <pt x="1379" y="0" on="1"/>
        <pt x="740" y="0" on="1"/>
        <pt x="740" y="1134" on="1"/>
        <pt x="918" y="1134" on="1"/>
        <pt x="918" y="148" on="1"/>
        <pt x="1379" y="148" on="1"/>
        <pt x="1379" y="727" on="1"/>
        <pt x="1379" y="892" on="0"/>
        <pt x="1459" y="1071" on="0"/>
        <pt x="1623" y="1162" on="0"/>
        <pt x="1747" y="1162" on="1"/>
        <pt x="1962" y="1162" on="0"/>
        <pt x="2193" y="835" on="0"/>
        <pt x="2193" y="537" on="1"/>
        <pt x="2193" y="406" on="0"/>
        <pt x="2139" y="205" on="0"/>
        <pt x="2012" y="65" on="0"/>
        <pt x="1810" y="0" on="0"/>
        <pt x="1638" y="0" on="1"/>
        <pt x="1554" y="0" on="1"/>
        <pt x="1554" y="-129" on="1"/>
        <pt x="1642" y="-94" on="0"/>
        <pt x="1739" y="-94" on="1"/>
        <pt x="1854" y="-94" on="0"/>
        <pt x="1990" y="-210" on="0"/>
        <pt x="1990" y="-306" on="1"/>
        <pt x="1990" y="-477" on="0"/>
        <pt x="1661" y="-658" on="0"/>
        <pt x="1356" y="-658" on="1"/>
        <pt x="1227" y="-658" on="1"/>
        <pt x="877" y="-658" on="0"/>
        <pt x="389" y="-439" on="0"/>
        <pt x="139" y="-20" on="0"/>
        <pt x="139" y="267" on="1"/>
        <pt x="139" y="310" on="1"/>
        <pt x="139" y="508" on="0"/>
        <pt x="275" y="912" on="0"/>
        <pt x="422" y="1134" on="1"/>
        <pt x="574" y="1045" on="1"/>
        <pt x="316" y="683" on="0"/>
        <pt x="316" y="307" on="1"/>
        <pt x="316" y="268" on="1"/>
        <pt x="316" y="-102" on="0"/>
        <pt x="793" y="-500" on="0"/>
        <pt x="1261" y="-500" on="1"/>
        <pt x="1338" y="-500" on="1"/>
        <pt x="1553" y="-500" on="0"/>
        <pt x="1818" y="-409" on="0"/>
        <pt x="1818" y="-327" on="1"/>
        <pt x="1818" y="-237" on="0"/>
        <pt x="1700" y="-237" on="1"/>
        <pt x="1632" y="-237" on="0"/>
        <pt x="1554" y="-273" on="1"/>
        <pt x="1554" y="-341" on="1"/>
      </contour>
      <contour>
        <pt x="1557" y="148" on="1"/>
        <pt x="1652" y="148" on="1"/>
        <pt x="1785" y="148" on="0"/>
        <pt x="1940" y="218" on="0"/>
        <pt x="2013" y="384" on="0"/>
        <pt x="2013" y="546" on="1"/>
        <pt x="2013" y="766" on="0"/>
        <pt x="1873" y="1014" on="0"/>
        <pt x="1744" y="1014" on="1"/>
        <pt x="1675" y="1014" on="0"/>
        <pt x="1587" y="937" on="0"/>
        <pt x="1557" y="816" on="0"/>
        <pt x="1557" y="685" on="1"/>
      </contour>
    </TTGlyph>
    <TTGlyph name="maprehalftamil" xMin="180" yMin="0" xMax="1633" yMax="1726">
      <component glyphName="matamil" x="0" y="0" flags="0x204"/>
      <component glyphName="viramatamil" x="1451" y="0" flags="0x4"/>
    </TTGlyph>
    <TTGlyph name="matamil" xMin="180" yMin="0" xMax="1633" yMax="1162">
      <contour>
        <pt x="180" y="0" on="1"/>
        <pt x="180" y="1134" on="1"/>
        <pt x="357" y="1134" on="1"/>
        <pt x="357" y="148" on="1"/>
        <pt x="819" y="148" on="1"/>
        <pt x="819" y="727" on="1"/>
        <pt x="819" y="892" on="0"/>
        <pt x="899" y="1071" on="0"/>
        <pt x="1063" y="1162" on="0"/>
        <pt x="1187" y="1162" on="1"/>
        <pt x="1402" y="1162" on="0"/>
        <pt x="1633" y="835" on="0"/>
        <pt x="1633" y="537" on="1"/>
        <pt x="1633" y="404" on="0"/>
        <pt x="1577" y="202" on="0"/>
        <pt x="1449" y="63" on="0"/>
        <pt x="1252" y="0" on="0"/>
        <pt x="1049" y="0" on="1"/>
      </contour>
      <contour>
        <pt x="996" y="148" on="1"/>
        <pt x="1092" y="148" on="1"/>
        <pt x="1225" y="148" on="0"/>
        <pt x="1380" y="218" on="0"/>
        <pt x="1453" y="384" on="0"/>
        <pt x="1453" y="546" on="1"/>
        <pt x="1453" y="766" on="0"/>
        <pt x="1313" y="1014" on="0"/>
        <pt x="1184" y="1014" on="1"/>
        <pt x="1113" y="1014" on="0"/>
        <pt x="1022" y="930" on="0"/>
        <pt x="996" y="802" on="0"/>
        <pt x="996" y="685" on="1"/>
      </contour>
    </TTGlyph>
    <TTGlyph name="mauuvowelsigntamil" xMin="139" yMin="-658" xMax="2399" yMax="1162">
      <contour>
        <pt x="1758" y="0" on="1"/>
        <pt x="1742" y="-283" on="0"/>
        <pt x="1382" y="-579" on="0"/>
        <pt x="1058" y="-579" on="1"/>
        <pt x="619" y="-579" on="0"/>
        <pt x="139" y="-30" on="0"/>
        <pt x="139" y="475" on="1"/>
        <pt x="139" y="790" on="0"/>
        <pt x="346" y="1159" on="0"/>
        <pt x="537" y="1159" on="1"/>
        <pt x="679" y="1159" on="0"/>
        <pt x="846" y="996" on="0"/>
        <pt x="846" y="863" on="1"/>
        <pt x="846" y="724" on="0"/>
        <pt x="673" y="560" on="0"/>
        <pt x="533" y="560" on="1"/>
        <pt x="416" y="560" on="0"/>
        <pt x="317" y="629" on="1"/>
        <pt x="310" y="558" on="0"/>
        <pt x="310" y="465" on="1"/>
        <pt x="310" y="45" on="0"/>
        <pt x="702" y="-421" on="0"/>
        <pt x="1047" y="-421" on="1"/>
        <pt x="1304" y="-421" on="0"/>
        <pt x="1563" y="-219" on="0"/>
        <pt x="1584" y="0" on="1"/>
        <pt x="946" y="0" on="1"/>
        <pt x="946" y="1134" on="1"/>
        <pt x="1123" y="1134" on="1"/>
        <pt x="1123" y="148" on="1"/>
        <pt x="1585" y="148" on="1"/>
        <pt x="1585" y="727" on="1"/>
        <pt x="1585" y="892" on="0"/>
        <pt x="1665" y="1071" on="0"/>
        <pt x="1829" y="1162" on="0"/>
        <pt x="1953" y="1162" on="1"/>
        <pt x="2168" y="1162" on="0"/>
        <pt x="2399" y="835" on="0"/>
        <pt x="2399" y="537" on="1"/>
        <pt x="2399" y="401" on="0"/>
        <pt x="2342" y="197" on="0"/>
        <pt x="2213" y="61" on="0"/>
        <pt x="2012" y="0" on="0"/>
        <pt x="1843" y="0" on="1"/>
      </contour>
      <contour>
        <pt x="342" y="781" on="1"/>
        <pt x="421" y="705" on="0"/>
        <pt x="508" y="705" on="1"/>
        <pt x="590" y="705" on="0"/>
        <pt x="678" y="790" on="0"/>
        <pt x="678" y="869" on="1"/>
        <pt x="678" y="940" on="0"/>
        <pt x="604" y="1020" on="0"/>
        <pt x="539" y="1020" on="1"/>
        <pt x="398" y="1020" on="0"/>
      </contour>
      <contour>
        <pt x="1762" y="148" on="1"/>
        <pt x="1858" y="148" on="1"/>
        <pt x="1991" y="148" on="0"/>
        <pt x="2146" y="218" on="0"/>
        <pt x="2219" y="384" on="0"/>
        <pt x="2219" y="546" on="1"/>
        <pt x="2219" y="766" on="0"/>
        <pt x="2079" y="1014" on="0"/>
        <pt x="1950" y="1014" on="1"/>
        <pt x="1879" y="1014" on="0"/>
        <pt x="1788" y="930" on="0"/>
        <pt x="1762" y="802" on="0"/>
        <pt x="1762" y="685" on="1"/>
      </contour>
      <contour>
        <pt x="911" y="-658" on="1"/>
      </contour>
    </TTGlyph>
    <TTGlyph name="mauvowelsigntamil" xMin="139" yMin="-658" xMax="2193" yMax="1162">
      <contour>
        <pt x="1551" y="0" on="1"/>
        <pt x="1527" y="-278" on="0"/>
        <pt x="1164" y="-579" on="0"/>
        <pt x="865" y="-579" on="1"/>
        <pt x="515" y="-579" on="0"/>
        <pt x="139" y="-155" on="0"/>
        <pt x="139" y="248" on="1"/>
        <pt x="139" y="303" on="1"/>
        <pt x="139" y="508" on="0"/>
        <pt x="284" y="934" on="0"/>
        <pt x="422" y="1134" on="1"/>
        <pt x="574" y="1045" on="1"/>
        <pt x="449" y="879" on="0"/>
        <pt x="316" y="496" on="0"/>
        <pt x="316" y="299" on="1"/>
        <pt x="316" y="265" on="1"/>
        <pt x="316" y="-77" on="0"/>
        <pt x="596" y="-421" on="0"/>
        <pt x="864" y="-421" on="1"/>
        <pt x="1096" y="-421" on="0"/>
        <pt x="1353" y="-210" on="0"/>
        <pt x="1377" y="0" on="1"/>
        <pt x="740" y="0" on="1"/>
        <pt x="740" y="1134" on="1"/>
        <pt x="918" y="1134" on="1"/>
        <pt x="918" y="148" on="1"/>
        <pt x="1379" y="148" on="1"/>
        <pt x="1379" y="727" on="1"/>
        <pt x="1379" y="892" on="0"/>
        <pt x="1459" y="1071" on="0"/>
        <pt x="1623" y="1162" on="0"/>
        <pt x="1747" y="1162" on="1"/>
        <pt x="1962" y="1162" on="0"/>
        <pt x="2193" y="835" on="0"/>
        <pt x="2193" y="537" on="1"/>
        <pt x="2193" y="406" on="0"/>
        <pt x="2139" y="205" on="0"/>
        <pt x="2012" y="65" on="0"/>
        <pt x="1810" y="0" on="0"/>
        <pt x="1638" y="0" on="1"/>
      </contour>
      <contour>
        <pt x="1557" y="148" on="1"/>
        <pt x="1652" y="148" on="1"/>
        <pt x="1785" y="148" on="0"/>
        <pt x="1940" y="218" on="0"/>
        <pt x="2013" y="384" on="0"/>
        <pt x="2013" y="546" on="1"/>
        <pt x="2013" y="766" on="0"/>
        <pt x="1873" y="1014" on="0"/>
        <pt x="1744" y="1014" on="1"/>
        <pt x="1675" y="1014" on="0"/>
        <pt x="1587" y="937" on="0"/>
        <pt x="1557" y="816" on="0"/>
        <pt x="1557" y="685" on="1"/>
      </contour>
      <contour>
        <pt x="911" y="-658" on="1"/>
      </contour>
    </TTGlyph>
    <TTGlyph name="minus.tamil" xMin="103" yMin="0" xMax="1068" yMax="1463">
      <contour>
        <pt x="103" y="649" on="1"/>
        <pt x="103" y="795" on="1"/>
        <pt x="1068" y="795" on="1"/>
        <pt x="1068" y="649" on="1"/>
      </contour>
      <contour>
        <pt x="580" y="0" on="1"/>
      </contour>
      <contour>
        <pt x="591" y="1463" on="1"/>
      </contour>
    </TTGlyph>
    <TTGlyph name="monthsigntamil" xMin="180" yMin="0" xMax="2563" yMax="1726">
      <contour>
        <pt x="1481" y="1324" on="1"/>
        <pt x="1423" y="1303" on="0"/>
        <pt x="1358" y="1203" on="0"/>
        <pt x="1358" y="1134" on="1"/>
        <pt x="1358" y="1129" on="1"/>
        <pt x="1491" y="1072" on="0"/>
        <pt x="1633" y="769" on="0"/>
        <pt x="1633" y="537" on="1"/>
        <pt x="1633" y="404" on="0"/>
        <pt x="1577" y="202" on="0"/>
        <pt x="1449" y="63" on="0"/>
        <pt x="1252" y="0" on="0"/>
        <pt x="1049" y="0" on="1"/>
        <pt x="180" y="0" on="1"/>
        <pt x="180" y="1134" on="1"/>
        <pt x="357" y="1134" on="1"/>
        <pt x="357" y="148" on="1"/>
        <pt x="819" y="148" on="1"/>
        <pt x="819" y="727" on="1"/>
        <pt x="819" y="892" on="0"/>
        <pt x="899" y="1071" on="0"/>
        <pt x="1063" y="1162" on="0"/>
        <pt x="1187" y="1162" on="1"/>
        <pt x="1207" y="1162" on="0"/>
        <pt x="1225" y="1160" on="1"/>
        <pt x="1240" y="1274" on="0"/>
        <pt x="1376" y="1413" on="0"/>
        <pt x="1497" y="1439" on="1"/>
        <pt x="1535" y="1575" on="0"/>
        <pt x="1764" y="1726" on="0"/>
        <pt x="1910" y="1726" on="1"/>
        <pt x="2103" y="1726" on="0"/>
        <pt x="2324" y="1533" on="0"/>
        <pt x="2324" y="1371" on="1"/>
        <pt x="2324" y="1235" on="0"/>
        <pt x="2267" y="1134" on="1"/>
        <pt x="2563" y="1134" on="1"/>
        <pt x="2563" y="1016" on="1"/>
        <pt x="2100" y="1016" on="1"/>
        <pt x="2100" y="1094" on="1"/>
        <pt x="2139" y="1163" on="0"/>
        <pt x="2170" y="1280" on="0"/>
        <pt x="2170" y="1348" on="1"/>
        <pt x="2170" y="1466" on="0"/>
        <pt x="2033" y="1606" on="0"/>
        <pt x="1915" y="1606" on="1"/>
        <pt x="1815" y="1606" on="0"/>
        <pt x="1670" y="1524" on="0"/>
        <pt x="1638" y="1452" on="1"/>
        <pt x="1689" y="1452" on="1"/>
        <pt x="1797" y="1452" on="0"/>
        <pt x="1916" y="1400" on="0"/>
        <pt x="1973" y="1310" on="0"/>
        <pt x="1973" y="1236" on="1"/>
        <pt x="1973" y="1132" on="0"/>
        <pt x="1848" y="1011" on="0"/>
        <pt x="1746" y="1011" on="1"/>
        <pt x="1628" y="1011" on="0"/>
        <pt x="1481" y="1173" on="0"/>
        <pt x="1481" y="1315" on="1"/>
      </contour>
      <contour>
        <pt x="1612" y="1340" on="1"/>
        <pt x="1611" y="1326" on="1"/>
        <pt x="1610" y="1306" on="0"/>
        <pt x="1620" y="1202" on="0"/>
        <pt x="1681" y="1131" on="0"/>
        <pt x="1741" y="1131" on="1"/>
        <pt x="1790" y="1131" on="0"/>
        <pt x="1846" y="1181" on="0"/>
        <pt x="1846" y="1228" on="1"/>
        <pt x="1846" y="1288" on="0"/>
        <pt x="1770" y="1340" on="0"/>
        <pt x="1671" y="1340" on="1"/>
      </contour>
      <contour>
        <pt x="996" y="148" on="1"/>
        <pt x="1092" y="148" on="1"/>
        <pt x="1225" y="148" on="0"/>
        <pt x="1380" y="218" on="0"/>
        <pt x="1453" y="384" on="0"/>
        <pt x="1453" y="546" on="1"/>
        <pt x="1453" y="766" on="0"/>
        <pt x="1313" y="1014" on="0"/>
        <pt x="1184" y="1014" on="1"/>
        <pt x="1113" y="1014" on="0"/>
        <pt x="1022" y="930" on="0"/>
        <pt x="996" y="802" on="0"/>
        <pt x="996" y="685" on="1"/>
      </contour>
    </TTGlyph>
    <TTGlyph name="multiply.tamil" xMin="133" yMin="0" xMax="1038" yMax="1463">
      <contour>
        <pt x="586" y="825" on="1"/>
        <pt x="936" y="1176" on="1"/>
        <pt x="1038" y="1071" on="1"/>
        <pt x="690" y="723" on="1"/>
        <pt x="1036" y="375" on="1"/>
        <pt x="934" y="270" on="1"/>
        <pt x="584" y="616" on="1"/>
        <pt x="242" y="270" on="1"/>
        <pt x="135" y="375" on="1"/>
        <pt x="481" y="723" on="1"/>
        <pt x="133" y="1069" on="1"/>
        <pt x="240" y="1176" on="1"/>
      </contour>
      <contour>
        <pt x="580" y="0" on="1"/>
      </contour>
      <contour>
        <pt x="591" y="1463" on="1"/>
      </contour>
    </TTGlyph>
    <TTGlyph name="naprehalftamil" xMin="97" yMin="-658" xMax="1517" yMax="1726">
      <component glyphName="natamil" x="0" y="0" flags="0x204"/>
      <component glyphName="viramatamil" x="1378" y="0" flags="0x4"/>
    </TTGlyph>
    <TTGlyph name="natamil" xMin="97" yMin="-658" xMax="1517" yMax="1134">
      <contour>
        <pt x="281" y="-650" on="1"/>
        <pt x="110" y="-658" on="1"/>
        <pt x="97" y="-564" on="0"/>
        <pt x="97" y="-498" on="1"/>
        <pt x="97" y="-395" on="0"/>
        <pt x="186" y="-250" on="0"/>
        <pt x="353" y="-172" on="0"/>
        <pt x="501" y="-172" on="1"/>
        <pt x="647" y="-172" on="1"/>
        <pt x="946" y="-172" on="0"/>
        <pt x="1213" y="-89" on="0"/>
        <pt x="1340" y="96" on="0"/>
        <pt x="1340" y="277" on="1"/>
        <pt x="1340" y="429" on="0"/>
        <pt x="1224" y="593" on="0"/>
        <pt x="1118" y="593" on="1"/>
        <pt x="1003" y="593" on="0"/>
        <pt x="891" y="505" on="1"/>
        <pt x="891" y="0" on="1"/>
        <pt x="713" y="0" on="1"/>
        <pt x="713" y="986" on="1"/>
        <pt x="357" y="986" on="1"/>
        <pt x="357" y="0" on="1"/>
        <pt x="180" y="0" on="1"/>
        <pt x="180" y="1134" on="1"/>
        <pt x="1248" y="1134" on="1"/>
        <pt x="1248" y="986" on="1"/>
        <pt x="891" y="986" on="1"/>
        <pt x="891" y="664" on="1"/>
        <pt x="966" y="711" on="0"/>
        <pt x="1082" y="742" on="0"/>
        <pt x="1146" y="742" on="1"/>
        <pt x="1309" y="742" on="0"/>
        <pt x="1517" y="492" on="0"/>
        <pt x="1517" y="279" on="1"/>
        <pt x="1517" y="120" on="0"/>
        <pt x="1434" y="-96" on="0"/>
        <pt x="1246" y="-250" on="0"/>
        <pt x="965" y="-320" on="0"/>
        <pt x="710" y="-320" on="1"/>
        <pt x="556" y="-320" on="1"/>
        <pt x="440" y="-320" on="0"/>
        <pt x="328" y="-367" on="0"/>
        <pt x="274" y="-457" on="0"/>
        <pt x="274" y="-538" on="1"/>
        <pt x="274" y="-608" on="0"/>
      </contour>
    </TTGlyph>
    <TTGlyph name="nauuvowelsigntamil" xMin="80" yMin="-658" xMax="2878" yMax="1134">
      <contour>
        <pt x="2521" y="-320" on="1"/>
        <pt x="2343" y="-320" on="1"/>
        <pt x="2343" y="986" on="1"/>
        <pt x="1987" y="986" on="1"/>
        <pt x="1987" y="-320" on="1"/>
        <pt x="1356" y="-320" on="1"/>
        <pt x="1239" y="-486" on="0"/>
        <pt x="844" y="-658" on="0"/>
        <pt x="582" y="-658" on="1"/>
        <pt x="545" y="-658" on="1"/>
        <pt x="338" y="-658" on="0"/>
        <pt x="80" y="-490" on="0"/>
        <pt x="80" y="-343" on="1"/>
        <pt x="80" y="-281" on="0"/>
        <pt x="141" y="-203" on="0"/>
        <pt x="237" y="-172" on="0"/>
        <pt x="339" y="-172" on="1"/>
        <pt x="1241" y="-172" on="1"/>
        <pt x="1335" y="5" on="0"/>
        <pt x="1335" y="256" on="1"/>
        <pt x="1335" y="424" on="0"/>
        <pt x="1220" y="593" on="0"/>
        <pt x="1115" y="593" on="1"/>
        <pt x="1001" y="593" on="0"/>
        <pt x="891" y="505" on="1"/>
        <pt x="891" y="0" on="1"/>
        <pt x="713" y="0" on="1"/>
        <pt x="713" y="986" on="1"/>
        <pt x="357" y="986" on="1"/>
        <pt x="357" y="0" on="1"/>
        <pt x="180" y="0" on="1"/>
        <pt x="180" y="1134" on="1"/>
        <pt x="1248" y="1134" on="1"/>
        <pt x="1248" y="986" on="1"/>
        <pt x="891" y="986" on="1"/>
        <pt x="891" y="664" on="1"/>
        <pt x="966" y="711" on="0"/>
        <pt x="1082" y="742" on="0"/>
        <pt x="1146" y="742" on="1"/>
        <pt x="1311" y="742" on="0"/>
        <pt x="1517" y="485" on="0"/>
        <pt x="1517" y="262" on="1"/>
        <pt x="1517" y="20" on="0"/>
        <pt x="1432" y="-172" on="1"/>
        <pt x="1809" y="-172" on="1"/>
        <pt x="1809" y="1134" on="1"/>
        <pt x="2878" y="1134" on="1"/>
        <pt x="2878" y="986" on="1"/>
        <pt x="2521" y="986" on="1"/>
      </contour>
      <contour>
        <pt x="1156" y="-320" on="1"/>
        <pt x="322" y="-320" on="1"/>
        <pt x="295" y="-320" on="0"/>
        <pt x="267" y="-327" on="0"/>
        <pt x="249" y="-350" on="0"/>
        <pt x="249" y="-369" on="1"/>
        <pt x="249" y="-432" on="0"/>
        <pt x="419" y="-509" on="0"/>
        <pt x="571" y="-509" on="1"/>
        <pt x="591" y="-509" on="1"/>
        <pt x="781" y="-509" on="0"/>
        <pt x="1055" y="-417" on="0"/>
      </contour>
    </TTGlyph>
    <TTGlyph name="nauvowelsigntamil" xMin="80" yMin="-658" xMax="1987" yMax="1134">
      <contour>
        <pt x="1987" y="1134" on="1"/>
        <pt x="1987" y="-320" on="1"/>
        <pt x="1356" y="-320" on="1"/>
        <pt x="1239" y="-486" on="0"/>
        <pt x="844" y="-658" on="0"/>
        <pt x="582" y="-658" on="1"/>
        <pt x="545" y="-658" on="1"/>
        <pt x="338" y="-658" on="0"/>
        <pt x="80" y="-490" on="0"/>
        <pt x="80" y="-343" on="1"/>
        <pt x="80" y="-281" on="0"/>
        <pt x="141" y="-203" on="0"/>
        <pt x="237" y="-172" on="0"/>
        <pt x="339" y="-172" on="1"/>
        <pt x="1241" y="-172" on="1"/>
        <pt x="1335" y="5" on="0"/>
        <pt x="1335" y="256" on="1"/>
        <pt x="1335" y="424" on="0"/>
        <pt x="1220" y="593" on="0"/>
        <pt x="1115" y="593" on="1"/>
        <pt x="1001" y="593" on="0"/>
        <pt x="891" y="505" on="1"/>
        <pt x="891" y="0" on="1"/>
        <pt x="713" y="0" on="1"/>
        <pt x="713" y="986" on="1"/>
        <pt x="357" y="986" on="1"/>
        <pt x="357" y="0" on="1"/>
        <pt x="180" y="0" on="1"/>
        <pt x="180" y="1134" on="1"/>
        <pt x="1248" y="1134" on="1"/>
        <pt x="1248" y="986" on="1"/>
        <pt x="891" y="986" on="1"/>
        <pt x="891" y="664" on="1"/>
        <pt x="966" y="711" on="0"/>
        <pt x="1082" y="742" on="0"/>
        <pt x="1146" y="742" on="1"/>
        <pt x="1311" y="742" on="0"/>
        <pt x="1517" y="485" on="0"/>
        <pt x="1517" y="262" on="1"/>
        <pt x="1517" y="20" on="0"/>
        <pt x="1432" y="-172" on="1"/>
        <pt x="1809" y="-172" on="1"/>
        <pt x="1809" y="1134" on="1"/>
      </contour>
      <contour>
        <pt x="1156" y="-320" on="1"/>
        <pt x="322" y="-320" on="1"/>
        <pt x="295" y="-320" on="0"/>
        <pt x="267" y="-327" on="0"/>
        <pt x="249" y="-350" on="0"/>
        <pt x="249" y="-369" on="1"/>
        <pt x="249" y="-432" on="0"/>
        <pt x="419" y="-509" on="0"/>
        <pt x="571" y="-509" on="1"/>
        <pt x="591" y="-509" on="1"/>
        <pt x="781" y="-509" on="0"/>
        <pt x="1055" y="-417" on="0"/>
      </contour>
    </TTGlyph>
    <TTGlyph name="ngaiivowelsigntamil" xMin="180" yMin="0" xMax="2143" yMax="1726">
      <contour>
        <pt x="180" y="1134" on="1"/>
        <pt x="1180" y="1134" on="1"/>
        <pt x="1180" y="986" on="1"/>
        <pt x="881" y="986" on="1"/>
        <pt x="881" y="656" on="1"/>
        <pt x="1002" y="742" on="0"/>
        <pt x="1142" y="742" on="1"/>
        <pt x="1295" y="742" on="0"/>
        <pt x="1479" y="572" on="0"/>
        <pt x="1479" y="433" on="1"/>
        <pt x="1479" y="264" on="0"/>
        <pt x="1383" y="148" on="1"/>
        <pt x="1781" y="148" on="1"/>
        <pt x="1781" y="799" on="1"/>
        <pt x="1535" y="824" on="0"/>
        <pt x="1262" y="1075" on="0"/>
        <pt x="1262" y="1276" on="1"/>
        <pt x="1262" y="1406" on="0"/>
        <pt x="1385" y="1613" on="0"/>
        <pt x="1622" y="1726" on="0"/>
        <pt x="1785" y="1726" on="1"/>
        <pt x="1954" y="1726" on="0"/>
        <pt x="2143" y="1588" on="0"/>
        <pt x="2143" y="1470" on="1"/>
        <pt x="2143" y="1352" on="0"/>
        <pt x="1998" y="1218" on="0"/>
        <pt x="1876" y="1218" on="1"/>
        <pt x="1755" y="1218" on="0"/>
        <pt x="1612" y="1340" on="0"/>
        <pt x="1612" y="1444" on="1"/>
        <pt x="1612" y="1513" on="0"/>
        <pt x="1640" y="1576" on="1"/>
        <pt x="1533" y="1545" on="0"/>
        <pt x="1420" y="1391" on="0"/>
        <pt x="1420" y="1283" on="1"/>
        <pt x="1420" y="1137" on="0"/>
        <pt x="1605" y="965" on="0"/>
        <pt x="1781" y="945" on="1"/>
        <pt x="1781" y="1134" on="1"/>
        <pt x="1959" y="1134" on="1"/>
        <pt x="1959" y="0" on="1"/>
        <pt x="704" y="0" on="1"/>
        <pt x="704" y="148" on="1"/>
        <pt x="1187" y="148" on="1"/>
        <pt x="1247" y="208" on="0"/>
        <pt x="1302" y="331" on="0"/>
        <pt x="1302" y="403" on="1"/>
        <pt x="1302" y="495" on="0"/>
        <pt x="1201" y="593" on="0"/>
        <pt x="1112" y="593" on="1"/>
        <pt x="997" y="593" on="0"/>
        <pt x="881" y="504" on="1"/>
        <pt x="881" y="294" on="1"/>
        <pt x="704" y="294" on="1"/>
        <pt x="704" y="986" on="1"/>
        <pt x="357" y="986" on="1"/>
        <pt x="357" y="0" on="1"/>
        <pt x="180" y="0" on="1"/>
      </contour>
      <contour>
        <pt x="1784" y="1596" on="1"/>
        <pt x="1748" y="1539" on="0"/>
        <pt x="1748" y="1472" on="1"/>
        <pt x="1748" y="1409" on="0"/>
        <pt x="1815" y="1344" on="0"/>
        <pt x="1876" y="1344" on="1"/>
        <pt x="1934" y="1344" on="0"/>
        <pt x="2000" y="1409" on="0"/>
        <pt x="2000" y="1462" on="1"/>
        <pt x="2000" y="1528" on="0"/>
        <pt x="1895" y="1596" on="0"/>
        <pt x="1799" y="1596" on="1"/>
      </contour>
    </TTGlyph>
    <TTGlyph name="ngaprehalftamil" xMin="180" yMin="0" xMax="1959" yMax="1726">
      <component glyphName="ngatamil" x="0" y="0" flags="0x204"/>
      <component glyphName="viramatamil" x="1639" y="0" flags="0x4"/>
    </TTGlyph>
    <TTGlyph name="ngatamil" xMin="180" yMin="0" xMax="1959" yMax="1134">
      <contour>
        <pt x="180" y="1134" on="1"/>
        <pt x="1238" y="1134" on="1"/>
        <pt x="1238" y="986" on="1"/>
        <pt x="881" y="986" on="1"/>
        <pt x="881" y="656" on="1"/>
        <pt x="1002" y="742" on="0"/>
        <pt x="1142" y="742" on="1"/>
        <pt x="1295" y="742" on="0"/>
        <pt x="1479" y="572" on="0"/>
        <pt x="1479" y="433" on="1"/>
        <pt x="1479" y="264" on="0"/>
        <pt x="1383" y="148" on="1"/>
        <pt x="1781" y="148" on="1"/>
        <pt x="1781" y="1134" on="1"/>
        <pt x="1959" y="1134" on="1"/>
        <pt x="1959" y="0" on="1"/>
        <pt x="704" y="0" on="1"/>
        <pt x="704" y="148" on="1"/>
        <pt x="1187" y="148" on="1"/>
        <pt x="1247" y="208" on="0"/>
        <pt x="1302" y="331" on="0"/>
        <pt x="1302" y="403" on="1"/>
        <pt x="1302" y="495" on="0"/>
        <pt x="1201" y="593" on="0"/>
        <pt x="1112" y="593" on="1"/>
        <pt x="997" y="593" on="0"/>
        <pt x="881" y="504" on="1"/>
        <pt x="881" y="294" on="1"/>
        <pt x="704" y="294" on="1"/>
        <pt x="704" y="986" on="1"/>
        <pt x="357" y="986" on="1"/>
        <pt x="357" y="0" on="1"/>
        <pt x="180" y="0" on="1"/>
      </contour>
    </TTGlyph>
    <TTGlyph name="ngauuvowelsigntamil" xMin="170" yMin="-658" xMax="2476" yMax="1134">
      <contour>
        <pt x="180" y="1134" on="1"/>
        <pt x="1238" y="1134" on="1"/>
        <pt x="1238" y="986" on="1"/>
        <pt x="881" y="986" on="1"/>
        <pt x="881" y="656" on="1"/>
        <pt x="1002" y="742" on="0"/>
        <pt x="1142" y="742" on="1"/>
        <pt x="1295" y="742" on="0"/>
        <pt x="1479" y="572" on="0"/>
        <pt x="1479" y="433" on="1"/>
        <pt x="1479" y="264" on="0"/>
        <pt x="1383" y="148" on="1"/>
        <pt x="1781" y="148" on="1"/>
        <pt x="1781" y="1134" on="1"/>
        <pt x="1959" y="1134" on="1"/>
        <pt x="1959" y="149" on="1"/>
        <pt x="2047" y="206" on="0"/>
        <pt x="2166" y="206" on="1"/>
        <pt x="2304" y="206" on="0"/>
        <pt x="2476" y="42" on="0"/>
        <pt x="2476" y="-100" on="1"/>
        <pt x="2476" y="-385" on="0"/>
        <pt x="1866" y="-658" on="0"/>
        <pt x="1221" y="-658" on="1"/>
        <pt x="1117" y="-658" on="1"/>
        <pt x="638" y="-658" on="0"/>
        <pt x="170" y="-515" on="0"/>
        <pt x="170" y="-345" on="1"/>
        <pt x="170" y="-241" on="0"/>
        <pt x="354" y="-118" on="0"/>
        <pt x="528" y="-118" on="1"/>
        <pt x="688" y="-118" on="0"/>
        <pt x="859" y="-160" on="1"/>
        <pt x="827" y="-308" on="1"/>
        <pt x="650" y="-264" on="0"/>
        <pt x="536" y="-264" on="1"/>
        <pt x="437" y="-264" on="0"/>
        <pt x="346" y="-302" on="0"/>
        <pt x="346" y="-349" on="1"/>
        <pt x="346" y="-428" on="0"/>
        <pt x="761" y="-509" on="0"/>
        <pt x="1172" y="-509" on="1"/>
        <pt x="1199" y="-509" on="1"/>
        <pt x="1763" y="-509" on="0"/>
        <pt x="2304" y="-313" on="0"/>
        <pt x="2304" y="-105" on="1"/>
        <pt x="2304" y="63" on="0"/>
        <pt x="2135" y="63" on="1"/>
        <pt x="2044" y="63" on="0"/>
        <pt x="1959" y="0" on="1"/>
        <pt x="1959" y="-304" on="1"/>
        <pt x="1781" y="-304" on="1"/>
        <pt x="1781" y="0" on="1"/>
        <pt x="704" y="0" on="1"/>
        <pt x="704" y="148" on="1"/>
        <pt x="1187" y="148" on="1"/>
        <pt x="1247" y="208" on="0"/>
        <pt x="1302" y="331" on="0"/>
        <pt x="1302" y="403" on="1"/>
        <pt x="1302" y="495" on="0"/>
        <pt x="1201" y="593" on="0"/>
        <pt x="1112" y="593" on="1"/>
        <pt x="997" y="593" on="0"/>
        <pt x="881" y="504" on="1"/>
        <pt x="881" y="294" on="1"/>
        <pt x="704" y="294" on="1"/>
        <pt x="704" y="986" on="1"/>
        <pt x="357" y="986" on="1"/>
        <pt x="357" y="0" on="1"/>
        <pt x="180" y="0" on="1"/>
      </contour>
    </TTGlyph>
    <TTGlyph name="ngauvowelsigntamil" xMin="180" yMin="-658" xMax="1959" yMax="1134">
      <contour>
        <pt x="180" y="1134" on="1"/>
        <pt x="1238" y="1134" on="1"/>
        <pt x="1238" y="986" on="1"/>
        <pt x="881" y="986" on="1"/>
        <pt x="881" y="656" on="1"/>
        <pt x="1002" y="742" on="0"/>
        <pt x="1142" y="742" on="1"/>
        <pt x="1295" y="742" on="0"/>
        <pt x="1479" y="572" on="0"/>
        <pt x="1479" y="433" on="1"/>
        <pt x="1479" y="264" on="0"/>
        <pt x="1383" y="148" on="1"/>
        <pt x="1781" y="148" on="1"/>
        <pt x="1781" y="1134" on="1"/>
        <pt x="1959" y="1134" on="1"/>
        <pt x="1959" y="-580" on="1"/>
        <pt x="1781" y="-580" on="1"/>
        <pt x="1781" y="0" on="1"/>
        <pt x="704" y="0" on="1"/>
        <pt x="704" y="148" on="1"/>
        <pt x="1187" y="148" on="1"/>
        <pt x="1247" y="208" on="0"/>
        <pt x="1302" y="331" on="0"/>
        <pt x="1302" y="403" on="1"/>
        <pt x="1302" y="495" on="0"/>
        <pt x="1201" y="593" on="0"/>
        <pt x="1112" y="593" on="1"/>
        <pt x="997" y="593" on="0"/>
        <pt x="881" y="504" on="1"/>
        <pt x="881" y="294" on="1"/>
        <pt x="704" y="294" on="1"/>
        <pt x="704" y="986" on="1"/>
        <pt x="357" y="986" on="1"/>
        <pt x="357" y="0" on="1"/>
        <pt x="180" y="0" on="1"/>
      </contour>
      <contour>
        <pt x="1821" y="-658" on="1"/>
      </contour>
    </TTGlyph>
    <TTGlyph name="nine.tamil" xMin="99" yMin="-20" xMax="1061" yMax="1483">
      <contour>
        <pt x="205" y="0" on="1"/>
        <pt x="205" y="154" on="1"/>
        <pt x="288" y="127" on="0"/>
        <pt x="385" y="127" on="1"/>
        <pt x="624" y="127" on="0"/>
        <pt x="868" y="414" on="0"/>
        <pt x="879" y="717" on="1"/>
        <pt x="867" y="717" on="1"/>
        <pt x="755" y="547" on="0"/>
        <pt x="518" y="547" on="1"/>
        <pt x="324" y="547" on="0"/>
        <pt x="99" y="784" on="0"/>
        <pt x="99" y="989" on="1"/>
        <pt x="99" y="1216" on="0"/>
        <pt x="352" y="1483" on="0"/>
        <pt x="566" y="1483" on="1"/>
        <pt x="791" y="1483" on="0"/>
        <pt x="1061" y="1143" on="0"/>
        <pt x="1061" y="838" on="1"/>
        <pt x="1061" y="409" on="0"/>
        <pt x="725" y="-20" on="0"/>
        <pt x="389" y="-20" on="1"/>
        <pt x="342" y="-20" on="0"/>
        <pt x="233" y="-9" on="0"/>
      </contour>
      <contour>
        <pt x="277" y="991" on="1"/>
        <pt x="277" y="845" on="0"/>
        <pt x="420" y="690" on="0"/>
        <pt x="557" y="690" on="1"/>
        <pt x="645" y="690" on="0"/>
        <pt x="794" y="762" on="0"/>
        <pt x="879" y="889" on="0"/>
        <pt x="879" y="957" on="1"/>
        <pt x="878" y="1052" on="0"/>
        <pt x="802" y="1228" on="0"/>
        <pt x="659" y="1331" on="0"/>
        <pt x="566" y="1331" on="1"/>
        <pt x="429" y="1331" on="0"/>
        <pt x="277" y="1153" on="0"/>
      </contour>
    </TTGlyph>
    <TTGlyph name="ninetamil" xMin="100" yMin="-24" xMax="2265" yMax="1134">
      <contour>
        <pt x="327" y="1134" on="1"/>
        <pt x="1398" y="1134" on="1"/>
        <pt x="1398" y="986" on="1"/>
        <pt x="1015" y="986" on="1"/>
        <pt x="1015" y="672" on="1"/>
        <pt x="1353" y="672" on="1"/>
        <pt x="1383" y="672" on="0"/>
        <pt x="1410" y="670" on="1"/>
        <pt x="1563" y="791" on="0"/>
        <pt x="1775" y="791" on="1"/>
        <pt x="2007" y="791" on="0"/>
        <pt x="2265" y="562" on="0"/>
        <pt x="2265" y="366" on="1"/>
        <pt x="2265" y="264" on="0"/>
        <pt x="2205" y="85" on="0"/>
        <pt x="2130" y="-24" on="1"/>
        <pt x="1988" y="63" on="1"/>
        <pt x="2041" y="137" on="0"/>
        <pt x="2088" y="273" on="0"/>
        <pt x="2088" y="355" on="1"/>
        <pt x="2088" y="493" on="0"/>
        <pt x="1919" y="648" on="0"/>
        <pt x="1772" y="648" on="1"/>
        <pt x="1667" y="648" on="0"/>
        <pt x="1600" y="625" on="1"/>
        <pt x="1730" y="581" on="0"/>
        <pt x="1860" y="409" on="0"/>
        <pt x="1860" y="287" on="1"/>
        <pt x="1860" y="137" on="0"/>
        <pt x="1708" y="-24" on="0"/>
        <pt x="1566" y="-24" on="1"/>
        <pt x="1414" y="-24" on="0"/>
        <pt x="1237" y="149" on="0"/>
        <pt x="1237" y="312" on="1"/>
        <pt x="1237" y="428" on="0"/>
        <pt x="1301" y="529" on="1"/>
        <pt x="1015" y="529" on="1"/>
        <pt x="1015" y="462" on="1"/>
        <pt x="1015" y="255" on="0"/>
        <pt x="894" y="60" on="0"/>
        <pt x="689" y="-23" on="0"/>
        <pt x="535" y="-23" on="1"/>
        <pt x="344" y="-23" on="0"/>
        <pt x="100" y="162" on="0"/>
        <pt x="100" y="318" on="1"/>
        <pt x="100" y="427" on="0"/>
        <pt x="213" y="578" on="0"/>
        <pt x="327" y="621" on="1"/>
      </contour>
      <contour>
        <pt x="841" y="986" on="1"/>
        <pt x="488" y="986" on="1"/>
        <pt x="488" y="660" on="1"/>
        <pt x="572" y="672" on="0"/>
        <pt x="679" y="672" on="1"/>
        <pt x="841" y="672" on="1"/>
      </contour>
      <contour>
        <pt x="665" y="529" on="1"/>
        <pt x="460" y="529" on="0"/>
        <pt x="277" y="430" on="0"/>
        <pt x="277" y="314" on="1"/>
        <pt x="277" y="225" on="0"/>
        <pt x="423" y="125" on="0"/>
        <pt x="550" y="125" on="1"/>
        <pt x="708" y="125" on="0"/>
        <pt x="841" y="277" on="0"/>
        <pt x="841" y="436" on="1"/>
        <pt x="841" y="529" on="1"/>
      </contour>
      <contour>
        <pt x="1465" y="524" on="1"/>
        <pt x="1391" y="436" on="0"/>
        <pt x="1391" y="297" on="1"/>
        <pt x="1391" y="208" on="0"/>
        <pt x="1483" y="115" on="0"/>
        <pt x="1568" y="115" on="1"/>
        <pt x="1632" y="115" on="0"/>
        <pt x="1703" y="205" on="0"/>
        <pt x="1703" y="281" on="1"/>
        <pt x="1703" y="385" on="0"/>
        <pt x="1569" y="509" on="0"/>
      </contour>
    </TTGlyph>
    <TTGlyph name="nnaprehalftamil" xMin="117" yMin="-24" xMax="3343" yMax="1726">
      <component glyphName="nnatamil" x="0" y="0" flags="0x204"/>
      <component glyphName="viramatamil" x="2258" y="0" flags="0x4"/>
    </TTGlyph>
    <TTGlyph name="nnatamil" xMin="117" yMin="-24" xMax="3343" yMax="1162">
      <contour>
        <pt x="1451" y="929" on="1"/>
        <pt x="1569" y="820" on="0"/>
        <pt x="1689" y="546" on="0"/>
        <pt x="1689" y="388" on="1"/>
        <pt x="1689" y="190" on="0"/>
        <pt x="1516" y="-24" on="0"/>
        <pt x="1357" y="-24" on="1"/>
        <pt x="1194" y="-24" on="0"/>
        <pt x="1018" y="189" on="0"/>
        <pt x="1018" y="381" on="1"/>
        <pt x="1018" y="541" on="0"/>
        <pt x="1115" y="807" on="0"/>
        <pt x="1213" y="914" on="1"/>
        <pt x="1128" y="962" on="0"/>
        <pt x="921" y="1010" on="0"/>
        <pt x="815" y="1010" on="1"/>
        <pt x="604" y="1010" on="0"/>
        <pt x="324" y="790" on="0"/>
        <pt x="288" y="595" on="1"/>
        <pt x="406" y="672" on="0"/>
        <pt x="534" y="672" on="1"/>
        <pt x="686" y="672" on="0"/>
        <pt x="865" y="492" on="0"/>
        <pt x="865" y="337" on="1"/>
        <pt x="865" y="170" on="0"/>
        <pt x="679" y="-24" on="0"/>
        <pt x="518" y="-24" on="1"/>
        <pt x="337" y="-24" on="0"/>
        <pt x="117" y="249" on="0"/>
        <pt x="117" y="502" on="1"/>
        <pt x="117" y="699" on="0"/>
        <pt x="295" y="1000" on="0"/>
        <pt x="621" y="1162" on="0"/>
        <pt x="835" y="1162" on="1"/>
        <pt x="1110" y="1162" on="0"/>
        <pt x="1331" y="1022" on="1"/>
        <pt x="1525" y="1162" on="0"/>
        <pt x="1773" y="1162" on="1"/>
        <pt x="2017" y="1162" on="0"/>
        <pt x="2207" y="1027" on="1"/>
        <pt x="2308" y="1086" on="0"/>
        <pt x="2549" y="1134" on="0"/>
        <pt x="2721" y="1134" on="1"/>
        <pt x="3343" y="1134" on="1"/>
        <pt x="3343" y="986" on="1"/>
        <pt x="2995" y="986" on="1"/>
        <pt x="2995" y="0" on="1"/>
        <pt x="2817" y="0" on="1"/>
        <pt x="2817" y="986" on="1"/>
        <pt x="2674" y="986" on="1"/>
        <pt x="2541" y="986" on="0"/>
        <pt x="2387" y="956" on="0"/>
        <pt x="2327" y="925" on="1"/>
        <pt x="2432" y="818" on="0"/>
        <pt x="2538" y="542" on="0"/>
        <pt x="2538" y="388" on="1"/>
        <pt x="2538" y="190" on="0"/>
        <pt x="2365" y="-24" on="0"/>
        <pt x="2206" y="-24" on="1"/>
        <pt x="2043" y="-24" on="0"/>
        <pt x="1867" y="189" on="0"/>
        <pt x="1867" y="381" on="1"/>
        <pt x="1867" y="543" on="0"/>
        <pt x="1978" y="826" on="0"/>
        <pt x="2082" y="928" on="1"/>
        <pt x="1944" y="1010" on="0"/>
        <pt x="1777" y="1010" on="1"/>
        <pt x="1588" y="1010" on="0"/>
      </contour>
      <contour>
        <pt x="2199" y="837" on="1"/>
        <pt x="2123" y="758" on="0"/>
        <pt x="2040" y="520" on="0"/>
        <pt x="2040" y="388" on="1"/>
        <pt x="2040" y="252" on="0"/>
        <pt x="2123" y="115" on="0"/>
        <pt x="2200" y="115" on="1"/>
        <pt x="2280" y="115" on="0"/>
        <pt x="2364" y="252" on="0"/>
        <pt x="2364" y="372" on="1"/>
        <pt x="2364" y="508" on="0"/>
        <pt x="2279" y="750" on="0"/>
      </contour>
      <contour>
        <pt x="1332" y="830" on="1"/>
        <pt x="1265" y="752" on="0"/>
        <pt x="1191" y="521" on="0"/>
        <pt x="1191" y="388" on="1"/>
        <pt x="1191" y="252" on="0"/>
        <pt x="1274" y="115" on="0"/>
        <pt x="1351" y="115" on="1"/>
        <pt x="1431" y="115" on="0"/>
        <pt x="1515" y="252" on="0"/>
        <pt x="1515" y="372" on="1"/>
        <pt x="1515" y="508" on="0"/>
        <pt x="1420" y="747" on="0"/>
      </contour>
      <contour>
        <pt x="280" y="434" on="1"/>
        <pt x="289" y="277" on="0"/>
        <pt x="415" y="115" on="0"/>
        <pt x="522" y="115" on="1"/>
        <pt x="601" y="115" on="0"/>
        <pt x="697" y="221" on="0"/>
        <pt x="697" y="318" on="1"/>
        <pt x="697" y="416" on="0"/>
        <pt x="592" y="528" on="0"/>
        <pt x="505" y="528" on="1"/>
        <pt x="392" y="528" on="0"/>
      </contour>
    </TTGlyph>
    <TTGlyph name="nnauuvowelsigntamil" xMin="78" yMin="-658" xMax="4481" yMax="1162">
      <contour>
        <pt x="2906" y="-172" on="1"/>
        <pt x="3412" y="-172" on="1"/>
        <pt x="3412" y="1134" on="1"/>
        <pt x="4481" y="1134" on="1"/>
        <pt x="4481" y="986" on="1"/>
        <pt x="4123" y="986" on="1"/>
        <pt x="4123" y="-320" on="1"/>
        <pt x="3946" y="-320" on="1"/>
        <pt x="3946" y="986" on="1"/>
        <pt x="3590" y="986" on="1"/>
        <pt x="3590" y="-320" on="1"/>
        <pt x="2788" y="-320" on="1"/>
        <pt x="2613" y="-458" on="0"/>
        <pt x="2236" y="-596" on="0"/>
        <pt x="1704" y="-658" on="0"/>
        <pt x="1304" y="-658" on="1"/>
        <pt x="937" y="-658" on="1"/>
        <pt x="486" y="-658" on="0"/>
        <pt x="78" y="-513" on="0"/>
        <pt x="78" y="-342" on="1"/>
        <pt x="78" y="-281" on="0"/>
        <pt x="152" y="-201" on="0"/>
        <pt x="272" y="-172" on="0"/>
        <pt x="392" y="-172" on="1"/>
        <pt x="2689" y="-172" on="1"/>
        <pt x="2801" y="-51" on="0"/>
        <pt x="2913" y="263" on="0"/>
        <pt x="2913" y="456" on="1"/>
        <pt x="2913" y="727" on="0"/>
        <pt x="2713" y="1010" on="0"/>
        <pt x="2535" y="1010" on="1"/>
        <pt x="2408" y="1010" on="0"/>
        <pt x="2300" y="943" on="1"/>
        <pt x="2419" y="827" on="0"/>
        <pt x="2538" y="549" on="0"/>
        <pt x="2538" y="388" on="1"/>
        <pt x="2538" y="190" on="0"/>
        <pt x="2365" y="-24" on="0"/>
        <pt x="2206" y="-24" on="1"/>
        <pt x="2043" y="-24" on="0"/>
        <pt x="1867" y="189" on="0"/>
        <pt x="1867" y="381" on="1"/>
        <pt x="1867" y="536" on="0"/>
        <pt x="1971" y="820" on="0"/>
        <pt x="2071" y="933" on="1"/>
        <pt x="1950" y="1010" on="0"/>
        <pt x="1777" y="1010" on="1"/>
        <pt x="1588" y="1010" on="0"/>
        <pt x="1451" y="929" on="1"/>
        <pt x="1569" y="820" on="0"/>
        <pt x="1689" y="546" on="0"/>
        <pt x="1689" y="388" on="1"/>
        <pt x="1689" y="190" on="0"/>
        <pt x="1516" y="-24" on="0"/>
        <pt x="1357" y="-24" on="1"/>
        <pt x="1194" y="-24" on="0"/>
        <pt x="1018" y="189" on="0"/>
        <pt x="1018" y="381" on="1"/>
        <pt x="1018" y="541" on="0"/>
        <pt x="1115" y="807" on="0"/>
        <pt x="1213" y="914" on="1"/>
        <pt x="1128" y="962" on="0"/>
        <pt x="921" y="1010" on="0"/>
        <pt x="815" y="1010" on="1"/>
        <pt x="604" y="1010" on="0"/>
        <pt x="324" y="790" on="0"/>
        <pt x="288" y="595" on="1"/>
        <pt x="406" y="672" on="0"/>
        <pt x="534" y="672" on="1"/>
        <pt x="686" y="672" on="0"/>
        <pt x="865" y="492" on="0"/>
        <pt x="865" y="337" on="1"/>
        <pt x="865" y="170" on="0"/>
        <pt x="679" y="-24" on="0"/>
        <pt x="518" y="-24" on="1"/>
        <pt x="337" y="-24" on="0"/>
        <pt x="117" y="249" on="0"/>
        <pt x="117" y="502" on="1"/>
        <pt x="117" y="699" on="0"/>
        <pt x="295" y="1000" on="0"/>
        <pt x="621" y="1162" on="0"/>
        <pt x="835" y="1162" on="1"/>
        <pt x="1110" y="1162" on="0"/>
        <pt x="1331" y="1022" on="1"/>
        <pt x="1525" y="1162" on="0"/>
        <pt x="1773" y="1162" on="1"/>
        <pt x="1986" y="1162" on="0"/>
        <pt x="2182" y="1035" on="1"/>
        <pt x="2336" y="1162" on="0"/>
        <pt x="2532" y="1162" on="1"/>
        <pt x="2806" y="1162" on="0"/>
        <pt x="3094" y="803" on="0"/>
        <pt x="3094" y="462" on="1"/>
        <pt x="3094" y="276" on="0"/>
        <pt x="3000" y="-41" on="0"/>
      </contour>
      <contour>
        <pt x="2187" y="845" on="1"/>
        <pt x="2113" y="754" on="0"/>
        <pt x="2040" y="525" on="0"/>
        <pt x="2040" y="388" on="1"/>
        <pt x="2040" y="252" on="0"/>
        <pt x="2123" y="115" on="0"/>
        <pt x="2200" y="115" on="1"/>
        <pt x="2280" y="115" on="0"/>
        <pt x="2364" y="252" on="0"/>
        <pt x="2364" y="372" on="1"/>
        <pt x="2364" y="506" on="0"/>
        <pt x="2275" y="742" on="0"/>
      </contour>
      <contour>
        <pt x="1332" y="830" on="1"/>
        <pt x="1265" y="752" on="0"/>
        <pt x="1191" y="521" on="0"/>
        <pt x="1191" y="388" on="1"/>
        <pt x="1191" y="252" on="0"/>
        <pt x="1274" y="115" on="0"/>
        <pt x="1351" y="115" on="1"/>
        <pt x="1431" y="115" on="0"/>
        <pt x="1515" y="252" on="0"/>
        <pt x="1515" y="372" on="1"/>
        <pt x="1515" y="508" on="0"/>
        <pt x="1420" y="747" on="0"/>
      </contour>
      <contour>
        <pt x="280" y="434" on="1"/>
        <pt x="289" y="277" on="0"/>
        <pt x="415" y="115" on="0"/>
        <pt x="522" y="115" on="1"/>
        <pt x="601" y="115" on="0"/>
        <pt x="697" y="221" on="0"/>
        <pt x="697" y="318" on="1"/>
        <pt x="697" y="416" on="0"/>
        <pt x="592" y="528" on="0"/>
        <pt x="505" y="528" on="1"/>
        <pt x="392" y="528" on="0"/>
      </contour>
      <contour>
        <pt x="1214" y="-509" on="1"/>
        <pt x="1738" y="-509" on="0"/>
        <pt x="2318" y="-424" on="0"/>
        <pt x="2522" y="-320" on="1"/>
        <pt x="320" y="-320" on="1"/>
        <pt x="292" y="-320" on="0"/>
        <pt x="265" y="-327" on="0"/>
        <pt x="247" y="-350" on="0"/>
        <pt x="247" y="-370" on="1"/>
        <pt x="247" y="-449" on="0"/>
        <pt x="682" y="-509" on="0"/>
        <pt x="1104" y="-509" on="1"/>
      </contour>
    </TTGlyph>
    <TTGlyph name="nnauvowelsigntamil" xMin="78" yMin="-658" xMax="3590" yMax="1162">
      <contour>
        <pt x="2906" y="-172" on="1"/>
        <pt x="3412" y="-172" on="1"/>
        <pt x="3412" y="1134" on="1"/>
        <pt x="3590" y="1134" on="1"/>
        <pt x="3590" y="-320" on="1"/>
        <pt x="2788" y="-320" on="1"/>
        <pt x="2613" y="-458" on="0"/>
        <pt x="2236" y="-596" on="0"/>
        <pt x="1704" y="-658" on="0"/>
        <pt x="1304" y="-658" on="1"/>
        <pt x="937" y="-658" on="1"/>
        <pt x="486" y="-658" on="0"/>
        <pt x="78" y="-513" on="0"/>
        <pt x="78" y="-342" on="1"/>
        <pt x="78" y="-281" on="0"/>
        <pt x="152" y="-201" on="0"/>
        <pt x="272" y="-172" on="0"/>
        <pt x="392" y="-172" on="1"/>
        <pt x="2689" y="-172" on="1"/>
        <pt x="2801" y="-51" on="0"/>
        <pt x="2913" y="263" on="0"/>
        <pt x="2913" y="456" on="1"/>
        <pt x="2913" y="727" on="0"/>
        <pt x="2713" y="1010" on="0"/>
        <pt x="2535" y="1010" on="1"/>
        <pt x="2408" y="1010" on="0"/>
        <pt x="2300" y="943" on="1"/>
        <pt x="2419" y="827" on="0"/>
        <pt x="2538" y="549" on="0"/>
        <pt x="2538" y="388" on="1"/>
        <pt x="2538" y="190" on="0"/>
        <pt x="2365" y="-24" on="0"/>
        <pt x="2206" y="-24" on="1"/>
        <pt x="2043" y="-24" on="0"/>
        <pt x="1867" y="189" on="0"/>
        <pt x="1867" y="381" on="1"/>
        <pt x="1867" y="536" on="0"/>
        <pt x="1971" y="820" on="0"/>
        <pt x="2071" y="933" on="1"/>
        <pt x="1950" y="1010" on="0"/>
        <pt x="1777" y="1010" on="1"/>
        <pt x="1588" y="1010" on="0"/>
        <pt x="1451" y="929" on="1"/>
        <pt x="1569" y="820" on="0"/>
        <pt x="1689" y="546" on="0"/>
        <pt x="1689" y="388" on="1"/>
        <pt x="1689" y="190" on="0"/>
        <pt x="1516" y="-24" on="0"/>
        <pt x="1357" y="-24" on="1"/>
        <pt x="1194" y="-24" on="0"/>
        <pt x="1018" y="189" on="0"/>
        <pt x="1018" y="381" on="1"/>
        <pt x="1018" y="541" on="0"/>
        <pt x="1115" y="807" on="0"/>
        <pt x="1213" y="914" on="1"/>
        <pt x="1128" y="962" on="0"/>
        <pt x="921" y="1010" on="0"/>
        <pt x="815" y="1010" on="1"/>
        <pt x="604" y="1010" on="0"/>
        <pt x="324" y="790" on="0"/>
        <pt x="288" y="595" on="1"/>
        <pt x="406" y="672" on="0"/>
        <pt x="534" y="672" on="1"/>
        <pt x="686" y="672" on="0"/>
        <pt x="865" y="492" on="0"/>
        <pt x="865" y="337" on="1"/>
        <pt x="865" y="170" on="0"/>
        <pt x="679" y="-24" on="0"/>
        <pt x="518" y="-24" on="1"/>
        <pt x="337" y="-24" on="0"/>
        <pt x="117" y="249" on="0"/>
        <pt x="117" y="502" on="1"/>
        <pt x="117" y="699" on="0"/>
        <pt x="295" y="1000" on="0"/>
        <pt x="621" y="1162" on="0"/>
        <pt x="835" y="1162" on="1"/>
        <pt x="1110" y="1162" on="0"/>
        <pt x="1331" y="1022" on="1"/>
        <pt x="1525" y="1162" on="0"/>
        <pt x="1773" y="1162" on="1"/>
        <pt x="1986" y="1162" on="0"/>
        <pt x="2182" y="1035" on="1"/>
        <pt x="2336" y="1162" on="0"/>
        <pt x="2532" y="1162" on="1"/>
        <pt x="2806" y="1162" on="0"/>
        <pt x="3094" y="803" on="0"/>
        <pt x="3094" y="462" on="1"/>
        <pt x="3094" y="276" on="0"/>
        <pt x="3000" y="-41" on="0"/>
      </contour>
      <contour>
        <pt x="2187" y="845" on="1"/>
        <pt x="2113" y="754" on="0"/>
        <pt x="2040" y="525" on="0"/>
        <pt x="2040" y="388" on="1"/>
        <pt x="2040" y="252" on="0"/>
        <pt x="2123" y="115" on="0"/>
        <pt x="2200" y="115" on="1"/>
        <pt x="2280" y="115" on="0"/>
        <pt x="2364" y="252" on="0"/>
        <pt x="2364" y="372" on="1"/>
        <pt x="2364" y="506" on="0"/>
        <pt x="2275" y="742" on="0"/>
      </contour>
      <contour>
        <pt x="1332" y="830" on="1"/>
        <pt x="1265" y="752" on="0"/>
        <pt x="1191" y="521" on="0"/>
        <pt x="1191" y="388" on="1"/>
        <pt x="1191" y="252" on="0"/>
        <pt x="1274" y="115" on="0"/>
        <pt x="1351" y="115" on="1"/>
        <pt x="1431" y="115" on="0"/>
        <pt x="1515" y="252" on="0"/>
        <pt x="1515" y="372" on="1"/>
        <pt x="1515" y="508" on="0"/>
        <pt x="1420" y="747" on="0"/>
      </contour>
      <contour>
        <pt x="280" y="434" on="1"/>
        <pt x="289" y="277" on="0"/>
        <pt x="415" y="115" on="0"/>
        <pt x="522" y="115" on="1"/>
        <pt x="601" y="115" on="0"/>
        <pt x="697" y="221" on="0"/>
        <pt x="697" y="318" on="1"/>
        <pt x="697" y="416" on="0"/>
        <pt x="592" y="528" on="0"/>
        <pt x="505" y="528" on="1"/>
        <pt x="392" y="528" on="0"/>
      </contour>
      <contour>
        <pt x="1214" y="-509" on="1"/>
        <pt x="1738" y="-509" on="0"/>
        <pt x="2318" y="-424" on="0"/>
        <pt x="2522" y="-320" on="1"/>
        <pt x="320" y="-320" on="1"/>
        <pt x="292" y="-320" on="0"/>
        <pt x="265" y="-327" on="0"/>
        <pt x="247" y="-350" on="0"/>
        <pt x="247" y="-370" on="1"/>
        <pt x="247" y="-449" on="0"/>
        <pt x="682" y="-509" on="0"/>
        <pt x="1104" y="-509" on="1"/>
      </contour>
    </TTGlyph>
    <TTGlyph name="nnnaprehalftamil" xMin="117" yMin="-24" xMax="2494" yMax="1726">
      <component glyphName="nnnatamil" x="0" y="0" flags="0x204"/>
      <component glyphName="viramatamil" x="1834" y="0" flags="0x4"/>
    </TTGlyph>
    <TTGlyph name="nnnatamil" xMin="117" yMin="-24" xMax="2494" yMax="1162">
      <contour>
        <pt x="1811" y="986" on="1"/>
        <pt x="1699" y="986" on="0"/>
        <pt x="1515" y="951" on="0"/>
        <pt x="1460" y="918" on="1"/>
        <pt x="1571" y="815" on="0"/>
        <pt x="1689" y="543" on="0"/>
        <pt x="1689" y="388" on="1"/>
        <pt x="1689" y="190" on="0"/>
        <pt x="1516" y="-24" on="0"/>
        <pt x="1357" y="-24" on="1"/>
        <pt x="1194" y="-24" on="0"/>
        <pt x="1018" y="189" on="0"/>
        <pt x="1018" y="381" on="1"/>
        <pt x="1018" y="539" on="0"/>
        <pt x="1117" y="809" on="0"/>
        <pt x="1217" y="920" on="1"/>
        <pt x="1056" y="1010" on="0"/>
        <pt x="815" y="1010" on="1"/>
        <pt x="604" y="1010" on="0"/>
        <pt x="324" y="790" on="0"/>
        <pt x="288" y="595" on="1"/>
        <pt x="406" y="672" on="0"/>
        <pt x="534" y="672" on="1"/>
        <pt x="686" y="672" on="0"/>
        <pt x="865" y="492" on="0"/>
        <pt x="865" y="337" on="1"/>
        <pt x="865" y="170" on="0"/>
        <pt x="679" y="-24" on="0"/>
        <pt x="518" y="-24" on="1"/>
        <pt x="337" y="-24" on="0"/>
        <pt x="117" y="249" on="0"/>
        <pt x="117" y="502" on="1"/>
        <pt x="117" y="699" on="0"/>
        <pt x="295" y="1000" on="0"/>
        <pt x="621" y="1162" on="0"/>
        <pt x="835" y="1162" on="1"/>
        <pt x="1106" y="1162" on="0"/>
        <pt x="1342" y="1021" on="1"/>
        <pt x="1444" y="1081" on="0"/>
        <pt x="1696" y="1134" on="0"/>
        <pt x="1870" y="1134" on="1"/>
        <pt x="2494" y="1134" on="1"/>
        <pt x="2494" y="986" on="1"/>
        <pt x="2146" y="986" on="1"/>
        <pt x="2146" y="0" on="1"/>
        <pt x="1968" y="0" on="1"/>
        <pt x="1968" y="986" on="1"/>
      </contour>
      <contour>
        <pt x="1333" y="831" on="1"/>
        <pt x="1264" y="749" on="0"/>
        <pt x="1191" y="520" on="0"/>
        <pt x="1191" y="388" on="1"/>
        <pt x="1191" y="252" on="0"/>
        <pt x="1274" y="115" on="0"/>
        <pt x="1351" y="115" on="1"/>
        <pt x="1431" y="115" on="0"/>
        <pt x="1515" y="252" on="0"/>
        <pt x="1515" y="372" on="1"/>
        <pt x="1515" y="507" on="0"/>
        <pt x="1422" y="745" on="0"/>
      </contour>
      <contour>
        <pt x="280" y="434" on="1"/>
        <pt x="289" y="277" on="0"/>
        <pt x="415" y="115" on="0"/>
        <pt x="522" y="115" on="1"/>
        <pt x="601" y="115" on="0"/>
        <pt x="697" y="221" on="0"/>
        <pt x="697" y="318" on="1"/>
        <pt x="697" y="416" on="0"/>
        <pt x="592" y="528" on="0"/>
        <pt x="505" y="528" on="1"/>
        <pt x="392" y="528" on="0"/>
      </contour>
    </TTGlyph>
    <TTGlyph name="nnnauuvowelsigntamil" xMin="78" yMin="-658" xMax="3632" yMax="1162">
      <contour>
        <pt x="2741" y="-320" on="1"/>
        <pt x="1939" y="-320" on="1"/>
        <pt x="1757" y="-486" on="0"/>
        <pt x="1186" y="-658" on="0"/>
        <pt x="826" y="-658" on="1"/>
        <pt x="769" y="-658" on="1"/>
        <pt x="434" y="-658" on="0"/>
        <pt x="78" y="-495" on="0"/>
        <pt x="78" y="-343" on="1"/>
        <pt x="78" y="-281" on="0"/>
        <pt x="146" y="-202" on="0"/>
        <pt x="257" y="-172" on="0"/>
        <pt x="372" y="-172" on="1"/>
        <pt x="1840" y="-172" on="1"/>
        <pt x="2064" y="70" on="0"/>
        <pt x="2064" y="456" on="1"/>
        <pt x="2064" y="727" on="0"/>
        <pt x="1864" y="1010" on="0"/>
        <pt x="1686" y="1010" on="1"/>
        <pt x="1550" y="1010" on="0"/>
        <pt x="1447" y="940" on="1"/>
        <pt x="1568" y="825" on="0"/>
        <pt x="1689" y="549" on="0"/>
        <pt x="1689" y="388" on="1"/>
        <pt x="1689" y="190" on="0"/>
        <pt x="1516" y="-24" on="0"/>
        <pt x="1357" y="-24" on="1"/>
        <pt x="1194" y="-24" on="0"/>
        <pt x="1018" y="189" on="0"/>
        <pt x="1018" y="381" on="1"/>
        <pt x="1018" y="537" on="0"/>
        <pt x="1116" y="808" on="0"/>
        <pt x="1215" y="922" on="1"/>
        <pt x="1130" y="966" on="0"/>
        <pt x="923" y="1010" on="0"/>
        <pt x="815" y="1010" on="1"/>
        <pt x="604" y="1010" on="0"/>
        <pt x="324" y="790" on="0"/>
        <pt x="288" y="595" on="1"/>
        <pt x="406" y="672" on="0"/>
        <pt x="534" y="672" on="1"/>
        <pt x="686" y="672" on="0"/>
        <pt x="865" y="492" on="0"/>
        <pt x="865" y="337" on="1"/>
        <pt x="865" y="170" on="0"/>
        <pt x="679" y="-24" on="0"/>
        <pt x="518" y="-24" on="1"/>
        <pt x="337" y="-24" on="0"/>
        <pt x="117" y="249" on="0"/>
        <pt x="117" y="502" on="1"/>
        <pt x="117" y="699" on="0"/>
        <pt x="295" y="1000" on="0"/>
        <pt x="621" y="1162" on="0"/>
        <pt x="835" y="1162" on="1"/>
        <pt x="1112" y="1162" on="0"/>
        <pt x="1325" y="1031" on="1"/>
        <pt x="1483" y="1162" on="0"/>
        <pt x="1681" y="1162" on="1"/>
        <pt x="1956" y="1162" on="0"/>
        <pt x="2245" y="804" on="0"/>
        <pt x="2245" y="462" on="1"/>
        <pt x="2245" y="90" on="0"/>
        <pt x="2057" y="-172" on="1"/>
        <pt x="2563" y="-172" on="1"/>
        <pt x="2563" y="1134" on="1"/>
        <pt x="3632" y="1134" on="1"/>
        <pt x="3632" y="986" on="1"/>
        <pt x="3274" y="986" on="1"/>
        <pt x="3274" y="-320" on="1"/>
        <pt x="3097" y="-320" on="1"/>
        <pt x="3097" y="986" on="1"/>
        <pt x="2741" y="986" on="1"/>
      </contour>
      <contour>
        <pt x="1333" y="844" on="1"/>
        <pt x="1265" y="758" on="0"/>
        <pt x="1191" y="516" on="0"/>
        <pt x="1191" y="388" on="1"/>
        <pt x="1191" y="252" on="0"/>
        <pt x="1274" y="115" on="0"/>
        <pt x="1351" y="115" on="1"/>
        <pt x="1431" y="115" on="0"/>
        <pt x="1515" y="252" on="0"/>
        <pt x="1515" y="372" on="1"/>
        <pt x="1515" y="520" on="0"/>
        <pt x="1423" y="760" on="0"/>
      </contour>
      <contour>
        <pt x="280" y="434" on="1"/>
        <pt x="289" y="277" on="0"/>
        <pt x="415" y="115" on="0"/>
        <pt x="522" y="115" on="1"/>
        <pt x="601" y="115" on="0"/>
        <pt x="697" y="221" on="0"/>
        <pt x="697" y="318" on="1"/>
        <pt x="697" y="416" on="0"/>
        <pt x="592" y="528" on="0"/>
        <pt x="505" y="528" on="1"/>
        <pt x="392" y="528" on="0"/>
      </contour>
      <contour>
        <pt x="844" y="-509" on="1"/>
        <pt x="1367" y="-509" on="0"/>
        <pt x="1673" y="-320" on="1"/>
        <pt x="328" y="-320" on="1"/>
        <pt x="298" y="-320" on="0"/>
        <pt x="267" y="-327" on="0"/>
        <pt x="247" y="-350" on="0"/>
        <pt x="247" y="-369" on="1"/>
        <pt x="247" y="-434" on="0"/>
        <pt x="514" y="-509" on="0"/>
        <pt x="776" y="-509" on="1"/>
      </contour>
    </TTGlyph>
    <TTGlyph name="nnnauvowelsigntamil" xMin="78" yMin="-658" xMax="2741" yMax="1162">
      <contour>
        <pt x="2741" y="-320" on="1"/>
        <pt x="1939" y="-320" on="1"/>
        <pt x="1757" y="-486" on="0"/>
        <pt x="1186" y="-658" on="0"/>
        <pt x="826" y="-658" on="1"/>
        <pt x="769" y="-658" on="1"/>
        <pt x="434" y="-658" on="0"/>
        <pt x="78" y="-495" on="0"/>
        <pt x="78" y="-343" on="1"/>
        <pt x="78" y="-281" on="0"/>
        <pt x="146" y="-202" on="0"/>
        <pt x="257" y="-172" on="0"/>
        <pt x="372" y="-172" on="1"/>
        <pt x="1840" y="-172" on="1"/>
        <pt x="2064" y="70" on="0"/>
        <pt x="2064" y="456" on="1"/>
        <pt x="2064" y="727" on="0"/>
        <pt x="1864" y="1010" on="0"/>
        <pt x="1686" y="1010" on="1"/>
        <pt x="1550" y="1010" on="0"/>
        <pt x="1447" y="940" on="1"/>
        <pt x="1568" y="825" on="0"/>
        <pt x="1689" y="549" on="0"/>
        <pt x="1689" y="388" on="1"/>
        <pt x="1689" y="190" on="0"/>
        <pt x="1516" y="-24" on="0"/>
        <pt x="1357" y="-24" on="1"/>
        <pt x="1194" y="-24" on="0"/>
        <pt x="1018" y="189" on="0"/>
        <pt x="1018" y="381" on="1"/>
        <pt x="1018" y="537" on="0"/>
        <pt x="1116" y="808" on="0"/>
        <pt x="1215" y="922" on="1"/>
        <pt x="1130" y="966" on="0"/>
        <pt x="923" y="1010" on="0"/>
        <pt x="815" y="1010" on="1"/>
        <pt x="604" y="1010" on="0"/>
        <pt x="324" y="790" on="0"/>
        <pt x="288" y="595" on="1"/>
        <pt x="406" y="672" on="0"/>
        <pt x="534" y="672" on="1"/>
        <pt x="686" y="672" on="0"/>
        <pt x="865" y="492" on="0"/>
        <pt x="865" y="337" on="1"/>
        <pt x="865" y="170" on="0"/>
        <pt x="679" y="-24" on="0"/>
        <pt x="518" y="-24" on="1"/>
        <pt x="337" y="-24" on="0"/>
        <pt x="117" y="249" on="0"/>
        <pt x="117" y="502" on="1"/>
        <pt x="117" y="699" on="0"/>
        <pt x="295" y="1000" on="0"/>
        <pt x="621" y="1162" on="0"/>
        <pt x="835" y="1162" on="1"/>
        <pt x="1112" y="1162" on="0"/>
        <pt x="1325" y="1031" on="1"/>
        <pt x="1483" y="1162" on="0"/>
        <pt x="1681" y="1162" on="1"/>
        <pt x="1956" y="1162" on="0"/>
        <pt x="2245" y="804" on="0"/>
        <pt x="2245" y="462" on="1"/>
        <pt x="2245" y="90" on="0"/>
        <pt x="2057" y="-172" on="1"/>
        <pt x="2563" y="-172" on="1"/>
        <pt x="2563" y="1134" on="1"/>
        <pt x="2741" y="1134" on="1"/>
      </contour>
      <contour>
        <pt x="1333" y="844" on="1"/>
        <pt x="1265" y="758" on="0"/>
        <pt x="1191" y="516" on="0"/>
        <pt x="1191" y="388" on="1"/>
        <pt x="1191" y="252" on="0"/>
        <pt x="1274" y="115" on="0"/>
        <pt x="1351" y="115" on="1"/>
        <pt x="1431" y="115" on="0"/>
        <pt x="1515" y="252" on="0"/>
        <pt x="1515" y="372" on="1"/>
        <pt x="1515" y="520" on="0"/>
        <pt x="1423" y="760" on="0"/>
      </contour>
      <contour>
        <pt x="280" y="434" on="1"/>
        <pt x="289" y="277" on="0"/>
        <pt x="415" y="115" on="0"/>
        <pt x="522" y="115" on="1"/>
        <pt x="601" y="115" on="0"/>
        <pt x="697" y="221" on="0"/>
        <pt x="697" y="318" on="1"/>
        <pt x="697" y="416" on="0"/>
        <pt x="592" y="528" on="0"/>
        <pt x="505" y="528" on="1"/>
        <pt x="392" y="528" on="0"/>
      </contour>
      <contour>
        <pt x="844" y="-509" on="1"/>
        <pt x="1367" y="-509" on="0"/>
        <pt x="1673" y="-320" on="1"/>
        <pt x="328" y="-320" on="1"/>
        <pt x="298" y="-320" on="0"/>
        <pt x="267" y="-327" on="0"/>
        <pt x="247" y="-350" on="0"/>
        <pt x="247" y="-369" on="1"/>
        <pt x="247" y="-434" on="0"/>
        <pt x="514" y="-509" on="0"/>
        <pt x="776" y="-509" on="1"/>
      </contour>
    </TTGlyph>
    <TTGlyph name="numbersign.tamil" xMin="51" yMin="0" xMax="1272" yMax="1462">
      <contour>
        <pt x="983" y="893" on="1"/>
        <pt x="920" y="565" on="1"/>
        <pt x="1200" y="565" on="1"/>
        <pt x="1200" y="428" on="1"/>
        <pt x="893" y="428" on="1"/>
        <pt x="811" y="0" on="1"/>
        <pt x="664" y="0" on="1"/>
        <pt x="748" y="428" on="1"/>
        <pt x="457" y="428" on="1"/>
        <pt x="375" y="0" on="1"/>
        <pt x="231" y="0" on="1"/>
        <pt x="309" y="428" on="1"/>
        <pt x="51" y="428" on="1"/>
        <pt x="51" y="565" on="1"/>
        <pt x="336" y="565" on="1"/>
        <pt x="401" y="893" on="1"/>
        <pt x="127" y="893" on="1"/>
        <pt x="127" y="1030" on="1"/>
        <pt x="426" y="1030" on="1"/>
        <pt x="508" y="1462" on="1"/>
        <pt x="655" y="1462" on="1"/>
        <pt x="573" y="1030" on="1"/>
        <pt x="866" y="1030" on="1"/>
        <pt x="950" y="1462" on="1"/>
        <pt x="1094" y="1462" on="1"/>
        <pt x="1010" y="1030" on="1"/>
        <pt x="1272" y="1030" on="1"/>
        <pt x="1272" y="893" on="1"/>
      </contour>
      <contour>
        <pt x="483" y="565" on="1"/>
        <pt x="774" y="565" on="1"/>
        <pt x="838" y="893" on="1"/>
        <pt x="547" y="893" on="1"/>
      </contour>
    </TTGlyph>
</ttFont>
